<mxfile host="app.diagrams.net" modified="2021-11-18T02:06:52.357Z" agent="5.0 (Windows NT 10.0; Win64; x64) AppleWebKit/537.36 (KHTML, like Gecko) Chrome/95.0.4638.69 Safari/537.36" etag="pr_5ZjeQaLuaXM93N1zo" version="15.7.3" type="github" pages="12">
  <diagram id="UxVFxGpKfsYg7zSkrFi4" name="ログイン画面">
    <mxGraphModel dx="1564" dy="1014" grid="1" gridSize="10" guides="1" tooltips="1" connect="1" arrows="1" fold="1" page="1" pageScale="1" pageWidth="1100" pageHeight="850" math="0" shadow="0">
      <root>
        <mxCell id="chL5t6j-_qPZ0_r-l7LH-0" />
        <mxCell id="chL5t6j-_qPZ0_r-l7LH-1" parent="chL5t6j-_qPZ0_r-l7LH-0" />
        <mxCell id="VtDj1cFA3DahUaQBhV_i-0" value="" style="whiteSpace=wrap;html=1;rounded=0;shadow=0;labelBackgroundColor=none;strokeWidth=1;fontFamily=Helvetica;fontSize=12;align=center;comic=1;strokeColor=none;fillColor=#EF7C8E;fontColor=none;noLabel=1;" parent="chL5t6j-_qPZ0_r-l7LH-1" vertex="1">
          <mxGeometry x="20" y="20" width="1060" height="1300" as="geometry" />
        </mxCell>
        <mxCell id="vUNmke9pMDpvEQRWQD40-0" value="&lt;h1&gt;&lt;font style=&quot;font-size: 68px ; line-height: 1&quot;&gt;推しとお金と。&lt;/font&gt;&lt;/h1&gt;" style="text;strokeColor=none;fillColor=none;html=1;fontSize=68;fontStyle=1;verticalAlign=middle;align=center;rounded=0;shadow=0;labelBackgroundColor=none;sketch=0;fontFamily=Dela Gothic One;fontSource=https%3A%2F%2Ffonts.googleapis.com%2Fcss%3Ffamily%3DDela%2BGothic%2BOne;fontColor=default;labelBorderColor=none;gradientColor=#ffffff;gradientDirection=north;" parent="chL5t6j-_qPZ0_r-l7LH-1" vertex="1">
          <mxGeometry x="250" y="180" width="600" height="200" as="geometry" />
        </mxCell>
        <mxCell id="b3vnI4x36vE1d_46bEfG-0" value="Email" style="rounded=1;whiteSpace=wrap;html=1;fontColor=#B3B3B3;fontSize=14;align=left;fillColor=#F9F7ED;" vertex="1" parent="chL5t6j-_qPZ0_r-l7LH-1">
          <mxGeometry x="390" y="425" width="310" height="40" as="geometry" />
        </mxCell>
        <mxCell id="b3vnI4x36vE1d_46bEfG-1" value="password" style="rounded=1;whiteSpace=wrap;html=1;align=left;fontColor=#B3B3B3;fillColor=#F9F7ED;" vertex="1" parent="chL5t6j-_qPZ0_r-l7LH-1">
          <mxGeometry x="390" y="480" width="310" height="40" as="geometry" />
        </mxCell>
        <mxCell id="b3vnI4x36vE1d_46bEfG-2" value="推す" style="strokeWidth=1;shadow=0;dashed=0;align=center;html=1;shape=mxgraph.mockup.buttons.button;strokeColor=#666666;fontColor=#000000;mainText=;buttonStyle=round;fontSize=17;fontStyle=1;fillColor=#B6E2D3;whiteSpace=wrap;" vertex="1" parent="chL5t6j-_qPZ0_r-l7LH-1">
          <mxGeometry x="500" y="560" width="100" height="40" as="geometry" />
        </mxCell>
      </root>
    </mxGraphModel>
  </diagram>
  <diagram name="トップ" id="03018318-947c-dd8e-b7a3-06fadd420f32">
    <mxGraphModel dx="1564" dy="1014" grid="1" gridSize="10" guides="1" tooltips="1" connect="1" arrows="1" fold="1" page="1" pageScale="1" pageWidth="1100" pageHeight="850" background="none" math="0" shadow="0">
      <root>
        <mxCell id="0" />
        <mxCell id="1" parent="0" />
        <mxCell id="677b7b8949515195-1" value="" style="whiteSpace=wrap;html=1;rounded=0;shadow=0;labelBackgroundColor=none;strokeWidth=1;fontFamily=Verdana;fontSize=12;align=center;comic=1;strokeColor=#FAE8E0;fillColor=#FAE8E0;fontColor=#ffffff;" parent="1" vertex="1">
          <mxGeometry x="20" y="20" width="1060" height="2000" as="geometry" />
        </mxCell>
        <mxCell id="yaczlZ2EXRmRVQACX1jq-32" value="" style="whiteSpace=wrap;html=1;rounded=0;shadow=0;labelBackgroundColor=none;strokeWidth=2;fontFamily=Verdana;fontSize=12;align=center;comic=1;perimeterSpacing=0;strokeColor=#EBE0D0;fillColor=#EF7C8E;" parent="1" vertex="1">
          <mxGeometry x="40" y="190" width="690" height="500" as="geometry" />
        </mxCell>
        <mxCell id="yaczlZ2EXRmRVQACX1jq-25" value="" style="verticalLabelPosition=bottom;shadow=0;dashed=0;align=center;html=1;verticalAlign=top;strokeWidth=1;shape=mxgraph.mockup.graphics.simpleIcon;strokeColor=#999999;rounded=1;fontSize=18;fillColor=none;" parent="1" vertex="1">
          <mxGeometry x="60" y="210" width="650" height="360" as="geometry" />
        </mxCell>
        <mxCell id="yaczlZ2EXRmRVQACX1jq-33" value="" style="whiteSpace=wrap;html=1;rounded=0;shadow=0;labelBackgroundColor=none;strokeWidth=2;fontFamily=Verdana;fontSize=12;align=center;comic=1;perimeterSpacing=0;strokeColor=#D8A7B1;fillColor=#D8A7B1;" parent="1" vertex="1">
          <mxGeometry x="40" y="1350" width="690" height="580" as="geometry" />
        </mxCell>
        <mxCell id="yaczlZ2EXRmRVQACX1jq-29" value="" style="whiteSpace=wrap;html=1;rounded=0;shadow=0;labelBackgroundColor=none;strokeWidth=2;fontFamily=Verdana;fontSize=12;align=center;comic=1;perimeterSpacing=0;strokeColor=#B6E2D3;fillColor=#B6E2D3;" parent="1" vertex="1">
          <mxGeometry x="40" y="730" width="690" height="580" as="geometry" />
        </mxCell>
        <mxCell id="677b7b8949515195-2" value="&lt;h2&gt;&lt;font face=&quot;Dela Gothic One&quot; data-font-src=&quot;https://fonts.googleapis.com/css?family=Dela+Gothic+One&quot;&gt;推しとお金と。&lt;/font&gt;&lt;/h2&gt;" style="whiteSpace=wrap;html=1;rounded=0;shadow=0;labelBackgroundColor=none;strokeWidth=1;fontFamily=Verdana;fontSize=28;align=center;comic=1;fillColor=none;strokeColor=none;" parent="1" vertex="1">
          <mxGeometry x="40" y="40" width="300" height="80" as="geometry" />
        </mxCell>
        <mxCell id="677b7b8949515195-9" value="" style="line;strokeWidth=1;html=1;rounded=0;shadow=0;labelBackgroundColor=none;fillColor=none;fontFamily=Verdana;fontSize=14;fontColor=#000000;align=center;comic=1;" parent="1" vertex="1">
          <mxGeometry x="20" y="140" width="1060" height="10" as="geometry" />
        </mxCell>
        <mxCell id="677b7b8949515195-26" value="" style="whiteSpace=wrap;html=1;rounded=0;shadow=0;labelBackgroundColor=none;strokeWidth=1;fontFamily=Verdana;fontSize=12;align=center;comic=1;fillColor=#F9F7ED;strokeColor=#36393d;" parent="1" vertex="1">
          <mxGeometry x="750" y="190" width="310" height="310" as="geometry" />
        </mxCell>
        <mxCell id="677b7b8949515195-42" value="カレンダー" style="text;html=1;points=[];align=center;verticalAlign=middle;spacingTop=-4;fontSize=14;fontFamily=Verdana" parent="1" vertex="1">
          <mxGeometry x="820" y="335" width="170" height="20" as="geometry" />
        </mxCell>
        <mxCell id="yaczlZ2EXRmRVQACX1jq-4" value="" style="verticalLabelPosition=bottom;shadow=0;dashed=0;align=center;html=1;verticalAlign=top;strokeWidth=1;shape=mxgraph.mockup.graphics.pieChart;parts=10,20,35;partColors=#e0e0e0,#d0d0d0,#c0c0c0,#b0b0b0,#a0a0a0;strokeWidth=2;strokeColor=#E6E6E6;" parent="1" vertex="1">
          <mxGeometry x="80" y="1450" width="200" height="200" as="geometry" />
        </mxCell>
        <mxCell id="yaczlZ2EXRmRVQACX1jq-24" value="メモリー" style="text;html=1;points=[];align=center;verticalAlign=middle;spacingTop=-4;fontSize=20;fontFamily=Verdana;fontStyle=1" parent="1" vertex="1">
          <mxGeometry x="300" y="750" width="170" height="40" as="geometry" />
        </mxCell>
        <mxCell id="yaczlZ2EXRmRVQACX1jq-6" value="" style="whiteSpace=wrap;html=1;rounded=1;shadow=0;labelBackgroundColor=none;strokeWidth=1;fontFamily=Verdana;fontSize=12;align=center;comic=1;fillColor=#F9F7ED;" parent="1" vertex="1">
          <mxGeometry x="60" y="800" width="140" height="140" as="geometry" />
        </mxCell>
        <mxCell id="yaczlZ2EXRmRVQACX1jq-7" value="" style="whiteSpace=wrap;html=1;rounded=1;shadow=0;labelBackgroundColor=none;strokeWidth=1;fontFamily=Verdana;fontSize=12;align=center;comic=1;fillColor=#F9F7ED;" parent="1" vertex="1">
          <mxGeometry x="230" y="800" width="140" height="140" as="geometry" />
        </mxCell>
        <mxCell id="yaczlZ2EXRmRVQACX1jq-8" value="" style="whiteSpace=wrap;html=1;rounded=1;shadow=0;labelBackgroundColor=none;strokeWidth=1;fontFamily=Verdana;fontSize=12;align=center;comic=1;fillColor=#F9F7ED;" parent="1" vertex="1">
          <mxGeometry x="400" y="800" width="140" height="140" as="geometry" />
        </mxCell>
        <mxCell id="yaczlZ2EXRmRVQACX1jq-9" value="" style="whiteSpace=wrap;html=1;rounded=1;shadow=0;labelBackgroundColor=none;strokeWidth=1;fontFamily=Verdana;fontSize=12;align=center;comic=1;fillColor=#F9F7ED;" parent="1" vertex="1">
          <mxGeometry x="570" y="800" width="140" height="140" as="geometry" />
        </mxCell>
        <mxCell id="yaczlZ2EXRmRVQACX1jq-12" value="" style="whiteSpace=wrap;html=1;rounded=1;shadow=0;labelBackgroundColor=none;strokeWidth=1;fontFamily=Verdana;fontSize=12;align=center;comic=1;fillColor=#F9F7ED;" parent="1" vertex="1">
          <mxGeometry x="60" y="960" width="140" height="140" as="geometry" />
        </mxCell>
        <mxCell id="yaczlZ2EXRmRVQACX1jq-13" value="" style="whiteSpace=wrap;html=1;rounded=1;shadow=0;labelBackgroundColor=none;strokeWidth=1;fontFamily=Verdana;fontSize=12;align=center;comic=1;fillColor=#F9F7ED;" parent="1" vertex="1">
          <mxGeometry x="230" y="960" width="140" height="140" as="geometry" />
        </mxCell>
        <mxCell id="yaczlZ2EXRmRVQACX1jq-14" value="" style="whiteSpace=wrap;html=1;rounded=1;shadow=0;labelBackgroundColor=none;strokeWidth=1;fontFamily=Verdana;fontSize=12;align=center;comic=1;fillColor=#F9F7ED;" parent="1" vertex="1">
          <mxGeometry x="400" y="960" width="140" height="140" as="geometry" />
        </mxCell>
        <mxCell id="yaczlZ2EXRmRVQACX1jq-15" value="" style="whiteSpace=wrap;html=1;rounded=1;shadow=0;labelBackgroundColor=none;strokeWidth=1;fontFamily=Verdana;fontSize=12;align=center;comic=1;fillColor=#F9F7ED;" parent="1" vertex="1">
          <mxGeometry x="570" y="955" width="140" height="140" as="geometry" />
        </mxCell>
        <mxCell id="yaczlZ2EXRmRVQACX1jq-22" value="" style="whiteSpace=wrap;html=1;rounded=1;shadow=0;labelBackgroundColor=none;strokeWidth=1;fontFamily=Verdana;fontSize=12;align=center;comic=1;fillColor=#F9F7ED;" parent="1" vertex="1">
          <mxGeometry x="60" y="1120" width="140" height="140" as="geometry" />
        </mxCell>
        <mxCell id="yaczlZ2EXRmRVQACX1jq-23" value="" style="whiteSpace=wrap;html=1;rounded=1;shadow=0;labelBackgroundColor=none;strokeWidth=1;fontFamily=Verdana;fontSize=12;align=center;comic=1;fillColor=#F9F7ED;" parent="1" vertex="1">
          <mxGeometry x="230" y="1120" width="140" height="140" as="geometry" />
        </mxCell>
        <mxCell id="yaczlZ2EXRmRVQACX1jq-34" value="お金の管理" style="text;html=1;points=[];align=center;verticalAlign=middle;spacingTop=-4;fontSize=20;fontFamily=Verdana;fontStyle=1" parent="1" vertex="1">
          <mxGeometry x="300" y="1370" width="170" height="40" as="geometry" />
        </mxCell>
        <mxCell id="yaczlZ2EXRmRVQACX1jq-35" value="" style="verticalLabelPosition=bottom;shadow=0;dashed=0;align=center;html=1;verticalAlign=top;strokeWidth=1;shape=mxgraph.mockup.graphics.pieChart;parts=10,20,35;partColors=#e0e0e0,#d0d0d0,#c0c0c0,#b0b0b0,#a0a0a0;strokeWidth=2;strokeColor=#E6E6E6;" parent="1" vertex="1">
          <mxGeometry x="490" y="1450" width="200" height="200" as="geometry" />
        </mxCell>
        <mxCell id="yaczlZ2EXRmRVQACX1jq-36" value="支出" style="text;html=1;points=[];align=center;verticalAlign=middle;spacingTop=-4;fontSize=20;fontFamily=Verdana;fontStyle=1" parent="1" vertex="1">
          <mxGeometry x="95" y="1410" width="170" height="40" as="geometry" />
        </mxCell>
        <mxCell id="yaczlZ2EXRmRVQACX1jq-37" value="推し貯金" style="text;html=1;points=[];align=center;verticalAlign=middle;spacingTop=-4;fontSize=20;fontFamily=Verdana;fontStyle=1" parent="1" vertex="1">
          <mxGeometry x="505" y="1410" width="170" height="40" as="geometry" />
        </mxCell>
        <mxCell id="yaczlZ2EXRmRVQACX1jq-38" value="&lt;ul&gt;&lt;li&gt;コンサート&lt;/li&gt;&lt;li&gt;演劇&lt;/li&gt;&lt;li&gt;配信&lt;/li&gt;&lt;li&gt;CD&lt;/li&gt;&lt;li&gt;雑誌&lt;/li&gt;&lt;/ul&gt;" style="text;strokeColor=none;fillColor=none;html=1;whiteSpace=wrap;verticalAlign=top;overflow=hidden;rounded=0;shadow=0;sketch=0;fontSize=20;" parent="1" vertex="1">
          <mxGeometry x="50" y="1700" width="260" height="200" as="geometry" />
        </mxCell>
        <mxCell id="yaczlZ2EXRmRVQACX1jq-39" value="&lt;ul&gt;&lt;li&gt;コンサート&lt;/li&gt;&lt;li&gt;主演舞台&lt;/li&gt;&lt;li&gt;TV出演(グループ)&lt;/li&gt;&lt;li&gt;TV出演(単発)&lt;/li&gt;&lt;li&gt;雑誌(グループ)&lt;/li&gt;&lt;li&gt;雑誌(単発)&lt;/li&gt;&lt;/ul&gt;" style="text;strokeColor=none;fillColor=none;html=1;whiteSpace=wrap;verticalAlign=top;overflow=hidden;rounded=0;shadow=0;sketch=0;fontSize=20;" parent="1" vertex="1">
          <mxGeometry x="460" y="1700" width="260" height="200" as="geometry" />
        </mxCell>
        <mxCell id="yaczlZ2EXRmRVQACX1jq-2" value="推しの画像" style="text;html=1;points=[];align=center;verticalAlign=middle;spacingTop=-4;fontSize=14;fontFamily=Verdana" parent="1" vertex="1">
          <mxGeometry x="300" y="390" width="170" height="20" as="geometry" />
        </mxCell>
        <mxCell id="yaczlZ2EXRmRVQACX1jq-41" value="&lt;div style=&quot;font-size: 14px&quot;&gt;&lt;span style=&quot;font-weight: normal ; font-size: 14px&quot;&gt;&lt;font style=&quot;font-size: 14px&quot;&gt;なまえ　　　：山田太郎&lt;/font&gt;&lt;/span&gt;&lt;/div&gt;&lt;div style=&quot;font-size: 14px&quot;&gt;&lt;span style=&quot;font-weight: normal ; font-size: 14px&quot;&gt;&lt;font style=&quot;font-size: 14px&quot;&gt;たんじょうび：yyyy/mm/dd&lt;/font&gt;&lt;/span&gt;&lt;/div&gt;&lt;div style=&quot;font-size: 14px&quot;&gt;&lt;span style=&quot;font-weight: 400&quot;&gt;あいじょうど：100%&lt;/span&gt;&lt;/div&gt;" style="text;strokeColor=none;fillColor=none;html=1;fontSize=14;fontStyle=1;verticalAlign=top;align=left;rounded=0;shadow=0;labelBackgroundColor=none;sketch=0;" parent="1" vertex="1">
          <mxGeometry x="60" y="580" width="650" height="80" as="geometry" />
        </mxCell>
        <mxCell id="q1EqOqQfWIgQhFBcWWkm-1" value="" style="verticalLabelPosition=bottom;shadow=0;dashed=0;align=center;html=1;verticalAlign=top;strokeWidth=1;shape=mxgraph.mockup.graphics.simpleIcon;strokeColor=#999999;rounded=1;fontSize=18;fillColor=none;" vertex="1" parent="1">
          <mxGeometry x="70" y="810" width="120" height="120" as="geometry" />
        </mxCell>
        <mxCell id="q1EqOqQfWIgQhFBcWWkm-2" value="No.1" style="text;strokeColor=none;fillColor=none;html=1;fontSize=24;fontStyle=1;verticalAlign=middle;align=center;rounded=0;shadow=0;glass=0;sketch=0;fontColor=#000000;" vertex="1" parent="1">
          <mxGeometry x="40" y="797" width="100" height="40" as="geometry" />
        </mxCell>
        <mxCell id="q1EqOqQfWIgQhFBcWWkm-3" value="" style="html=1;verticalLabelPosition=bottom;align=center;labelBackgroundColor=#ffffff;verticalAlign=top;strokeWidth=2;strokeColor=none;shadow=0;dashed=0;shape=mxgraph.ios7.icons.heart;rounded=1;fontSize=18;fillColor=#FAE8E0;" vertex="1" parent="1">
          <mxGeometry x="670" y="630" width="40" height="40" as="geometry" />
        </mxCell>
        <mxCell id="CaS9_FE52fElYKPDHRQ8-1" value="投稿" style="whiteSpace=wrap;html=1;rounded=0;shadow=0;labelBackgroundColor=none;strokeWidth=1;fontFamily=Verdana;fontSize=14;align=center;comic=1;fillColor=none;strokeColor=none;verticalAlign=bottom;fontStyle=1" vertex="1" parent="1">
          <mxGeometry x="850" y="40" width="80" height="90" as="geometry" />
        </mxCell>
        <mxCell id="CaS9_FE52fElYKPDHRQ8-2" value="わたし" style="whiteSpace=wrap;html=1;rounded=0;shadow=0;labelBackgroundColor=none;strokeWidth=1;fontFamily=Verdana;fontSize=14;align=center;comic=1;fillColor=none;strokeColor=none;verticalAlign=bottom;fontStyle=1" vertex="1" parent="1">
          <mxGeometry x="980" y="40" width="80" height="90" as="geometry" />
        </mxCell>
        <mxCell id="CaS9_FE52fElYKPDHRQ8-3" value="お金" style="whiteSpace=wrap;html=1;rounded=0;shadow=0;labelBackgroundColor=none;strokeWidth=1;fontFamily=Verdana;fontSize=14;align=center;comic=1;fillColor=none;strokeColor=none;verticalAlign=bottom;fontStyle=1" vertex="1" parent="1">
          <mxGeometry x="910" y="40" width="80" height="90" as="geometry" />
        </mxCell>
        <mxCell id="CaS9_FE52fElYKPDHRQ8-4" value="メモリー" style="whiteSpace=wrap;html=1;rounded=0;shadow=0;labelBackgroundColor=none;strokeWidth=1;fontFamily=Verdana;fontSize=14;align=center;comic=1;fillColor=none;strokeColor=none;verticalAlign=bottom;fontStyle=1" vertex="1" parent="1">
          <mxGeometry x="780" y="40" width="80" height="90" as="geometry" />
        </mxCell>
        <mxCell id="CaS9_FE52fElYKPDHRQ8-5" value="" style="html=1;verticalLabelPosition=bottom;align=center;labelBackgroundColor=default;verticalAlign=top;strokeWidth=2;strokeColor=#000000;shadow=0;dashed=0;shape=mxgraph.ios7.icons.edit;rounded=1;fontSize=18;fillColor=#B6E2D3;" vertex="1" parent="1">
          <mxGeometry x="800" y="60" width="40" height="40" as="geometry" />
        </mxCell>
        <mxCell id="CaS9_FE52fElYKPDHRQ8-6" value="" style="html=1;verticalLabelPosition=bottom;align=center;labelBackgroundColor=#ffffff;verticalAlign=top;strokeWidth=2;strokeColor=#000000;shadow=0;dashed=0;shape=mxgraph.ios7.icons.heart;rounded=1;fontSize=18;fillColor=#EF7C8E;" vertex="1" parent="1">
          <mxGeometry x="730" y="65" width="40" height="40" as="geometry" />
        </mxCell>
        <mxCell id="CaS9_FE52fElYKPDHRQ8-7" value="" style="html=1;verticalLabelPosition=bottom;align=center;labelBackgroundColor=#ffffff;verticalAlign=top;strokeWidth=2;strokeColor=#000000;shadow=0;dashed=0;shape=mxgraph.ios7.icons.calculator;rounded=0;sketch=0;fontSize=18;fillColor=#D8A7B1;" vertex="1" parent="1">
          <mxGeometry x="935" y="65" width="30" height="40" as="geometry" />
        </mxCell>
        <mxCell id="CaS9_FE52fElYKPDHRQ8-8" value="" style="html=1;verticalLabelPosition=bottom;align=center;labelBackgroundColor=#ffffff;verticalAlign=top;strokeWidth=2;strokeColor=#000000;shadow=0;dashed=0;shape=mxgraph.ios7.icons.user;rounded=0;sketch=0;fontSize=14;fillColor=none;" vertex="1" parent="1">
          <mxGeometry x="1000" y="60" width="40" height="40" as="geometry" />
        </mxCell>
        <mxCell id="CaS9_FE52fElYKPDHRQ8-9" value="" style="shape=image;html=1;verticalAlign=top;verticalLabelPosition=bottom;labelBackgroundColor=#ffffff;imageAspect=0;aspect=fixed;image=https://cdn4.iconfinder.com/data/icons/basic-user-interface-elements/700/edit-change-pencil-128.png;rounded=0;shadow=0;glass=0;sketch=0;fontSize=14;fontColor=#000000;strokeColor=#000000;fillColor=#FAE8E0;" vertex="1" parent="1">
          <mxGeometry x="870" y="65" width="40" height="40" as="geometry" />
        </mxCell>
        <mxCell id="CaS9_FE52fElYKPDHRQ8-10" value="推し" style="whiteSpace=wrap;html=1;rounded=0;shadow=0;labelBackgroundColor=none;strokeWidth=1;fontFamily=Verdana;fontSize=14;align=center;comic=1;fillColor=none;strokeColor=none;verticalAlign=bottom;fontStyle=1" vertex="1" parent="1">
          <mxGeometry x="710" y="40" width="80" height="90" as="geometry" />
        </mxCell>
      </root>
    </mxGraphModel>
  </diagram>
  <diagram id="2QcqY6AXD7hYFMSb13DG" name="メモリー">
    <mxGraphModel dx="1564" dy="1014" grid="1" gridSize="10" guides="1" tooltips="1" connect="1" arrows="1" fold="1" page="1" pageScale="1" pageWidth="1100" pageHeight="850" math="0" shadow="0">
      <root>
        <mxCell id="-rIyNbKl4Dou8ZkfTj_H-0" />
        <mxCell id="-rIyNbKl4Dou8ZkfTj_H-1" parent="-rIyNbKl4Dou8ZkfTj_H-0" />
        <mxCell id="AClEbfUBYzWPLddE4YGz-0" value="" style="whiteSpace=wrap;html=1;rounded=0;shadow=0;labelBackgroundColor=none;strokeWidth=1;fontFamily=Verdana;fontSize=12;align=center;comic=1;strokeColor=#FAE8E0;fillColor=#FAE8E0;fontColor=#ffffff;" parent="-rIyNbKl4Dou8ZkfTj_H-1" vertex="1">
          <mxGeometry x="20" y="10" width="1060" height="2300" as="geometry" />
        </mxCell>
        <mxCell id="3t6Vk11gN6ZwAq6YirDO-7" value="" style="whiteSpace=wrap;html=1;rounded=0;shadow=0;labelBackgroundColor=none;strokeWidth=1;fontFamily=Verdana;fontSize=12;align=center;comic=1;fillColor=#F9F7ED;strokeColor=#36393d;" vertex="1" parent="-rIyNbKl4Dou8ZkfTj_H-1">
          <mxGeometry x="730" y="530" width="310" height="310" as="geometry" />
        </mxCell>
        <mxCell id="AClEbfUBYzWPLddE4YGz-9" value="&lt;h2&gt;&lt;font face=&quot;Dela Gothic One&quot; data-font-src=&quot;https://fonts.googleapis.com/css?family=Dela+Gothic+One&quot;&gt;推しとお金と。&lt;/font&gt;&lt;/h2&gt;" style="whiteSpace=wrap;html=1;rounded=0;shadow=0;labelBackgroundColor=none;strokeWidth=1;fontFamily=Verdana;fontSize=28;align=center;comic=1;fillColor=none;strokeColor=none;" parent="-rIyNbKl4Dou8ZkfTj_H-1" vertex="1">
          <mxGeometry x="40" y="40" width="300" height="80" as="geometry" />
        </mxCell>
        <mxCell id="AClEbfUBYzWPLddE4YGz-10" value="" style="line;strokeWidth=1;html=1;rounded=0;shadow=0;labelBackgroundColor=none;fillColor=none;fontFamily=Verdana;fontSize=14;fontColor=#000000;align=center;comic=1;" parent="-rIyNbKl4Dou8ZkfTj_H-1" vertex="1">
          <mxGeometry x="20" y="140" width="1060" height="10" as="geometry" />
        </mxCell>
        <mxCell id="aaluWo__qkmPJyJriWds-0" value="" style="whiteSpace=wrap;html=1;rounded=0;shadow=0;labelBackgroundColor=none;strokeWidth=1;fontFamily=Verdana;fontSize=12;align=center;comic=1;fillColor=#F9F7ED;strokeColor=#36393d;" vertex="1" parent="-rIyNbKl4Dou8ZkfTj_H-1">
          <mxGeometry x="730" y="200" width="310" height="310" as="geometry" />
        </mxCell>
        <mxCell id="aaluWo__qkmPJyJriWds-1" value="カレンダー" style="text;html=1;points=[];align=center;verticalAlign=middle;spacingTop=-4;fontSize=14;fontFamily=Verdana" vertex="1" parent="-rIyNbKl4Dou8ZkfTj_H-1">
          <mxGeometry x="800" y="345" width="170" height="20" as="geometry" />
        </mxCell>
        <mxCell id="N6bOfU00B65bswanYSPk-3" value="演劇" style="whiteSpace=wrap;html=1;rounded=1;shadow=0;labelBackgroundColor=none;strokeWidth=1;fontFamily=Verdana;fontSize=12;align=center;comic=1;fillColor=#B6E2D3;strokeColor=#36393d;" vertex="1" parent="-rIyNbKl4Dou8ZkfTj_H-1">
          <mxGeometry x="750" y="600" width="70" height="30" as="geometry" />
        </mxCell>
        <mxCell id="N6bOfU00B65bswanYSPk-4" value="〇〇シアター" style="whiteSpace=wrap;html=1;rounded=1;shadow=0;labelBackgroundColor=none;strokeWidth=1;fontFamily=Verdana;fontSize=12;align=center;comic=1;fillColor=#B6E2D3;strokeColor=#36393d;" vertex="1" parent="-rIyNbKl4Dou8ZkfTj_H-1">
          <mxGeometry x="840" y="600" width="80" height="30" as="geometry" />
        </mxCell>
        <mxCell id="N6bOfU00B65bswanYSPk-5" value="〇〇くん" style="whiteSpace=wrap;html=1;rounded=1;shadow=0;labelBackgroundColor=none;strokeWidth=1;fontFamily=Verdana;fontSize=12;align=center;comic=1;fillColor=#B6E2D3;strokeColor=#36393d;" vertex="1" parent="-rIyNbKl4Dou8ZkfTj_H-1">
          <mxGeometry x="940" y="600" width="70" height="30" as="geometry" />
        </mxCell>
        <mxCell id="N6bOfU00B65bswanYSPk-6" value="" style="whiteSpace=wrap;html=1;rounded=0;shadow=0;labelBackgroundColor=none;strokeWidth=1;fontFamily=Verdana;fontSize=12;align=center;comic=1;fillColor=#F9F7ED;strokeColor=#36393d;" vertex="1" parent="-rIyNbKl4Dou8ZkfTj_H-1">
          <mxGeometry x="40" y="205" width="650" height="800" as="geometry" />
        </mxCell>
        <mxCell id="3t6Vk11gN6ZwAq6YirDO-0" value="" style="verticalLabelPosition=bottom;shadow=0;dashed=0;align=center;html=1;verticalAlign=top;strokeWidth=1;shape=mxgraph.mockup.graphics.simpleIcon;strokeColor=#999999;rounded=1;fontSize=18;fillColor=none;" vertex="1" parent="-rIyNbKl4Dou8ZkfTj_H-1">
          <mxGeometry x="135" y="290" width="460" height="300" as="geometry" />
        </mxCell>
        <mxCell id="3t6Vk11gN6ZwAq6YirDO-8" value="タグ" style="text;html=1;points=[];align=center;verticalAlign=middle;spacingTop=-4;fontSize=14;fontFamily=Verdana;fontStyle=1" vertex="1" parent="-rIyNbKl4Dou8ZkfTj_H-1">
          <mxGeometry x="800" y="550" width="170" height="20" as="geometry" />
        </mxCell>
        <mxCell id="3t6Vk11gN6ZwAq6YirDO-10" value="コンサート" style="whiteSpace=wrap;html=1;rounded=1;shadow=0;labelBackgroundColor=none;strokeWidth=1;fontFamily=Verdana;fontSize=12;align=center;comic=1;fillColor=#B6E2D3;strokeColor=#36393d;" vertex="1" parent="-rIyNbKl4Dou8ZkfTj_H-1">
          <mxGeometry x="750" y="650" width="80" height="30" as="geometry" />
        </mxCell>
        <mxCell id="3t6Vk11gN6ZwAq6YirDO-11" value="DVD" style="whiteSpace=wrap;html=1;rounded=1;shadow=0;labelBackgroundColor=none;strokeWidth=1;fontFamily=Verdana;fontSize=12;align=center;comic=1;fillColor=#B6E2D3;strokeColor=#36393d;" vertex="1" parent="-rIyNbKl4Dou8ZkfTj_H-1">
          <mxGeometry x="850" y="650" width="70" height="30" as="geometry" />
        </mxCell>
        <mxCell id="3t6Vk11gN6ZwAq6YirDO-12" value="△△くん" style="whiteSpace=wrap;html=1;rounded=1;shadow=0;labelBackgroundColor=none;strokeWidth=1;fontFamily=Verdana;fontSize=12;align=center;comic=1;fillColor=#B6E2D3;strokeColor=#36393d;" vertex="1" parent="-rIyNbKl4Dou8ZkfTj_H-1">
          <mxGeometry x="935" y="650" width="70" height="30" as="geometry" />
        </mxCell>
        <mxCell id="3t6Vk11gN6ZwAq6YirDO-15" value="演劇" style="whiteSpace=wrap;html=1;rounded=1;shadow=0;labelBackgroundColor=none;strokeWidth=1;fontFamily=Verdana;fontSize=12;align=center;comic=1;fillColor=#B6E2D3;strokeColor=#36393d;" vertex="1" parent="-rIyNbKl4Dou8ZkfTj_H-1">
          <mxGeometry x="60" y="225" width="70" height="30" as="geometry" />
        </mxCell>
        <mxCell id="3t6Vk11gN6ZwAq6YirDO-16" value="〇〇シアター" style="whiteSpace=wrap;html=1;rounded=1;shadow=0;labelBackgroundColor=none;strokeWidth=1;fontFamily=Verdana;fontSize=12;align=center;comic=1;fillColor=#B6E2D3;strokeColor=#36393d;" vertex="1" parent="-rIyNbKl4Dou8ZkfTj_H-1">
          <mxGeometry x="150" y="225" width="80" height="30" as="geometry" />
        </mxCell>
        <mxCell id="3t6Vk11gN6ZwAq6YirDO-17" value="△△くん" style="whiteSpace=wrap;html=1;rounded=1;shadow=0;labelBackgroundColor=none;strokeWidth=1;fontFamily=Verdana;fontSize=12;align=center;comic=1;fillColor=#B6E2D3;strokeColor=#36393d;" vertex="1" parent="-rIyNbKl4Dou8ZkfTj_H-1">
          <mxGeometry x="250" y="225" width="70" height="30" as="geometry" />
        </mxCell>
        <mxCell id="3t6Vk11gN6ZwAq6YirDO-18" value="2021/11/14&lt;br style=&quot;font-size: 20px&quot;&gt;公演名　　〇〇〇&lt;br style=&quot;font-size: 20px&quot;&gt;出演者　　〇〇&lt;br style=&quot;font-size: 20px&quot;&gt;会場　　　〇〇シアター&lt;br style=&quot;font-size: 20px&quot;&gt;チケット　〇〇円&lt;br style=&quot;font-size: 20px&quot;&gt;&lt;div style=&quot;font-size: 20px&quot;&gt;&lt;span style=&quot;font-size: 20px&quot;&gt;メモ　　　〇〇〇〇〇〇〇〇&lt;/span&gt;&lt;/div&gt;" style="text;html=1;strokeColor=none;fillColor=none;align=left;verticalAlign=top;whiteSpace=wrap;rounded=0;shadow=1;glass=0;sketch=0;fontSize=20;fontColor=#000000;" vertex="1" parent="-rIyNbKl4Dou8ZkfTj_H-1">
          <mxGeometry x="60" y="615" width="640" height="350" as="geometry" />
        </mxCell>
        <mxCell id="-u4NiddzU06RPNRyiIuN-2" value="" style="shape=image;html=1;verticalAlign=top;verticalLabelPosition=bottom;labelBackgroundColor=#ffffff;imageAspect=0;aspect=fixed;image=https://cdn4.iconfinder.com/data/icons/basic-user-interface-elements/700/edit-change-pencil-128.png;rounded=0;shadow=0;glass=0;sketch=0;fontSize=14;fontColor=#000000;strokeColor=#000000;fillColor=#FAE8E0;" vertex="1" parent="-rIyNbKl4Dou8ZkfTj_H-1">
          <mxGeometry x="547.5" y="225" width="30" height="30" as="geometry" />
        </mxCell>
        <mxCell id="-u4NiddzU06RPNRyiIuN-3" value="" style="shape=image;html=1;verticalAlign=top;verticalLabelPosition=bottom;labelBackgroundColor=#ffffff;imageAspect=0;aspect=fixed;image=https://cdn0.iconfinder.com/data/icons/simple-line-48px/48/trashcan-128.png;rounded=0;shadow=0;glass=0;sketch=0;fontSize=14;fontColor=#000000;strokeColor=#000000;fillColor=#FAE8E0;" vertex="1" parent="-rIyNbKl4Dou8ZkfTj_H-1">
          <mxGeometry x="587.5" y="220" width="40" height="40" as="geometry" />
        </mxCell>
        <mxCell id="-u4NiddzU06RPNRyiIuN-6" value="" style="html=1;verticalLabelPosition=bottom;align=center;labelBackgroundColor=#ffffff;verticalAlign=top;strokeWidth=2;strokeColor=#000000;shadow=0;dashed=0;shape=mxgraph.ios7.icons.share;rounded=0;glass=0;sketch=0;fontSize=14;fontColor=#000000;fillColor=none;" vertex="1" parent="-rIyNbKl4Dou8ZkfTj_H-1">
          <mxGeometry x="642.5" y="223.5" width="25" height="33" as="geometry" />
        </mxCell>
        <mxCell id="-u4NiddzU06RPNRyiIuN-8" value="□□ホール" style="whiteSpace=wrap;html=1;rounded=1;shadow=0;labelBackgroundColor=none;strokeWidth=1;fontFamily=Verdana;fontSize=12;align=center;comic=1;fillColor=#B6E2D3;strokeColor=#36393d;" vertex="1" parent="-rIyNbKl4Dou8ZkfTj_H-1">
          <mxGeometry x="750" y="705" width="80" height="30" as="geometry" />
        </mxCell>
        <mxCell id="-u4NiddzU06RPNRyiIuN-9" value="××ツアー" style="whiteSpace=wrap;html=1;rounded=1;shadow=0;labelBackgroundColor=none;strokeWidth=1;fontFamily=Verdana;fontSize=12;align=center;comic=1;fillColor=#B6E2D3;strokeColor=#36393d;" vertex="1" parent="-rIyNbKl4Dou8ZkfTj_H-1">
          <mxGeometry x="845" y="705" width="80" height="30" as="geometry" />
        </mxCell>
        <mxCell id="-u4NiddzU06RPNRyiIuN-10" value="" style="whiteSpace=wrap;html=1;rounded=0;shadow=0;labelBackgroundColor=none;strokeWidth=1;fontFamily=Verdana;fontSize=12;align=center;comic=1;fillColor=#F9F7ED;strokeColor=#36393d;" vertex="1" parent="-rIyNbKl4Dou8ZkfTj_H-1">
          <mxGeometry x="40" y="1050" width="650" height="955" as="geometry" />
        </mxCell>
        <mxCell id="-u4NiddzU06RPNRyiIuN-11" value="" style="verticalLabelPosition=bottom;shadow=0;dashed=0;align=center;html=1;verticalAlign=top;strokeWidth=1;shape=mxgraph.mockup.graphics.simpleIcon;strokeColor=#999999;rounded=1;fontSize=18;fillColor=none;" vertex="1" parent="-rIyNbKl4Dou8ZkfTj_H-1">
          <mxGeometry x="135" y="1140" width="460" height="300" as="geometry" />
        </mxCell>
        <mxCell id="-u4NiddzU06RPNRyiIuN-15" value="2021/10/ 8&lt;br style=&quot;font-size: 20px&quot;&gt;公演名　　　　××ツアー&lt;br style=&quot;font-size: 20px&quot;&gt;アーティスト　〇〇グループ&lt;br style=&quot;font-size: 20px&quot;&gt;会場　　　　　〇〇ホール&lt;br style=&quot;font-size: 20px&quot;&gt;チケット　　　〇〇円&lt;br&gt;セットリスト&lt;br&gt;&amp;nbsp; 1.aaa&amp;nbsp;&lt;br&gt;&amp;nbsp; 2.bbb&lt;br&gt;&amp;nbsp; 3.ccc&lt;br&gt;&amp;nbsp; 4.ddd&lt;br&gt;&amp;nbsp; 5.eee&lt;br&gt;&amp;nbsp; 6.fff&lt;br&gt;&amp;nbsp; 7.ggg&lt;br&gt;&amp;nbsp; 8.hhh&lt;br&gt;&amp;nbsp; 9.iii&lt;br&gt;10.jjj&lt;br&gt;&lt;br style=&quot;font-size: 20px&quot;&gt;&lt;div style=&quot;font-size: 20px&quot;&gt;&lt;span style=&quot;font-size: 20px&quot;&gt;メモ　　　　　〇〇〇〇〇〇〇〇&lt;/span&gt;&lt;/div&gt;" style="text;html=1;strokeColor=none;fillColor=none;align=left;verticalAlign=top;whiteSpace=wrap;rounded=0;shadow=1;glass=0;sketch=0;fontSize=20;fontColor=#000000;" vertex="1" parent="-rIyNbKl4Dou8ZkfTj_H-1">
          <mxGeometry x="60" y="1460" width="640" height="495" as="geometry" />
        </mxCell>
        <mxCell id="-u4NiddzU06RPNRyiIuN-19" value="コンサート" style="whiteSpace=wrap;html=1;rounded=1;shadow=0;labelBackgroundColor=none;strokeWidth=1;fontFamily=Verdana;fontSize=12;align=center;comic=1;fillColor=#B6E2D3;strokeColor=#36393d;" vertex="1" parent="-rIyNbKl4Dou8ZkfTj_H-1">
          <mxGeometry x="60" y="1070" width="80" height="30" as="geometry" />
        </mxCell>
        <mxCell id="-u4NiddzU06RPNRyiIuN-20" value="××ツアー" style="whiteSpace=wrap;html=1;rounded=1;shadow=0;labelBackgroundColor=none;strokeWidth=1;fontFamily=Verdana;fontSize=12;align=center;comic=1;fillColor=#B6E2D3;strokeColor=#36393d;" vertex="1" parent="-rIyNbKl4Dou8ZkfTj_H-1">
          <mxGeometry x="160" y="1070" width="80" height="30" as="geometry" />
        </mxCell>
        <mxCell id="-u4NiddzU06RPNRyiIuN-21" value="□□ホール" style="whiteSpace=wrap;html=1;rounded=1;shadow=0;labelBackgroundColor=none;strokeWidth=1;fontFamily=Verdana;fontSize=12;align=center;comic=1;fillColor=#B6E2D3;strokeColor=#36393d;" vertex="1" parent="-rIyNbKl4Dou8ZkfTj_H-1">
          <mxGeometry x="260" y="1070" width="80" height="30" as="geometry" />
        </mxCell>
        <mxCell id="-u4NiddzU06RPNRyiIuN-24" value="編集" style="whiteSpace=wrap;html=1;rounded=0;shadow=0;labelBackgroundColor=none;strokeWidth=1;fontFamily=Verdana;fontSize=14;align=center;comic=1;fillColor=none;strokeColor=none;verticalAlign=bottom;fontStyle=1" vertex="1" parent="-rIyNbKl4Dou8ZkfTj_H-1">
          <mxGeometry x="527.5" y="200" width="70" height="80" as="geometry" />
        </mxCell>
        <mxCell id="-u4NiddzU06RPNRyiIuN-25" value="削除" style="whiteSpace=wrap;html=1;rounded=0;shadow=0;labelBackgroundColor=none;strokeWidth=1;fontFamily=Verdana;fontSize=14;align=center;comic=1;fillColor=none;strokeColor=none;verticalAlign=bottom;fontStyle=1" vertex="1" parent="-rIyNbKl4Dou8ZkfTj_H-1">
          <mxGeometry x="572.5" y="200" width="70" height="80" as="geometry" />
        </mxCell>
        <mxCell id="-u4NiddzU06RPNRyiIuN-26" value="シェア" style="whiteSpace=wrap;html=1;rounded=0;shadow=0;labelBackgroundColor=none;strokeWidth=1;fontFamily=Verdana;fontSize=14;align=center;comic=1;fillColor=none;strokeColor=none;verticalAlign=bottom;fontStyle=1" vertex="1" parent="-rIyNbKl4Dou8ZkfTj_H-1">
          <mxGeometry x="620" y="200" width="70" height="80" as="geometry" />
        </mxCell>
        <mxCell id="-u4NiddzU06RPNRyiIuN-27" value="" style="shape=image;html=1;verticalAlign=top;verticalLabelPosition=bottom;labelBackgroundColor=#ffffff;imageAspect=0;aspect=fixed;image=https://cdn4.iconfinder.com/data/icons/basic-user-interface-elements/700/edit-change-pencil-128.png;rounded=0;shadow=0;glass=0;sketch=0;fontSize=14;fontColor=#000000;strokeColor=#000000;fillColor=#FAE8E0;" vertex="1" parent="-rIyNbKl4Dou8ZkfTj_H-1">
          <mxGeometry x="547.5" y="1075" width="30" height="30" as="geometry" />
        </mxCell>
        <mxCell id="-u4NiddzU06RPNRyiIuN-28" value="" style="shape=image;html=1;verticalAlign=top;verticalLabelPosition=bottom;labelBackgroundColor=#ffffff;imageAspect=0;aspect=fixed;image=https://cdn0.iconfinder.com/data/icons/simple-line-48px/48/trashcan-128.png;rounded=0;shadow=0;glass=0;sketch=0;fontSize=14;fontColor=#000000;strokeColor=#000000;fillColor=#FAE8E0;" vertex="1" parent="-rIyNbKl4Dou8ZkfTj_H-1">
          <mxGeometry x="587.5" y="1070" width="40" height="40" as="geometry" />
        </mxCell>
        <mxCell id="-u4NiddzU06RPNRyiIuN-29" value="" style="html=1;verticalLabelPosition=bottom;align=center;labelBackgroundColor=#ffffff;verticalAlign=top;strokeWidth=2;strokeColor=#000000;shadow=0;dashed=0;shape=mxgraph.ios7.icons.share;rounded=0;glass=0;sketch=0;fontSize=14;fontColor=#000000;fillColor=none;" vertex="1" parent="-rIyNbKl4Dou8ZkfTj_H-1">
          <mxGeometry x="642.5" y="1073.5" width="25" height="33" as="geometry" />
        </mxCell>
        <mxCell id="-u4NiddzU06RPNRyiIuN-30" value="編集" style="whiteSpace=wrap;html=1;rounded=0;shadow=0;labelBackgroundColor=none;strokeWidth=1;fontFamily=Verdana;fontSize=14;align=center;comic=1;fillColor=none;strokeColor=none;verticalAlign=bottom;fontStyle=1" vertex="1" parent="-rIyNbKl4Dou8ZkfTj_H-1">
          <mxGeometry x="527.5" y="1050" width="70" height="80" as="geometry" />
        </mxCell>
        <mxCell id="-u4NiddzU06RPNRyiIuN-31" value="削除" style="whiteSpace=wrap;html=1;rounded=0;shadow=0;labelBackgroundColor=none;strokeWidth=1;fontFamily=Verdana;fontSize=14;align=center;comic=1;fillColor=none;strokeColor=none;verticalAlign=bottom;fontStyle=1" vertex="1" parent="-rIyNbKl4Dou8ZkfTj_H-1">
          <mxGeometry x="572.5" y="1050" width="70" height="80" as="geometry" />
        </mxCell>
        <mxCell id="-u4NiddzU06RPNRyiIuN-32" value="シェア" style="whiteSpace=wrap;html=1;rounded=0;shadow=0;labelBackgroundColor=none;strokeWidth=1;fontFamily=Verdana;fontSize=14;align=center;comic=1;fillColor=none;strokeColor=none;verticalAlign=bottom;fontStyle=1" vertex="1" parent="-rIyNbKl4Dou8ZkfTj_H-1">
          <mxGeometry x="620" y="1050" width="70" height="80" as="geometry" />
        </mxCell>
        <mxCell id="-u4NiddzU06RPNRyiIuN-33" value="〇〇グループ" style="whiteSpace=wrap;html=1;rounded=1;shadow=0;labelBackgroundColor=none;strokeWidth=1;fontFamily=Verdana;fontSize=12;align=center;comic=1;fillColor=#B6E2D3;strokeColor=#36393d;" vertex="1" parent="-rIyNbKl4Dou8ZkfTj_H-1">
          <mxGeometry x="940" y="705" width="80" height="30" as="geometry" />
        </mxCell>
        <mxCell id="-u4NiddzU06RPNRyiIuN-34" value="〇〇グループ" style="whiteSpace=wrap;html=1;rounded=1;shadow=0;labelBackgroundColor=none;strokeWidth=1;fontFamily=Verdana;fontSize=12;align=center;comic=1;fillColor=#B6E2D3;strokeColor=#36393d;" vertex="1" parent="-rIyNbKl4Dou8ZkfTj_H-1">
          <mxGeometry x="360" y="1070" width="80" height="30" as="geometry" />
        </mxCell>
        <mxCell id="Rpt3-c8VLYu_AbgZ8opg-0" value="投稿" style="whiteSpace=wrap;html=1;rounded=0;shadow=0;labelBackgroundColor=none;strokeWidth=1;fontFamily=Verdana;fontSize=14;align=center;comic=1;fillColor=none;strokeColor=none;verticalAlign=bottom;fontStyle=1" vertex="1" parent="-rIyNbKl4Dou8ZkfTj_H-1">
          <mxGeometry x="850" y="40" width="80" height="90" as="geometry" />
        </mxCell>
        <mxCell id="Rpt3-c8VLYu_AbgZ8opg-1" value="わたし" style="whiteSpace=wrap;html=1;rounded=0;shadow=0;labelBackgroundColor=none;strokeWidth=1;fontFamily=Verdana;fontSize=14;align=center;comic=1;fillColor=none;strokeColor=none;verticalAlign=bottom;fontStyle=1" vertex="1" parent="-rIyNbKl4Dou8ZkfTj_H-1">
          <mxGeometry x="980" y="40" width="80" height="90" as="geometry" />
        </mxCell>
        <mxCell id="Rpt3-c8VLYu_AbgZ8opg-2" value="お金" style="whiteSpace=wrap;html=1;rounded=0;shadow=0;labelBackgroundColor=none;strokeWidth=1;fontFamily=Verdana;fontSize=14;align=center;comic=1;fillColor=none;strokeColor=none;verticalAlign=bottom;fontStyle=1" vertex="1" parent="-rIyNbKl4Dou8ZkfTj_H-1">
          <mxGeometry x="910" y="40" width="80" height="90" as="geometry" />
        </mxCell>
        <mxCell id="Rpt3-c8VLYu_AbgZ8opg-3" value="メモリー" style="whiteSpace=wrap;html=1;rounded=0;shadow=0;labelBackgroundColor=none;strokeWidth=1;fontFamily=Verdana;fontSize=14;align=center;comic=1;fillColor=none;strokeColor=none;verticalAlign=bottom;fontStyle=1" vertex="1" parent="-rIyNbKl4Dou8ZkfTj_H-1">
          <mxGeometry x="780" y="40" width="80" height="90" as="geometry" />
        </mxCell>
        <mxCell id="Rpt3-c8VLYu_AbgZ8opg-4" value="" style="html=1;verticalLabelPosition=bottom;align=center;labelBackgroundColor=default;verticalAlign=top;strokeWidth=2;strokeColor=#000000;shadow=0;dashed=0;shape=mxgraph.ios7.icons.edit;rounded=1;fontSize=18;fillColor=#B6E2D3;" vertex="1" parent="-rIyNbKl4Dou8ZkfTj_H-1">
          <mxGeometry x="800" y="60" width="40" height="40" as="geometry" />
        </mxCell>
        <mxCell id="Rpt3-c8VLYu_AbgZ8opg-5" value="" style="html=1;verticalLabelPosition=bottom;align=center;labelBackgroundColor=#ffffff;verticalAlign=top;strokeWidth=2;strokeColor=#000000;shadow=0;dashed=0;shape=mxgraph.ios7.icons.heart;rounded=1;fontSize=18;fillColor=#EF7C8E;" vertex="1" parent="-rIyNbKl4Dou8ZkfTj_H-1">
          <mxGeometry x="730" y="65" width="40" height="40" as="geometry" />
        </mxCell>
        <mxCell id="Rpt3-c8VLYu_AbgZ8opg-6" value="" style="html=1;verticalLabelPosition=bottom;align=center;labelBackgroundColor=#ffffff;verticalAlign=top;strokeWidth=2;strokeColor=#000000;shadow=0;dashed=0;shape=mxgraph.ios7.icons.calculator;rounded=0;sketch=0;fontSize=18;fillColor=#D8A7B1;" vertex="1" parent="-rIyNbKl4Dou8ZkfTj_H-1">
          <mxGeometry x="935" y="65" width="30" height="40" as="geometry" />
        </mxCell>
        <mxCell id="Rpt3-c8VLYu_AbgZ8opg-7" value="" style="html=1;verticalLabelPosition=bottom;align=center;labelBackgroundColor=#ffffff;verticalAlign=top;strokeWidth=2;strokeColor=#000000;shadow=0;dashed=0;shape=mxgraph.ios7.icons.user;rounded=0;sketch=0;fontSize=14;fillColor=none;" vertex="1" parent="-rIyNbKl4Dou8ZkfTj_H-1">
          <mxGeometry x="1000" y="60" width="40" height="40" as="geometry" />
        </mxCell>
        <mxCell id="Rpt3-c8VLYu_AbgZ8opg-8" value="" style="shape=image;html=1;verticalAlign=top;verticalLabelPosition=bottom;labelBackgroundColor=#ffffff;imageAspect=0;aspect=fixed;image=https://cdn4.iconfinder.com/data/icons/basic-user-interface-elements/700/edit-change-pencil-128.png;rounded=0;shadow=0;glass=0;sketch=0;fontSize=14;fontColor=#000000;strokeColor=#000000;fillColor=#FAE8E0;" vertex="1" parent="-rIyNbKl4Dou8ZkfTj_H-1">
          <mxGeometry x="870" y="65" width="40" height="40" as="geometry" />
        </mxCell>
        <mxCell id="Rpt3-c8VLYu_AbgZ8opg-9" value="推し" style="whiteSpace=wrap;html=1;rounded=0;shadow=0;labelBackgroundColor=none;strokeWidth=1;fontFamily=Verdana;fontSize=14;align=center;comic=1;fillColor=none;strokeColor=none;verticalAlign=bottom;fontStyle=1" vertex="1" parent="-rIyNbKl4Dou8ZkfTj_H-1">
          <mxGeometry x="710" y="40" width="80" height="90" as="geometry" />
        </mxCell>
      </root>
    </mxGraphModel>
  </diagram>
  <diagram id="BzKUsbVZ58ltG-QBaRVl" name="投稿(演劇)">
    <mxGraphModel dx="1564" dy="1014" grid="1" gridSize="10" guides="1" tooltips="1" connect="1" arrows="1" fold="1" page="1" pageScale="1" pageWidth="1100" pageHeight="850" math="0" shadow="0">
      <root>
        <mxCell id="N7euNAaVoTw3xUOSJjtm-0" />
        <mxCell id="N7euNAaVoTw3xUOSJjtm-1" parent="N7euNAaVoTw3xUOSJjtm-0" />
        <mxCell id="0CZYBA9M0XEh0pQT1MkV-0" value="" style="whiteSpace=wrap;html=1;rounded=0;shadow=0;labelBackgroundColor=none;strokeWidth=1;fontFamily=Verdana;fontSize=12;align=center;comic=1;strokeColor=#FAE8E0;fillColor=#FAE8E0;fontColor=#ffffff;" vertex="1" parent="N7euNAaVoTw3xUOSJjtm-1">
          <mxGeometry x="20" y="20" width="1060" height="1470" as="geometry" />
        </mxCell>
        <mxCell id="0CZYBA9M0XEh0pQT1MkV-6" value="&lt;h2&gt;&lt;font face=&quot;Dela Gothic One&quot; data-font-src=&quot;https://fonts.googleapis.com/css?family=Dela+Gothic+One&quot;&gt;推しとお金と。&lt;/font&gt;&lt;/h2&gt;" style="whiteSpace=wrap;html=1;rounded=0;shadow=0;labelBackgroundColor=none;strokeWidth=1;fontFamily=Verdana;fontSize=28;align=center;comic=1;fillColor=none;strokeColor=none;" vertex="1" parent="N7euNAaVoTw3xUOSJjtm-1">
          <mxGeometry x="40" y="40" width="300" height="80" as="geometry" />
        </mxCell>
        <mxCell id="0CZYBA9M0XEh0pQT1MkV-7" value="" style="line;strokeWidth=1;html=1;rounded=0;shadow=0;labelBackgroundColor=none;fillColor=none;fontFamily=Verdana;fontSize=14;fontColor=#000000;align=center;comic=1;" vertex="1" parent="N7euNAaVoTw3xUOSJjtm-1">
          <mxGeometry x="20" y="140" width="1060" height="10" as="geometry" />
        </mxCell>
        <mxCell id="0CZYBA9M0XEh0pQT1MkV-17" value="" style="whiteSpace=wrap;html=1;rounded=1;shadow=0;labelBackgroundColor=none;strokeWidth=1;fontFamily=Verdana;fontSize=12;align=center;comic=1;fillColor=#F9F7ED;strokeColor=#36393d;arcSize=3;" vertex="1" parent="N7euNAaVoTw3xUOSJjtm-1">
          <mxGeometry x="90" y="230" width="920" height="1140" as="geometry" />
        </mxCell>
        <mxCell id="KGpTsT_POLc8I_jeuJaE-0" value="演劇" style="rounded=1;whiteSpace=wrap;html=1;shadow=0;glass=0;sketch=0;fontSize=18;fontColor=#000000;strokeColor=#000000;fillColor=#B6E2D3;align=center;verticalAlign=middle;" vertex="1" parent="N7euNAaVoTw3xUOSJjtm-1">
          <mxGeometry x="100" y="190" width="120" height="40" as="geometry" />
        </mxCell>
        <mxCell id="KGpTsT_POLc8I_jeuJaE-1" value="" style="rounded=1;whiteSpace=wrap;html=1;shadow=0;glass=0;sketch=0;fontSize=18;fontColor=#000000;strokeColor=#000000;fillColor=#F9F7ED;align=center;verticalAlign=middle;" vertex="1" parent="N7euNAaVoTw3xUOSJjtm-1">
          <mxGeometry x="150" y="280" width="800" height="40" as="geometry" />
        </mxCell>
        <mxCell id="KGpTsT_POLc8I_jeuJaE-2" value="公演名" style="text;strokeColor=none;fillColor=none;html=1;fontSize=18;fontStyle=0;verticalAlign=bottom;align=left;rounded=0;shadow=0;glass=0;sketch=0;fontColor=#000000;" vertex="1" parent="N7euNAaVoTw3xUOSJjtm-1">
          <mxGeometry x="150" y="240" width="100" height="40" as="geometry" />
        </mxCell>
        <mxCell id="KGpTsT_POLc8I_jeuJaE-3" value="" style="rounded=1;whiteSpace=wrap;html=1;shadow=0;glass=0;sketch=0;fontSize=18;fontColor=#000000;strokeColor=#000000;fillColor=#F9F7ED;align=center;verticalAlign=middle;" vertex="1" parent="N7euNAaVoTw3xUOSJjtm-1">
          <mxGeometry x="150" y="380" width="800" height="40" as="geometry" />
        </mxCell>
        <mxCell id="KGpTsT_POLc8I_jeuJaE-4" value="出演者" style="text;strokeColor=none;fillColor=none;html=1;fontSize=18;fontStyle=0;verticalAlign=bottom;align=left;rounded=0;shadow=0;glass=0;sketch=0;fontColor=#000000;" vertex="1" parent="N7euNAaVoTw3xUOSJjtm-1">
          <mxGeometry x="150" y="340" width="100" height="40" as="geometry" />
        </mxCell>
        <mxCell id="KGpTsT_POLc8I_jeuJaE-5" value="" style="rounded=1;whiteSpace=wrap;html=1;shadow=0;glass=0;sketch=0;fontSize=18;fontColor=#000000;strokeColor=#000000;fillColor=#F9F7ED;align=center;verticalAlign=middle;" vertex="1" parent="N7euNAaVoTw3xUOSJjtm-1">
          <mxGeometry x="150" y="480" width="800" height="40" as="geometry" />
        </mxCell>
        <mxCell id="KGpTsT_POLc8I_jeuJaE-6" value="会場" style="text;strokeColor=none;fillColor=none;html=1;fontSize=18;fontStyle=0;verticalAlign=bottom;align=left;rounded=0;shadow=0;glass=0;sketch=0;fontColor=#000000;" vertex="1" parent="N7euNAaVoTw3xUOSJjtm-1">
          <mxGeometry x="150" y="440" width="100" height="40" as="geometry" />
        </mxCell>
        <mxCell id="KGpTsT_POLc8I_jeuJaE-7" value="" style="rounded=1;whiteSpace=wrap;html=1;shadow=0;glass=0;sketch=0;fontSize=18;fontColor=#000000;strokeColor=#000000;fillColor=#F9F7ED;align=center;verticalAlign=middle;" vertex="1" parent="N7euNAaVoTw3xUOSJjtm-1">
          <mxGeometry x="150" y="580" width="800" height="40" as="geometry" />
        </mxCell>
        <mxCell id="KGpTsT_POLc8I_jeuJaE-8" value="チケット" style="text;strokeColor=none;fillColor=none;html=1;fontSize=18;fontStyle=0;verticalAlign=bottom;align=left;rounded=0;shadow=0;glass=0;sketch=0;fontColor=#000000;" vertex="1" parent="N7euNAaVoTw3xUOSJjtm-1">
          <mxGeometry x="150" y="540" width="100" height="40" as="geometry" />
        </mxCell>
        <mxCell id="xo1NsEw_VpscCBwZ5iu_-0" value="" style="rounded=1;whiteSpace=wrap;html=1;shadow=0;glass=0;sketch=0;fontSize=18;fontColor=#000000;strokeColor=#000000;fillColor=#F9F7ED;align=center;verticalAlign=middle;arcSize=7;" vertex="1" parent="N7euNAaVoTw3xUOSJjtm-1">
          <mxGeometry x="150" y="780" width="800" height="340" as="geometry" />
        </mxCell>
        <mxCell id="xo1NsEw_VpscCBwZ5iu_-1" value="メモ" style="text;strokeColor=none;fillColor=none;html=1;fontSize=18;fontStyle=0;verticalAlign=bottom;align=left;rounded=0;shadow=0;glass=0;sketch=0;fontColor=#000000;" vertex="1" parent="N7euNAaVoTw3xUOSJjtm-1">
          <mxGeometry x="150" y="740" width="100" height="40" as="geometry" />
        </mxCell>
        <mxCell id="xo1NsEw_VpscCBwZ5iu_-2" value="ファイルの選択" style="rounded=0;whiteSpace=wrap;html=1;shadow=0;glass=0;sketch=0;fontSize=14;fontColor=#000000;strokeColor=#000000;fillColor=#F9F7ED;align=center;verticalAlign=middle;" vertex="1" parent="N7euNAaVoTw3xUOSJjtm-1">
          <mxGeometry x="150" y="1180" width="120" height="40" as="geometry" />
        </mxCell>
        <mxCell id="xo1NsEw_VpscCBwZ5iu_-3" value="画像" style="text;strokeColor=none;fillColor=none;html=1;fontSize=18;fontStyle=0;verticalAlign=bottom;align=left;rounded=0;shadow=0;glass=0;sketch=0;fontColor=#000000;" vertex="1" parent="N7euNAaVoTw3xUOSJjtm-1">
          <mxGeometry x="150" y="1140" width="100" height="40" as="geometry" />
        </mxCell>
        <mxCell id="B1xgB3oCZ0CuLyC1CChs-0" value="投稿" style="whiteSpace=wrap;html=1;rounded=0;shadow=0;labelBackgroundColor=none;strokeWidth=1;fontFamily=Verdana;fontSize=14;align=center;comic=1;fillColor=none;strokeColor=none;verticalAlign=bottom;fontStyle=1" vertex="1" parent="N7euNAaVoTw3xUOSJjtm-1">
          <mxGeometry x="850" y="40" width="80" height="90" as="geometry" />
        </mxCell>
        <mxCell id="B1xgB3oCZ0CuLyC1CChs-1" value="わたし" style="whiteSpace=wrap;html=1;rounded=0;shadow=0;labelBackgroundColor=none;strokeWidth=1;fontFamily=Verdana;fontSize=14;align=center;comic=1;fillColor=none;strokeColor=none;verticalAlign=bottom;fontStyle=1" vertex="1" parent="N7euNAaVoTw3xUOSJjtm-1">
          <mxGeometry x="980" y="40" width="80" height="90" as="geometry" />
        </mxCell>
        <mxCell id="B1xgB3oCZ0CuLyC1CChs-2" value="お金" style="whiteSpace=wrap;html=1;rounded=0;shadow=0;labelBackgroundColor=none;strokeWidth=1;fontFamily=Verdana;fontSize=14;align=center;comic=1;fillColor=none;strokeColor=none;verticalAlign=bottom;fontStyle=1" vertex="1" parent="N7euNAaVoTw3xUOSJjtm-1">
          <mxGeometry x="910" y="40" width="80" height="90" as="geometry" />
        </mxCell>
        <mxCell id="B1xgB3oCZ0CuLyC1CChs-3" value="メモリー" style="whiteSpace=wrap;html=1;rounded=0;shadow=0;labelBackgroundColor=none;strokeWidth=1;fontFamily=Verdana;fontSize=14;align=center;comic=1;fillColor=none;strokeColor=none;verticalAlign=bottom;fontStyle=1" vertex="1" parent="N7euNAaVoTw3xUOSJjtm-1">
          <mxGeometry x="780" y="40" width="80" height="90" as="geometry" />
        </mxCell>
        <mxCell id="B1xgB3oCZ0CuLyC1CChs-4" value="" style="html=1;verticalLabelPosition=bottom;align=center;labelBackgroundColor=default;verticalAlign=top;strokeWidth=2;strokeColor=#000000;shadow=0;dashed=0;shape=mxgraph.ios7.icons.edit;rounded=1;fontSize=18;fillColor=#B6E2D3;" vertex="1" parent="N7euNAaVoTw3xUOSJjtm-1">
          <mxGeometry x="800" y="60" width="40" height="40" as="geometry" />
        </mxCell>
        <mxCell id="B1xgB3oCZ0CuLyC1CChs-5" value="" style="html=1;verticalLabelPosition=bottom;align=center;labelBackgroundColor=#ffffff;verticalAlign=top;strokeWidth=2;strokeColor=#000000;shadow=0;dashed=0;shape=mxgraph.ios7.icons.heart;rounded=1;fontSize=18;fillColor=#EF7C8E;" vertex="1" parent="N7euNAaVoTw3xUOSJjtm-1">
          <mxGeometry x="730" y="65" width="40" height="40" as="geometry" />
        </mxCell>
        <mxCell id="B1xgB3oCZ0CuLyC1CChs-6" value="" style="html=1;verticalLabelPosition=bottom;align=center;labelBackgroundColor=#ffffff;verticalAlign=top;strokeWidth=2;strokeColor=#000000;shadow=0;dashed=0;shape=mxgraph.ios7.icons.calculator;rounded=0;sketch=0;fontSize=18;fillColor=#D8A7B1;" vertex="1" parent="N7euNAaVoTw3xUOSJjtm-1">
          <mxGeometry x="935" y="65" width="30" height="40" as="geometry" />
        </mxCell>
        <mxCell id="B1xgB3oCZ0CuLyC1CChs-7" value="" style="html=1;verticalLabelPosition=bottom;align=center;labelBackgroundColor=#ffffff;verticalAlign=top;strokeWidth=2;strokeColor=#000000;shadow=0;dashed=0;shape=mxgraph.ios7.icons.user;rounded=0;sketch=0;fontSize=14;fillColor=none;" vertex="1" parent="N7euNAaVoTw3xUOSJjtm-1">
          <mxGeometry x="1000" y="60" width="40" height="40" as="geometry" />
        </mxCell>
        <mxCell id="B1xgB3oCZ0CuLyC1CChs-8" value="" style="shape=image;html=1;verticalAlign=top;verticalLabelPosition=bottom;labelBackgroundColor=#ffffff;imageAspect=0;aspect=fixed;image=https://cdn4.iconfinder.com/data/icons/basic-user-interface-elements/700/edit-change-pencil-128.png;rounded=0;shadow=0;glass=0;sketch=0;fontSize=14;fontColor=#000000;strokeColor=#000000;fillColor=#FAE8E0;" vertex="1" parent="N7euNAaVoTw3xUOSJjtm-1">
          <mxGeometry x="870" y="65" width="40" height="40" as="geometry" />
        </mxCell>
        <mxCell id="B1xgB3oCZ0CuLyC1CChs-9" value="推し" style="whiteSpace=wrap;html=1;rounded=0;shadow=0;labelBackgroundColor=none;strokeWidth=1;fontFamily=Verdana;fontSize=14;align=center;comic=1;fillColor=none;strokeColor=none;verticalAlign=bottom;fontStyle=1" vertex="1" parent="N7euNAaVoTw3xUOSJjtm-1">
          <mxGeometry x="710" y="40" width="80" height="90" as="geometry" />
        </mxCell>
        <mxCell id="IVe71pNZoM63tmgEVIkw-0" value="コンサート" style="rounded=1;whiteSpace=wrap;html=1;shadow=0;glass=0;sketch=0;fontSize=18;fontColor=#000000;strokeColor=#000000;fillColor=#F9F7ED;align=center;verticalAlign=middle;" vertex="1" parent="N7euNAaVoTw3xUOSJjtm-1">
          <mxGeometry x="230" y="190" width="120" height="40" as="geometry" />
        </mxCell>
        <mxCell id="IVe71pNZoM63tmgEVIkw-1" value="" style="rounded=1;whiteSpace=wrap;html=1;shadow=0;glass=0;sketch=0;fontSize=18;fontColor=#000000;strokeColor=#000000;fillColor=#F9F7ED;align=center;verticalAlign=middle;" vertex="1" parent="N7euNAaVoTw3xUOSJjtm-1">
          <mxGeometry x="150" y="680" width="800" height="40" as="geometry" />
        </mxCell>
        <mxCell id="IVe71pNZoM63tmgEVIkw-2" value="タグ" style="text;strokeColor=none;fillColor=none;html=1;fontSize=18;fontStyle=0;verticalAlign=bottom;align=left;rounded=0;shadow=0;glass=0;sketch=0;fontColor=#000000;" vertex="1" parent="N7euNAaVoTw3xUOSJjtm-1">
          <mxGeometry x="150" y="640" width="100" height="40" as="geometry" />
        </mxCell>
        <mxCell id="sL0jPMNGy58vt8GAN-WA-1" value="投稿" style="rounded=1;whiteSpace=wrap;html=1;shadow=0;glass=0;sketch=0;fontSize=18;fontColor=#000000;strokeColor=#000000;fillColor=#B6E2D3;align=center;verticalAlign=middle;" vertex="1" parent="N7euNAaVoTw3xUOSJjtm-1">
          <mxGeometry x="490" y="1240" width="120" height="60" as="geometry" />
        </mxCell>
      </root>
    </mxGraphModel>
  </diagram>
  <diagram id="TOQYCGri7Vogl3kjeY46" name="投稿(コンサート)">
    <mxGraphModel dx="1564" dy="1014" grid="1" gridSize="10" guides="1" tooltips="1" connect="1" arrows="1" fold="1" page="1" pageScale="1" pageWidth="1100" pageHeight="850" math="0" shadow="0">
      <root>
        <mxCell id="WLGWMJrVdXJc-HTCod39-0" />
        <mxCell id="WLGWMJrVdXJc-HTCod39-1" parent="WLGWMJrVdXJc-HTCod39-0" />
        <mxCell id="zgiip1qtCGyLojRdKsyI-0" value="" style="whiteSpace=wrap;html=1;rounded=0;shadow=0;labelBackgroundColor=none;strokeWidth=1;fontFamily=Verdana;fontSize=12;align=center;comic=1;strokeColor=#FAE8E0;fillColor=#FAE8E0;fontColor=#ffffff;" vertex="1" parent="WLGWMJrVdXJc-HTCod39-1">
          <mxGeometry x="20" y="20" width="1060" height="2430" as="geometry" />
        </mxCell>
        <mxCell id="zgiip1qtCGyLojRdKsyI-1" value="&lt;h2&gt;&lt;font face=&quot;Dela Gothic One&quot; data-font-src=&quot;https://fonts.googleapis.com/css?family=Dela+Gothic+One&quot;&gt;推しとお金と。&lt;/font&gt;&lt;/h2&gt;" style="whiteSpace=wrap;html=1;rounded=0;shadow=0;labelBackgroundColor=none;strokeWidth=1;fontFamily=Verdana;fontSize=28;align=center;comic=1;fillColor=none;strokeColor=none;" vertex="1" parent="WLGWMJrVdXJc-HTCod39-1">
          <mxGeometry x="40" y="40" width="300" height="80" as="geometry" />
        </mxCell>
        <mxCell id="zgiip1qtCGyLojRdKsyI-2" value="" style="line;strokeWidth=1;html=1;rounded=0;shadow=0;labelBackgroundColor=none;fillColor=none;fontFamily=Verdana;fontSize=14;fontColor=#000000;align=center;comic=1;" vertex="1" parent="WLGWMJrVdXJc-HTCod39-1">
          <mxGeometry x="20" y="140" width="1060" height="10" as="geometry" />
        </mxCell>
        <mxCell id="zgiip1qtCGyLojRdKsyI-3" value="" style="whiteSpace=wrap;html=1;rounded=1;shadow=0;labelBackgroundColor=none;strokeWidth=1;fontFamily=Verdana;fontSize=12;align=center;comic=1;fillColor=#F9F7ED;strokeColor=#36393d;arcSize=3;" vertex="1" parent="WLGWMJrVdXJc-HTCod39-1">
          <mxGeometry x="90" y="230" width="920" height="1830" as="geometry" />
        </mxCell>
        <mxCell id="zgiip1qtCGyLojRdKsyI-4" value="演劇" style="rounded=1;whiteSpace=wrap;html=1;shadow=0;glass=0;sketch=0;fontSize=18;fontColor=#000000;strokeColor=#000000;fillColor=#F9F7ED;align=center;verticalAlign=middle;" vertex="1" parent="WLGWMJrVdXJc-HTCod39-1">
          <mxGeometry x="100" y="190" width="120" height="40" as="geometry" />
        </mxCell>
        <mxCell id="zgiip1qtCGyLojRdKsyI-5" value="" style="rounded=1;whiteSpace=wrap;html=1;shadow=0;glass=0;sketch=0;fontSize=18;fontColor=#000000;strokeColor=#000000;fillColor=#F9F7ED;align=center;verticalAlign=middle;" vertex="1" parent="WLGWMJrVdXJc-HTCod39-1">
          <mxGeometry x="150" y="280" width="800" height="40" as="geometry" />
        </mxCell>
        <mxCell id="zgiip1qtCGyLojRdKsyI-6" value="公演名" style="text;strokeColor=none;fillColor=none;html=1;fontSize=18;fontStyle=0;verticalAlign=bottom;align=left;rounded=0;shadow=0;glass=0;sketch=0;fontColor=#000000;" vertex="1" parent="WLGWMJrVdXJc-HTCod39-1">
          <mxGeometry x="150" y="240" width="100" height="40" as="geometry" />
        </mxCell>
        <mxCell id="zgiip1qtCGyLojRdKsyI-7" value="" style="rounded=1;whiteSpace=wrap;html=1;shadow=0;glass=0;sketch=0;fontSize=18;fontColor=#000000;strokeColor=#000000;fillColor=#F9F7ED;align=center;verticalAlign=middle;" vertex="1" parent="WLGWMJrVdXJc-HTCod39-1">
          <mxGeometry x="150" y="380" width="800" height="40" as="geometry" />
        </mxCell>
        <mxCell id="zgiip1qtCGyLojRdKsyI-8" value="アーティスト" style="text;strokeColor=none;fillColor=none;html=1;fontSize=18;fontStyle=0;verticalAlign=bottom;align=left;rounded=0;shadow=0;glass=0;sketch=0;fontColor=#000000;" vertex="1" parent="WLGWMJrVdXJc-HTCod39-1">
          <mxGeometry x="150" y="340" width="100" height="40" as="geometry" />
        </mxCell>
        <mxCell id="zgiip1qtCGyLojRdKsyI-9" value="" style="rounded=1;whiteSpace=wrap;html=1;shadow=0;glass=0;sketch=0;fontSize=18;fontColor=#000000;strokeColor=#000000;fillColor=#F9F7ED;align=center;verticalAlign=middle;" vertex="1" parent="WLGWMJrVdXJc-HTCod39-1">
          <mxGeometry x="150" y="480" width="800" height="40" as="geometry" />
        </mxCell>
        <mxCell id="zgiip1qtCGyLojRdKsyI-10" value="会場" style="text;strokeColor=none;fillColor=none;html=1;fontSize=18;fontStyle=0;verticalAlign=bottom;align=left;rounded=0;shadow=0;glass=0;sketch=0;fontColor=#000000;" vertex="1" parent="WLGWMJrVdXJc-HTCod39-1">
          <mxGeometry x="150" y="440" width="100" height="40" as="geometry" />
        </mxCell>
        <mxCell id="zgiip1qtCGyLojRdKsyI-11" value="" style="rounded=1;whiteSpace=wrap;html=1;shadow=0;glass=0;sketch=0;fontSize=18;fontColor=#000000;strokeColor=#000000;fillColor=#F9F7ED;align=center;verticalAlign=middle;" vertex="1" parent="WLGWMJrVdXJc-HTCod39-1">
          <mxGeometry x="150" y="580" width="800" height="40" as="geometry" />
        </mxCell>
        <mxCell id="zgiip1qtCGyLojRdKsyI-12" value="チケット" style="text;strokeColor=none;fillColor=none;html=1;fontSize=18;fontStyle=0;verticalAlign=bottom;align=left;rounded=0;shadow=0;glass=0;sketch=0;fontColor=#000000;" vertex="1" parent="WLGWMJrVdXJc-HTCod39-1">
          <mxGeometry x="150" y="540" width="100" height="40" as="geometry" />
        </mxCell>
        <mxCell id="zgiip1qtCGyLojRdKsyI-13" value="" style="rounded=1;whiteSpace=wrap;html=1;shadow=0;glass=0;sketch=0;fontSize=18;fontColor=#000000;strokeColor=#000000;fillColor=#F9F7ED;align=center;verticalAlign=middle;arcSize=10;" vertex="1" parent="WLGWMJrVdXJc-HTCod39-1">
          <mxGeometry x="150" y="1420" width="800" height="340" as="geometry" />
        </mxCell>
        <mxCell id="zgiip1qtCGyLojRdKsyI-14" value="メモ" style="text;strokeColor=none;fillColor=none;html=1;fontSize=18;fontStyle=0;verticalAlign=bottom;align=left;rounded=0;shadow=0;glass=0;sketch=0;fontColor=#000000;" vertex="1" parent="WLGWMJrVdXJc-HTCod39-1">
          <mxGeometry x="150" y="1380" width="100" height="40" as="geometry" />
        </mxCell>
        <mxCell id="zgiip1qtCGyLojRdKsyI-15" value="ファイルの選択" style="rounded=0;whiteSpace=wrap;html=1;shadow=0;glass=0;sketch=0;fontSize=14;fontColor=#000000;strokeColor=#000000;fillColor=#F9F7ED;align=center;verticalAlign=middle;" vertex="1" parent="WLGWMJrVdXJc-HTCod39-1">
          <mxGeometry x="150" y="1820" width="120" height="40" as="geometry" />
        </mxCell>
        <mxCell id="zgiip1qtCGyLojRdKsyI-16" value="画像" style="text;strokeColor=none;fillColor=none;html=1;fontSize=18;fontStyle=0;verticalAlign=bottom;align=left;rounded=0;shadow=0;glass=0;sketch=0;fontColor=#000000;" vertex="1" parent="WLGWMJrVdXJc-HTCod39-1">
          <mxGeometry x="150" y="1780" width="100" height="40" as="geometry" />
        </mxCell>
        <mxCell id="zgiip1qtCGyLojRdKsyI-17" value="投稿" style="whiteSpace=wrap;html=1;rounded=0;shadow=0;labelBackgroundColor=none;strokeWidth=1;fontFamily=Verdana;fontSize=14;align=center;comic=1;fillColor=none;strokeColor=none;verticalAlign=bottom;fontStyle=1" vertex="1" parent="WLGWMJrVdXJc-HTCod39-1">
          <mxGeometry x="850" y="40" width="80" height="90" as="geometry" />
        </mxCell>
        <mxCell id="zgiip1qtCGyLojRdKsyI-18" value="わたし" style="whiteSpace=wrap;html=1;rounded=0;shadow=0;labelBackgroundColor=none;strokeWidth=1;fontFamily=Verdana;fontSize=14;align=center;comic=1;fillColor=none;strokeColor=none;verticalAlign=bottom;fontStyle=1" vertex="1" parent="WLGWMJrVdXJc-HTCod39-1">
          <mxGeometry x="980" y="40" width="80" height="90" as="geometry" />
        </mxCell>
        <mxCell id="zgiip1qtCGyLojRdKsyI-19" value="お金" style="whiteSpace=wrap;html=1;rounded=0;shadow=0;labelBackgroundColor=none;strokeWidth=1;fontFamily=Verdana;fontSize=14;align=center;comic=1;fillColor=none;strokeColor=none;verticalAlign=bottom;fontStyle=1" vertex="1" parent="WLGWMJrVdXJc-HTCod39-1">
          <mxGeometry x="910" y="40" width="80" height="90" as="geometry" />
        </mxCell>
        <mxCell id="zgiip1qtCGyLojRdKsyI-20" value="メモリー" style="whiteSpace=wrap;html=1;rounded=0;shadow=0;labelBackgroundColor=none;strokeWidth=1;fontFamily=Verdana;fontSize=14;align=center;comic=1;fillColor=none;strokeColor=none;verticalAlign=bottom;fontStyle=1" vertex="1" parent="WLGWMJrVdXJc-HTCod39-1">
          <mxGeometry x="780" y="40" width="80" height="90" as="geometry" />
        </mxCell>
        <mxCell id="zgiip1qtCGyLojRdKsyI-21" value="" style="html=1;verticalLabelPosition=bottom;align=center;labelBackgroundColor=default;verticalAlign=top;strokeWidth=2;strokeColor=#000000;shadow=0;dashed=0;shape=mxgraph.ios7.icons.edit;rounded=1;fontSize=18;fillColor=#B6E2D3;" vertex="1" parent="WLGWMJrVdXJc-HTCod39-1">
          <mxGeometry x="800" y="60" width="40" height="40" as="geometry" />
        </mxCell>
        <mxCell id="zgiip1qtCGyLojRdKsyI-22" value="" style="html=1;verticalLabelPosition=bottom;align=center;labelBackgroundColor=#ffffff;verticalAlign=top;strokeWidth=2;strokeColor=#000000;shadow=0;dashed=0;shape=mxgraph.ios7.icons.heart;rounded=1;fontSize=18;fillColor=#EF7C8E;" vertex="1" parent="WLGWMJrVdXJc-HTCod39-1">
          <mxGeometry x="730" y="65" width="40" height="40" as="geometry" />
        </mxCell>
        <mxCell id="zgiip1qtCGyLojRdKsyI-23" value="" style="html=1;verticalLabelPosition=bottom;align=center;labelBackgroundColor=#ffffff;verticalAlign=top;strokeWidth=2;strokeColor=#000000;shadow=0;dashed=0;shape=mxgraph.ios7.icons.calculator;rounded=0;sketch=0;fontSize=18;fillColor=#D8A7B1;" vertex="1" parent="WLGWMJrVdXJc-HTCod39-1">
          <mxGeometry x="935" y="65" width="30" height="40" as="geometry" />
        </mxCell>
        <mxCell id="zgiip1qtCGyLojRdKsyI-24" value="" style="html=1;verticalLabelPosition=bottom;align=center;labelBackgroundColor=#ffffff;verticalAlign=top;strokeWidth=2;strokeColor=#000000;shadow=0;dashed=0;shape=mxgraph.ios7.icons.user;rounded=0;sketch=0;fontSize=14;fillColor=none;" vertex="1" parent="WLGWMJrVdXJc-HTCod39-1">
          <mxGeometry x="1000" y="60" width="40" height="40" as="geometry" />
        </mxCell>
        <mxCell id="zgiip1qtCGyLojRdKsyI-25" value="" style="shape=image;html=1;verticalAlign=top;verticalLabelPosition=bottom;labelBackgroundColor=#ffffff;imageAspect=0;aspect=fixed;image=https://cdn4.iconfinder.com/data/icons/basic-user-interface-elements/700/edit-change-pencil-128.png;rounded=0;shadow=0;glass=0;sketch=0;fontSize=14;fontColor=#000000;strokeColor=#000000;fillColor=#FAE8E0;" vertex="1" parent="WLGWMJrVdXJc-HTCod39-1">
          <mxGeometry x="870" y="65" width="40" height="40" as="geometry" />
        </mxCell>
        <mxCell id="zgiip1qtCGyLojRdKsyI-26" value="推し" style="whiteSpace=wrap;html=1;rounded=0;shadow=0;labelBackgroundColor=none;strokeWidth=1;fontFamily=Verdana;fontSize=14;align=center;comic=1;fillColor=none;strokeColor=none;verticalAlign=bottom;fontStyle=1" vertex="1" parent="WLGWMJrVdXJc-HTCod39-1">
          <mxGeometry x="710" y="40" width="80" height="90" as="geometry" />
        </mxCell>
        <mxCell id="zgiip1qtCGyLojRdKsyI-27" value="コンサート" style="rounded=1;whiteSpace=wrap;html=1;shadow=0;glass=0;sketch=0;fontSize=18;fontColor=#000000;strokeColor=#000000;fillColor=#B6E2D3;align=center;verticalAlign=middle;" vertex="1" parent="WLGWMJrVdXJc-HTCod39-1">
          <mxGeometry x="230" y="190" width="120" height="40" as="geometry" />
        </mxCell>
        <mxCell id="zgiip1qtCGyLojRdKsyI-28" value="" style="rounded=1;whiteSpace=wrap;html=1;shadow=0;glass=0;sketch=0;fontSize=18;fontColor=#000000;strokeColor=#000000;fillColor=#F9F7ED;align=center;verticalAlign=middle;" vertex="1" parent="WLGWMJrVdXJc-HTCod39-1">
          <mxGeometry x="150" y="680" width="800" height="40" as="geometry" />
        </mxCell>
        <mxCell id="zgiip1qtCGyLojRdKsyI-29" value="タグ" style="text;strokeColor=none;fillColor=none;html=1;fontSize=18;fontStyle=0;verticalAlign=bottom;align=left;rounded=0;shadow=0;glass=0;sketch=0;fontColor=#000000;" vertex="1" parent="WLGWMJrVdXJc-HTCod39-1">
          <mxGeometry x="150" y="640" width="100" height="40" as="geometry" />
        </mxCell>
        <mxCell id="zgiip1qtCGyLojRdKsyI-30" value="投稿" style="rounded=1;whiteSpace=wrap;html=1;shadow=0;glass=0;sketch=0;fontSize=18;fontColor=#000000;strokeColor=#000000;fillColor=#B6E2D3;align=center;verticalAlign=middle;" vertex="1" parent="WLGWMJrVdXJc-HTCod39-1">
          <mxGeometry x="490" y="1920" width="120" height="60" as="geometry" />
        </mxCell>
        <mxCell id="0HsNESjtjFpyYxGCMj4d-1" value="セットリスト" style="text;strokeColor=none;fillColor=none;html=1;fontSize=18;fontStyle=0;verticalAlign=bottom;align=left;rounded=0;shadow=0;glass=0;sketch=0;fontColor=#000000;" vertex="1" parent="WLGWMJrVdXJc-HTCod39-1">
          <mxGeometry x="150" y="740" width="100" height="40" as="geometry" />
        </mxCell>
        <mxCell id="0HsNESjtjFpyYxGCMj4d-2" value="" style="rounded=1;whiteSpace=wrap;html=1;shadow=0;glass=0;sketch=0;fontSize=18;fontColor=#000000;strokeColor=#000000;fillColor=#F9F7ED;align=center;verticalAlign=middle;" vertex="1" parent="WLGWMJrVdXJc-HTCod39-1">
          <mxGeometry x="150" y="780" width="800" height="40" as="geometry" />
        </mxCell>
        <mxCell id="0HsNESjtjFpyYxGCMj4d-3" value="" style="rounded=1;whiteSpace=wrap;html=1;shadow=0;glass=0;sketch=0;fontSize=18;fontColor=#000000;strokeColor=#000000;fillColor=#F9F7ED;align=center;verticalAlign=middle;" vertex="1" parent="WLGWMJrVdXJc-HTCod39-1">
          <mxGeometry x="150" y="840" width="800" height="40" as="geometry" />
        </mxCell>
        <mxCell id="0HsNESjtjFpyYxGCMj4d-4" value="" style="rounded=1;whiteSpace=wrap;html=1;shadow=0;glass=0;sketch=0;fontSize=18;fontColor=#000000;strokeColor=#000000;fillColor=#F9F7ED;align=center;verticalAlign=middle;" vertex="1" parent="WLGWMJrVdXJc-HTCod39-1">
          <mxGeometry x="150" y="900" width="800" height="40" as="geometry" />
        </mxCell>
        <mxCell id="0HsNESjtjFpyYxGCMj4d-5" value="" style="rounded=1;whiteSpace=wrap;html=1;shadow=0;glass=0;sketch=0;fontSize=18;fontColor=#000000;strokeColor=#000000;fillColor=#F9F7ED;align=center;verticalAlign=middle;" vertex="1" parent="WLGWMJrVdXJc-HTCod39-1">
          <mxGeometry x="150" y="960" width="800" height="40" as="geometry" />
        </mxCell>
        <mxCell id="0HsNESjtjFpyYxGCMj4d-6" value="" style="rounded=1;whiteSpace=wrap;html=1;shadow=0;glass=0;sketch=0;fontSize=18;fontColor=#000000;strokeColor=#000000;fillColor=#F9F7ED;align=center;verticalAlign=middle;" vertex="1" parent="WLGWMJrVdXJc-HTCod39-1">
          <mxGeometry x="150" y="1020" width="800" height="40" as="geometry" />
        </mxCell>
        <mxCell id="0HsNESjtjFpyYxGCMj4d-7" value="" style="rounded=1;whiteSpace=wrap;html=1;shadow=0;glass=0;sketch=0;fontSize=18;fontColor=#000000;strokeColor=#000000;fillColor=#F9F7ED;align=center;verticalAlign=middle;" vertex="1" parent="WLGWMJrVdXJc-HTCod39-1">
          <mxGeometry x="150" y="1080" width="800" height="40" as="geometry" />
        </mxCell>
        <mxCell id="0HsNESjtjFpyYxGCMj4d-8" value="" style="rounded=1;whiteSpace=wrap;html=1;shadow=0;glass=0;sketch=0;fontSize=18;fontColor=#000000;strokeColor=#000000;fillColor=#F9F7ED;align=center;verticalAlign=middle;" vertex="1" parent="WLGWMJrVdXJc-HTCod39-1">
          <mxGeometry x="150" y="1140" width="800" height="40" as="geometry" />
        </mxCell>
        <mxCell id="0HsNESjtjFpyYxGCMj4d-9" value="" style="rounded=1;whiteSpace=wrap;html=1;shadow=0;glass=0;sketch=0;fontSize=18;fontColor=#000000;strokeColor=#000000;fillColor=#F9F7ED;align=center;verticalAlign=middle;" vertex="1" parent="WLGWMJrVdXJc-HTCod39-1">
          <mxGeometry x="150" y="1200" width="800" height="40" as="geometry" />
        </mxCell>
        <mxCell id="0HsNESjtjFpyYxGCMj4d-10" value="" style="rounded=1;whiteSpace=wrap;html=1;shadow=0;glass=0;sketch=0;fontSize=18;fontColor=#000000;strokeColor=#000000;fillColor=#F9F7ED;align=center;verticalAlign=middle;" vertex="1" parent="WLGWMJrVdXJc-HTCod39-1">
          <mxGeometry x="150" y="1260" width="800" height="40" as="geometry" />
        </mxCell>
        <mxCell id="0HsNESjtjFpyYxGCMj4d-11" value="" style="rounded=1;whiteSpace=wrap;html=1;shadow=0;glass=0;sketch=0;fontSize=18;fontColor=#000000;strokeColor=#000000;fillColor=#F9F7ED;align=center;verticalAlign=middle;" vertex="1" parent="WLGWMJrVdXJc-HTCod39-1">
          <mxGeometry x="150" y="1320" width="800" height="40" as="geometry" />
        </mxCell>
        <mxCell id="0HsNESjtjFpyYxGCMj4d-16" value="" style="html=1;verticalLabelPosition=bottom;align=center;labelBackgroundColor=#ffffff;verticalAlign=top;strokeWidth=1;strokeColor=#000000;shadow=0;dashed=0;shape=mxgraph.ios7.icons.options;pointerEvents=1;rounded=1;glass=0;sketch=0;fontSize=14;fontColor=#000000;fillColor=#B6E2D3;" vertex="1" parent="WLGWMJrVdXJc-HTCod39-1">
          <mxGeometry x="935" y="1370" width="40" height="30" as="geometry" />
        </mxCell>
      </root>
    </mxGraphModel>
  </diagram>
  <diagram id="7q74_nACro63pg7vC09K" name="推し">
    <mxGraphModel dx="1564" dy="1014" grid="1" gridSize="10" guides="1" tooltips="1" connect="1" arrows="1" fold="1" page="1" pageScale="1" pageWidth="1100" pageHeight="850" math="0" shadow="0">
      <root>
        <mxCell id="vRSibwUmuN8ZO35mHIiW-0" />
        <mxCell id="vRSibwUmuN8ZO35mHIiW-1" parent="vRSibwUmuN8ZO35mHIiW-0" />
        <mxCell id="vqCeJCytz0vRis4F2xv--0" value="" style="whiteSpace=wrap;html=1;rounded=0;shadow=0;labelBackgroundColor=none;strokeWidth=1;fontFamily=Verdana;fontSize=12;align=center;comic=1;strokeColor=#FAE8E0;fillColor=#FAE8E0;fontColor=#ffffff;" vertex="1" parent="vRSibwUmuN8ZO35mHIiW-1">
          <mxGeometry x="20" y="20" width="1060" height="1470" as="geometry" />
        </mxCell>
        <mxCell id="yXSiJ8hdA_tHCpWQt3BU-2" value="テンプレート" style="whiteSpace=wrap;html=1;rounded=0;shadow=0;labelBackgroundColor=none;strokeWidth=1;fontFamily=Verdana;fontSize=14;align=center;comic=1;fillColor=none;strokeColor=none;verticalAlign=bottom;fontStyle=1" vertex="1" parent="vRSibwUmuN8ZO35mHIiW-1">
          <mxGeometry x="250" y="150" width="95.5" height="90" as="geometry" />
        </mxCell>
        <mxCell id="5oVWWkKRF1_hvz35BoND-4" value="管理" style="whiteSpace=wrap;html=1;rounded=0;shadow=0;labelBackgroundColor=none;strokeWidth=1;fontFamily=Verdana;fontSize=14;align=center;comic=1;fillColor=none;strokeColor=none;verticalAlign=bottom;fontStyle=1" vertex="1" parent="vRSibwUmuN8ZO35mHIiW-1">
          <mxGeometry x="170" y="150" width="80" height="90" as="geometry" />
        </mxCell>
        <mxCell id="5oVWWkKRF1_hvz35BoND-2" value="登録" style="whiteSpace=wrap;html=1;rounded=0;shadow=0;labelBackgroundColor=none;strokeWidth=1;fontFamily=Verdana;fontSize=14;align=center;comic=1;fillColor=none;strokeColor=none;verticalAlign=bottom;fontStyle=1" vertex="1" parent="vRSibwUmuN8ZO35mHIiW-1">
          <mxGeometry x="17.5" y="150" width="80" height="90" as="geometry" />
        </mxCell>
        <mxCell id="5oVWWkKRF1_hvz35BoND-1" value="" style="html=1;verticalLabelPosition=bottom;align=center;labelBackgroundColor=#ffffff;verticalAlign=top;strokeWidth=2;strokeColor=#000000;shadow=0;dashed=0;shape=mxgraph.ios7.icons.heart;rounded=1;fontSize=18;fillColor=#EF7C8E;" vertex="1" parent="vRSibwUmuN8ZO35mHIiW-1">
          <mxGeometry x="40" y="165" width="35" height="35" as="geometry" />
        </mxCell>
        <mxCell id="vqCeJCytz0vRis4F2xv--1" value="&lt;h2&gt;&lt;font face=&quot;Dela Gothic One&quot; data-font-src=&quot;https://fonts.googleapis.com/css?family=Dela+Gothic+One&quot;&gt;推しとお金と。&lt;/font&gt;&lt;/h2&gt;" style="whiteSpace=wrap;html=1;rounded=0;shadow=0;labelBackgroundColor=none;strokeWidth=1;fontFamily=Verdana;fontSize=28;align=center;comic=1;fillColor=none;strokeColor=none;" vertex="1" parent="vRSibwUmuN8ZO35mHIiW-1">
          <mxGeometry x="40" y="40" width="300" height="80" as="geometry" />
        </mxCell>
        <mxCell id="vqCeJCytz0vRis4F2xv--2" value="" style="line;strokeWidth=1;html=1;rounded=0;shadow=0;labelBackgroundColor=none;fillColor=none;fontFamily=Verdana;fontSize=14;fontColor=#000000;align=center;comic=1;" vertex="1" parent="vRSibwUmuN8ZO35mHIiW-1">
          <mxGeometry x="20" y="140" width="1060" height="10" as="geometry" />
        </mxCell>
        <mxCell id="vqCeJCytz0vRis4F2xv--17" value="投稿" style="whiteSpace=wrap;html=1;rounded=0;shadow=0;labelBackgroundColor=none;strokeWidth=1;fontFamily=Verdana;fontSize=14;align=center;comic=1;fillColor=none;strokeColor=none;verticalAlign=bottom;fontStyle=1" vertex="1" parent="vRSibwUmuN8ZO35mHIiW-1">
          <mxGeometry x="850" y="40" width="80" height="90" as="geometry" />
        </mxCell>
        <mxCell id="vqCeJCytz0vRis4F2xv--18" value="わたし" style="whiteSpace=wrap;html=1;rounded=0;shadow=0;labelBackgroundColor=none;strokeWidth=1;fontFamily=Verdana;fontSize=14;align=center;comic=1;fillColor=none;strokeColor=none;verticalAlign=bottom;fontStyle=1" vertex="1" parent="vRSibwUmuN8ZO35mHIiW-1">
          <mxGeometry x="980" y="40" width="80" height="90" as="geometry" />
        </mxCell>
        <mxCell id="vqCeJCytz0vRis4F2xv--19" value="お金" style="whiteSpace=wrap;html=1;rounded=0;shadow=0;labelBackgroundColor=none;strokeWidth=1;fontFamily=Verdana;fontSize=14;align=center;comic=1;fillColor=none;strokeColor=none;verticalAlign=bottom;fontStyle=1" vertex="1" parent="vRSibwUmuN8ZO35mHIiW-1">
          <mxGeometry x="910" y="40" width="80" height="90" as="geometry" />
        </mxCell>
        <mxCell id="vqCeJCytz0vRis4F2xv--20" value="メモリー" style="whiteSpace=wrap;html=1;rounded=0;shadow=0;labelBackgroundColor=none;strokeWidth=1;fontFamily=Verdana;fontSize=14;align=center;comic=1;fillColor=none;strokeColor=none;verticalAlign=bottom;fontStyle=1" vertex="1" parent="vRSibwUmuN8ZO35mHIiW-1">
          <mxGeometry x="780" y="40" width="80" height="90" as="geometry" />
        </mxCell>
        <mxCell id="vqCeJCytz0vRis4F2xv--21" value="" style="html=1;verticalLabelPosition=bottom;align=center;labelBackgroundColor=default;verticalAlign=top;strokeWidth=2;strokeColor=#000000;shadow=0;dashed=0;shape=mxgraph.ios7.icons.edit;rounded=1;fontSize=18;fillColor=#B6E2D3;" vertex="1" parent="vRSibwUmuN8ZO35mHIiW-1">
          <mxGeometry x="800" y="60" width="40" height="40" as="geometry" />
        </mxCell>
        <mxCell id="vqCeJCytz0vRis4F2xv--22" value="" style="html=1;verticalLabelPosition=bottom;align=center;labelBackgroundColor=#ffffff;verticalAlign=top;strokeWidth=2;strokeColor=#000000;shadow=0;dashed=0;shape=mxgraph.ios7.icons.heart;rounded=1;fontSize=18;fillColor=#EF7C8E;" vertex="1" parent="vRSibwUmuN8ZO35mHIiW-1">
          <mxGeometry x="730" y="65" width="40" height="40" as="geometry" />
        </mxCell>
        <mxCell id="vqCeJCytz0vRis4F2xv--23" value="" style="html=1;verticalLabelPosition=bottom;align=center;labelBackgroundColor=#ffffff;verticalAlign=top;strokeWidth=2;strokeColor=#000000;shadow=0;dashed=0;shape=mxgraph.ios7.icons.calculator;rounded=0;sketch=0;fontSize=18;fillColor=#D8A7B1;" vertex="1" parent="vRSibwUmuN8ZO35mHIiW-1">
          <mxGeometry x="935" y="65" width="30" height="40" as="geometry" />
        </mxCell>
        <mxCell id="vqCeJCytz0vRis4F2xv--24" value="" style="html=1;verticalLabelPosition=bottom;align=center;labelBackgroundColor=#ffffff;verticalAlign=top;strokeWidth=2;strokeColor=#000000;shadow=0;dashed=0;shape=mxgraph.ios7.icons.user;rounded=0;sketch=0;fontSize=14;fillColor=none;" vertex="1" parent="vRSibwUmuN8ZO35mHIiW-1">
          <mxGeometry x="1000" y="60" width="40" height="40" as="geometry" />
        </mxCell>
        <mxCell id="vqCeJCytz0vRis4F2xv--25" value="" style="shape=image;html=1;verticalAlign=top;verticalLabelPosition=bottom;labelBackgroundColor=#ffffff;imageAspect=0;aspect=fixed;image=https://cdn4.iconfinder.com/data/icons/basic-user-interface-elements/700/edit-change-pencil-128.png;rounded=0;shadow=0;glass=0;sketch=0;fontSize=14;fontColor=#000000;strokeColor=#000000;fillColor=#FAE8E0;" vertex="1" parent="vRSibwUmuN8ZO35mHIiW-1">
          <mxGeometry x="870" y="65" width="40" height="40" as="geometry" />
        </mxCell>
        <mxCell id="vqCeJCytz0vRis4F2xv--26" value="推し" style="whiteSpace=wrap;html=1;rounded=0;shadow=0;labelBackgroundColor=none;strokeWidth=1;fontFamily=Verdana;fontSize=14;align=center;comic=1;fillColor=none;strokeColor=none;verticalAlign=bottom;fontStyle=1" vertex="1" parent="vRSibwUmuN8ZO35mHIiW-1">
          <mxGeometry x="710" y="40" width="80" height="90" as="geometry" />
        </mxCell>
        <mxCell id="JjveixN3vClxhb1peyK6-0" value="" style="whiteSpace=wrap;html=1;rounded=1;shadow=0;labelBackgroundColor=none;strokeWidth=2;fontFamily=Verdana;fontSize=12;align=center;comic=1;perimeterSpacing=0;strokeColor=#EBE0D0;fillColor=#EF7C8E;arcSize=7;" vertex="1" parent="vRSibwUmuN8ZO35mHIiW-1">
          <mxGeometry x="40" y="280" width="650" height="830" as="geometry" />
        </mxCell>
        <mxCell id="JjveixN3vClxhb1peyK6-1" value="" style="verticalLabelPosition=bottom;shadow=0;dashed=0;align=center;html=1;verticalAlign=top;strokeWidth=1;shape=mxgraph.mockup.graphics.simpleIcon;strokeColor=#999999;rounded=1;fontSize=18;fillColor=none;" vertex="1" parent="vRSibwUmuN8ZO35mHIiW-1">
          <mxGeometry x="135" y="360" width="460" height="280" as="geometry" />
        </mxCell>
        <mxCell id="JjveixN3vClxhb1peyK6-2" value="推しの画像" style="text;html=1;points=[];align=center;verticalAlign=middle;spacingTop=-4;fontSize=14;fontFamily=Verdana" vertex="1" parent="vRSibwUmuN8ZO35mHIiW-1">
          <mxGeometry x="280" y="490" width="170" height="20" as="geometry" />
        </mxCell>
        <mxCell id="JjveixN3vClxhb1peyK6-3" value="&lt;div style=&quot;font-size: 14px&quot;&gt;&lt;span style=&quot;font-weight: 400&quot;&gt;生年月日　yyyy/mm/dd　&lt;/span&gt;&lt;span style=&quot;font-weight: 400&quot;&gt;〇〇歳&lt;/span&gt;&lt;/div&gt;&lt;div style=&quot;font-size: 14px&quot;&gt;&lt;br&gt;&lt;/div&gt;&lt;div style=&quot;font-size: 14px&quot;&gt;&lt;span style=&quot;font-weight: 400&quot;&gt;血液型　　　型&lt;/span&gt;&lt;/div&gt;&lt;div style=&quot;font-size: 14px&quot;&gt;&lt;span style=&quot;font-weight: 400&quot;&gt;&lt;br&gt;&lt;/span&gt;&lt;/div&gt;&lt;div style=&quot;font-size: 14px&quot;&gt;&lt;span style=&quot;font-weight: 400&quot;&gt;星座　　　　座&lt;/span&gt;&lt;/div&gt;&lt;div style=&quot;font-size: 14px&quot;&gt;&lt;span style=&quot;font-weight: 400&quot;&gt;&lt;br&gt;&lt;/span&gt;&lt;/div&gt;&lt;div style=&quot;font-size: 14px&quot;&gt;&lt;span style=&quot;font-weight: 400&quot;&gt;身長　　　　cm&lt;/span&gt;&lt;/div&gt;&lt;div style=&quot;font-size: 14px&quot;&gt;&lt;span style=&quot;font-weight: 400&quot;&gt;&lt;br&gt;&lt;/span&gt;&lt;/div&gt;&lt;div style=&quot;font-size: 14px&quot;&gt;&lt;span style=&quot;font-weight: 400&quot;&gt;体重&amp;nbsp; &amp;nbsp; &amp;nbsp; &amp;nbsp; &amp;nbsp; &amp;nbsp; &amp;nbsp; &amp;nbsp;kg&lt;/span&gt;&lt;/div&gt;&lt;div style=&quot;font-size: 14px&quot;&gt;&lt;span style=&quot;font-weight: 400&quot;&gt;&lt;br&gt;&lt;/span&gt;&lt;/div&gt;&lt;div style=&quot;font-size: 14px&quot;&gt;&lt;span style=&quot;font-weight: 400&quot;&gt;グループ&lt;/span&gt;&lt;/div&gt;&lt;div style=&quot;font-size: 14px&quot;&gt;&lt;span style=&quot;font-weight: 400&quot;&gt;&lt;br&gt;&lt;/span&gt;&lt;/div&gt;&lt;div style=&quot;font-size: 14px&quot;&gt;&lt;span style=&quot;font-weight: 400&quot;&gt;推し歴　　&lt;/span&gt;&lt;span style=&quot;font-weight: 400&quot;&gt;〇年〇ヶ月〇日&lt;/span&gt;&lt;/div&gt;&lt;div style=&quot;font-size: 14px&quot;&gt;&lt;span style=&quot;font-weight: 400&quot;&gt;&lt;br&gt;&lt;/span&gt;&lt;/div&gt;&lt;div style=&quot;font-size: 14px&quot;&gt;愛情度　　100%&lt;/div&gt;&lt;div style=&quot;font-size: 14px&quot;&gt;&lt;br&gt;&lt;/div&gt;&lt;div style=&quot;font-size: 14px&quot;&gt;メモ&lt;/div&gt;" style="text;strokeColor=none;fillColor=none;html=1;fontSize=14;fontStyle=1;verticalAlign=top;align=left;rounded=0;shadow=0;labelBackgroundColor=none;sketch=0;" vertex="1" parent="vRSibwUmuN8ZO35mHIiW-1">
          <mxGeometry x="135" y="710" width="460" height="310" as="geometry" />
        </mxCell>
        <mxCell id="JjveixN3vClxhb1peyK6-5" value="" style="line;strokeWidth=1;html=1;rounded=0;shadow=0;labelBackgroundColor=none;fillColor=none;fontFamily=Verdana;fontSize=14;fontColor=#000000;align=center;comic=1;" vertex="1" parent="vRSibwUmuN8ZO35mHIiW-1">
          <mxGeometry x="20" y="240" width="1060" height="10" as="geometry" />
        </mxCell>
        <mxCell id="QKVCaaLUH-6j5lAOMcJf-0" value="" style="whiteSpace=wrap;html=1;rounded=0;shadow=0;labelBackgroundColor=none;strokeWidth=1;fontFamily=Verdana;fontSize=12;align=center;comic=1;fillColor=#F9F7ED;strokeColor=#36393d;" vertex="1" parent="vRSibwUmuN8ZO35mHIiW-1">
          <mxGeometry x="750" y="280" width="310" height="400" as="geometry" />
        </mxCell>
        <mxCell id="QKVCaaLUH-6j5lAOMcJf-1" value="推しリスト" style="text;strokeColor=none;fillColor=none;html=1;fontSize=18;fontStyle=1;verticalAlign=middle;align=center;rounded=1;shadow=0;glass=0;sketch=0;fontColor=#000000;" vertex="1" parent="vRSibwUmuN8ZO35mHIiW-1">
          <mxGeometry x="850" y="300" width="120" height="40" as="geometry" />
        </mxCell>
        <mxCell id="QKVCaaLUH-6j5lAOMcJf-2" value="No.1　山田一郎　愛情度 100%" style="whiteSpace=wrap;html=1;rounded=1;shadow=0;labelBackgroundColor=none;strokeWidth=2;fontFamily=Verdana;fontSize=12;align=center;comic=1;perimeterSpacing=0;strokeColor=#EBE0D0;fillColor=#EF7C8E;arcSize=37;" vertex="1" parent="vRSibwUmuN8ZO35mHIiW-1">
          <mxGeometry x="770" y="360" width="270" height="40" as="geometry" />
        </mxCell>
        <mxCell id="QKVCaaLUH-6j5lAOMcJf-3" value="No.2　山田二郎　愛情度 95%" style="whiteSpace=wrap;html=1;rounded=1;shadow=0;labelBackgroundColor=none;strokeWidth=2;fontFamily=Verdana;fontSize=12;align=center;comic=1;perimeterSpacing=0;strokeColor=#EBE0D0;fillColor=#EF7C8E;arcSize=37;" vertex="1" parent="vRSibwUmuN8ZO35mHIiW-1">
          <mxGeometry x="770" y="420" width="270" height="40" as="geometry" />
        </mxCell>
        <mxCell id="QKVCaaLUH-6j5lAOMcJf-4" value="No.3　山田三郎　愛情度 70%" style="whiteSpace=wrap;html=1;rounded=1;shadow=0;labelBackgroundColor=none;strokeWidth=2;fontFamily=Verdana;fontSize=12;align=center;comic=1;perimeterSpacing=0;strokeColor=#EBE0D0;fillColor=#EF7C8E;arcSize=37;" vertex="1" parent="vRSibwUmuN8ZO35mHIiW-1">
          <mxGeometry x="770" y="480" width="270" height="40" as="geometry" />
        </mxCell>
        <mxCell id="QKVCaaLUH-6j5lAOMcJf-5" value="No.4　山田四郎　愛情度 65%" style="whiteSpace=wrap;html=1;rounded=1;shadow=0;labelBackgroundColor=none;strokeWidth=2;fontFamily=Verdana;fontSize=12;align=center;comic=1;perimeterSpacing=0;strokeColor=#EBE0D0;fillColor=#EF7C8E;arcSize=37;" vertex="1" parent="vRSibwUmuN8ZO35mHIiW-1">
          <mxGeometry x="770" y="540" width="270" height="40" as="geometry" />
        </mxCell>
        <mxCell id="yXSiJ8hdA_tHCpWQt3BU-0" value="No.1　山田一郎" style="text;strokeColor=none;fillColor=none;html=1;fontSize=36;fontStyle=0;verticalAlign=middle;align=left;rounded=1;shadow=0;glass=0;sketch=0;fontColor=#000000;fontFamily=Dela Gothic One;fontSource=https%3A%2F%2Ffonts.googleapis.com%2Fcss%3Ffamily%3DDela%2BGothic%2BOne;" vertex="1" parent="vRSibwUmuN8ZO35mHIiW-1">
          <mxGeometry x="50" y="280" width="630" height="60" as="geometry" />
        </mxCell>
        <mxCell id="yXSiJ8hdA_tHCpWQt3BU-1" value="" style="html=1;verticalLabelPosition=bottom;align=center;labelBackgroundColor=#ffffff;verticalAlign=top;strokeWidth=2;strokeColor=#000000;shadow=0;dashed=0;shape=mxgraph.ios7.icons.document;rounded=1;glass=0;sketch=0;fontFamily=Dela Gothic One;fontSource=https%3A%2F%2Ffonts.googleapis.com%2Fcss%3Ffamily%3DDela%2BGothic%2BOne;fontSize=36;fontColor=#000000;fillColor=#F9F7ED;" vertex="1" parent="vRSibwUmuN8ZO35mHIiW-1">
          <mxGeometry x="280" y="168.5" width="29" height="38" as="geometry" />
        </mxCell>
        <mxCell id="sw5Q2kzktt6ARkVsPK5Y-0" value="" style="html=1;verticalLabelPosition=bottom;align=center;labelBackgroundColor=#ffffff;verticalAlign=top;strokeWidth=2;strokeColor=#000000;shadow=0;dashed=0;shape=mxgraph.ios7.icons.star;rounded=1;glass=0;sketch=0;fontFamily=Helvetica;fontSize=36;fontColor=#B3B3B3;fillColor=#F9F7ED;aspect=fixed;" vertex="1" parent="vRSibwUmuN8ZO35mHIiW-1">
          <mxGeometry x="110" y="165" width="40" height="36" as="geometry" />
        </mxCell>
        <mxCell id="sw5Q2kzktt6ARkVsPK5Y-1" value="布教" style="whiteSpace=wrap;html=1;rounded=0;shadow=0;labelBackgroundColor=none;strokeWidth=1;fontFamily=Verdana;fontSize=14;align=center;comic=1;fillColor=none;strokeColor=none;verticalAlign=bottom;fontStyle=1" vertex="1" parent="vRSibwUmuN8ZO35mHIiW-1">
          <mxGeometry x="90" y="150" width="80" height="90" as="geometry" />
        </mxCell>
        <mxCell id="sw5Q2kzktt6ARkVsPK5Y-2" value="" style="html=1;verticalLabelPosition=bottom;align=center;labelBackgroundColor=#ffffff;verticalAlign=top;strokeWidth=2;strokeColor=#000000;shadow=0;dashed=0;shape=mxgraph.ios7.icons.settings;rounded=1;glass=0;sketch=0;fontFamily=Helvetica;fontSize=36;fontColor=#B3B3B3;fillColor=none;aspect=fixed;" vertex="1" parent="vRSibwUmuN8ZO35mHIiW-1">
          <mxGeometry x="190" y="167.5" width="40" height="40" as="geometry" />
        </mxCell>
      </root>
    </mxGraphModel>
  </diagram>
  <diagram id="f-D7oynJY2vzuTbsGx-O" name="布教">
    <mxGraphModel dx="1564" dy="1014" grid="1" gridSize="10" guides="1" tooltips="1" connect="1" arrows="1" fold="1" page="1" pageScale="1" pageWidth="1100" pageHeight="850" math="0" shadow="0">
      <root>
        <mxCell id="EAO5DD-DaSagGoZDCt3w-0" />
        <mxCell id="EAO5DD-DaSagGoZDCt3w-1" parent="EAO5DD-DaSagGoZDCt3w-0" />
        <mxCell id="D9wj4n6BTY3JAVrSFCQ--0" value="" style="whiteSpace=wrap;html=1;rounded=0;shadow=0;labelBackgroundColor=none;strokeWidth=1;fontFamily=Verdana;fontSize=12;align=center;comic=1;strokeColor=#FAE8E0;fillColor=#FAE8E0;fontColor=#ffffff;" vertex="1" parent="EAO5DD-DaSagGoZDCt3w-1">
          <mxGeometry x="20" y="20" width="1060" height="2120" as="geometry" />
        </mxCell>
        <mxCell id="D9wj4n6BTY3JAVrSFCQ--1" value="" style="whiteSpace=wrap;html=1;rounded=1;shadow=0;labelBackgroundColor=none;strokeWidth=1;fontFamily=Verdana;fontSize=12;align=center;comic=1;fillColor=#EF7C8E;strokeColor=#36393d;arcSize=3;" vertex="1" parent="EAO5DD-DaSagGoZDCt3w-1">
          <mxGeometry x="168" y="361" width="760" height="550" as="geometry" />
        </mxCell>
        <mxCell id="D9wj4n6BTY3JAVrSFCQ--2" value="" style="whiteSpace=wrap;html=1;rounded=0;shadow=0;labelBackgroundColor=none;strokeWidth=1;fontFamily=Verdana;fontSize=12;align=center;comic=1;fillColor=#F9F7ED;strokeColor=#36393d;" vertex="1" parent="EAO5DD-DaSagGoZDCt3w-1">
          <mxGeometry x="208" y="447" width="680" height="420" as="geometry" />
        </mxCell>
        <mxCell id="D9wj4n6BTY3JAVrSFCQ--3" value="&lt;h2&gt;&lt;font face=&quot;Dela Gothic One&quot; data-font-src=&quot;https://fonts.googleapis.com/css?family=Dela+Gothic+One&quot;&gt;推しとお金と。&lt;/font&gt;&lt;/h2&gt;" style="whiteSpace=wrap;html=1;rounded=0;shadow=0;labelBackgroundColor=none;strokeWidth=1;fontFamily=Verdana;fontSize=28;align=center;comic=1;fillColor=none;strokeColor=none;" vertex="1" parent="EAO5DD-DaSagGoZDCt3w-1">
          <mxGeometry x="40" y="40" width="300" height="80" as="geometry" />
        </mxCell>
        <mxCell id="D9wj4n6BTY3JAVrSFCQ--4" value="" style="line;strokeWidth=1;html=1;rounded=0;shadow=0;labelBackgroundColor=none;fillColor=none;fontFamily=Verdana;fontSize=14;fontColor=#000000;align=center;comic=1;" vertex="1" parent="EAO5DD-DaSagGoZDCt3w-1">
          <mxGeometry x="20" y="140" width="1060" height="10" as="geometry" />
        </mxCell>
        <mxCell id="D9wj4n6BTY3JAVrSFCQ--5" value="投稿" style="whiteSpace=wrap;html=1;rounded=0;shadow=0;labelBackgroundColor=none;strokeWidth=1;fontFamily=Verdana;fontSize=14;align=center;comic=1;fillColor=none;strokeColor=none;verticalAlign=bottom;fontStyle=1" vertex="1" parent="EAO5DD-DaSagGoZDCt3w-1">
          <mxGeometry x="850" y="40" width="80" height="90" as="geometry" />
        </mxCell>
        <mxCell id="D9wj4n6BTY3JAVrSFCQ--6" value="わたし" style="whiteSpace=wrap;html=1;rounded=0;shadow=0;labelBackgroundColor=none;strokeWidth=1;fontFamily=Verdana;fontSize=14;align=center;comic=1;fillColor=none;strokeColor=none;verticalAlign=bottom;fontStyle=1" vertex="1" parent="EAO5DD-DaSagGoZDCt3w-1">
          <mxGeometry x="980" y="40" width="80" height="90" as="geometry" />
        </mxCell>
        <mxCell id="D9wj4n6BTY3JAVrSFCQ--7" value="お金" style="whiteSpace=wrap;html=1;rounded=0;shadow=0;labelBackgroundColor=none;strokeWidth=1;fontFamily=Verdana;fontSize=14;align=center;comic=1;fillColor=none;strokeColor=none;verticalAlign=bottom;fontStyle=1" vertex="1" parent="EAO5DD-DaSagGoZDCt3w-1">
          <mxGeometry x="910" y="40" width="80" height="90" as="geometry" />
        </mxCell>
        <mxCell id="D9wj4n6BTY3JAVrSFCQ--8" value="メモリー" style="whiteSpace=wrap;html=1;rounded=0;shadow=0;labelBackgroundColor=none;strokeWidth=1;fontFamily=Verdana;fontSize=14;align=center;comic=1;fillColor=none;strokeColor=none;verticalAlign=bottom;fontStyle=1" vertex="1" parent="EAO5DD-DaSagGoZDCt3w-1">
          <mxGeometry x="780" y="40" width="80" height="90" as="geometry" />
        </mxCell>
        <mxCell id="D9wj4n6BTY3JAVrSFCQ--9" value="" style="html=1;verticalLabelPosition=bottom;align=center;labelBackgroundColor=default;verticalAlign=top;strokeWidth=2;strokeColor=#000000;shadow=0;dashed=0;shape=mxgraph.ios7.icons.edit;rounded=1;fontSize=18;fillColor=#B6E2D3;" vertex="1" parent="EAO5DD-DaSagGoZDCt3w-1">
          <mxGeometry x="800" y="60" width="40" height="40" as="geometry" />
        </mxCell>
        <mxCell id="D9wj4n6BTY3JAVrSFCQ--10" value="" style="html=1;verticalLabelPosition=bottom;align=center;labelBackgroundColor=#ffffff;verticalAlign=top;strokeWidth=2;strokeColor=#000000;shadow=0;dashed=0;shape=mxgraph.ios7.icons.heart;rounded=1;fontSize=18;fillColor=#EF7C8E;" vertex="1" parent="EAO5DD-DaSagGoZDCt3w-1">
          <mxGeometry x="730" y="65" width="40" height="40" as="geometry" />
        </mxCell>
        <mxCell id="D9wj4n6BTY3JAVrSFCQ--11" value="" style="html=1;verticalLabelPosition=bottom;align=center;labelBackgroundColor=#ffffff;verticalAlign=top;strokeWidth=2;strokeColor=#000000;shadow=0;dashed=0;shape=mxgraph.ios7.icons.calculator;rounded=0;sketch=0;fontSize=18;fillColor=#D8A7B1;" vertex="1" parent="EAO5DD-DaSagGoZDCt3w-1">
          <mxGeometry x="935" y="65" width="30" height="40" as="geometry" />
        </mxCell>
        <mxCell id="D9wj4n6BTY3JAVrSFCQ--12" value="" style="html=1;verticalLabelPosition=bottom;align=center;labelBackgroundColor=#ffffff;verticalAlign=top;strokeWidth=2;strokeColor=#000000;shadow=0;dashed=0;shape=mxgraph.ios7.icons.user;rounded=0;sketch=0;fontSize=14;fillColor=none;" vertex="1" parent="EAO5DD-DaSagGoZDCt3w-1">
          <mxGeometry x="1000" y="60" width="40" height="40" as="geometry" />
        </mxCell>
        <mxCell id="D9wj4n6BTY3JAVrSFCQ--13" value="" style="shape=image;html=1;verticalAlign=top;verticalLabelPosition=bottom;labelBackgroundColor=#ffffff;imageAspect=0;aspect=fixed;image=https://cdn4.iconfinder.com/data/icons/basic-user-interface-elements/700/edit-change-pencil-128.png;rounded=0;shadow=0;glass=0;sketch=0;fontSize=14;fontColor=#000000;strokeColor=#000000;fillColor=#FAE8E0;" vertex="1" parent="EAO5DD-DaSagGoZDCt3w-1">
          <mxGeometry x="870" y="65" width="40" height="40" as="geometry" />
        </mxCell>
        <mxCell id="D9wj4n6BTY3JAVrSFCQ--14" value="推し" style="whiteSpace=wrap;html=1;rounded=0;shadow=0;labelBackgroundColor=none;strokeWidth=1;fontFamily=Verdana;fontSize=14;align=center;comic=1;fillColor=none;strokeColor=none;verticalAlign=bottom;fontStyle=1" vertex="1" parent="EAO5DD-DaSagGoZDCt3w-1">
          <mxGeometry x="710" y="40" width="80" height="90" as="geometry" />
        </mxCell>
        <mxCell id="D9wj4n6BTY3JAVrSFCQ--15" value="" style="line;strokeWidth=1;html=1;rounded=0;shadow=0;labelBackgroundColor=none;fillColor=none;fontFamily=Verdana;fontSize=14;fontColor=#000000;align=center;comic=1;" vertex="1" parent="EAO5DD-DaSagGoZDCt3w-1">
          <mxGeometry x="20" y="240" width="1060" height="10" as="geometry" />
        </mxCell>
        <mxCell id="D9wj4n6BTY3JAVrSFCQ--16" value="推し" style="sketch=0;outlineConnect=0;fontColor=#232F3E;gradientColor=none;strokeColor=default;fillColor=none;dashed=0;verticalLabelPosition=top;verticalAlign=bottom;align=center;html=1;fontSize=36;fontStyle=0;aspect=fixed;shape=mxgraph.aws4.resourceIcon;resIcon=mxgraph.aws4.user;rounded=1;shadow=0;glass=0;labelBackgroundColor=none;fontFamily=Helvetica;labelPosition=center;strokeWidth=1;" vertex="1" parent="EAO5DD-DaSagGoZDCt3w-1">
          <mxGeometry x="393" y="527" width="310" height="310" as="geometry" />
        </mxCell>
        <mxCell id="D9wj4n6BTY3JAVrSFCQ--18" value="" style="whiteSpace=wrap;html=1;shape=mxgraph.basic.roundRectCallout;dx=30;dy=15;size=33.33;boundedLbl=1;rounded=1;shadow=0;glass=0;labelBackgroundColor=none;sketch=0;fontFamily=Helvetica;fontSize=36;fontColor=#000000;strokeColor=default;strokeWidth=1;fillColor=none;align=center;verticalAlign=middle;" vertex="1" parent="EAO5DD-DaSagGoZDCt3w-1">
          <mxGeometry x="628" y="467" width="250" height="160" as="geometry" />
        </mxCell>
        <mxCell id="D9wj4n6BTY3JAVrSFCQ--19" value="" style="rounded=1;whiteSpace=wrap;html=1;shadow=0;glass=0;labelBackgroundColor=none;sketch=0;fontFamily=Helvetica;fontSize=36;fontColor=#000000;strokeColor=default;strokeWidth=1;fillColor=none;align=center;verticalAlign=middle;" vertex="1" parent="EAO5DD-DaSagGoZDCt3w-1">
          <mxGeometry x="408" y="707" width="280" height="60" as="geometry" />
        </mxCell>
        <mxCell id="D9wj4n6BTY3JAVrSFCQ--20" value="" style="verticalLabelPosition=middle;verticalAlign=middle;html=1;shape=mxgraph.basic.8_point_star;rounded=1;shadow=0;glass=0;labelBackgroundColor=none;sketch=0;fontFamily=Helvetica;fontSize=36;fontColor=#000000;strokeColor=default;strokeWidth=1;fillColor=none;labelPosition=center;align=center;" vertex="1" parent="EAO5DD-DaSagGoZDCt3w-1">
          <mxGeometry x="218" y="457" width="240" height="180" as="geometry" />
        </mxCell>
        <mxCell id="D9wj4n6BTY3JAVrSFCQ--21" value="" style="whiteSpace=wrap;html=1;aspect=fixed;rounded=1;shadow=0;glass=0;labelBackgroundColor=none;sketch=0;fontFamily=Helvetica;fontSize=36;fontColor=#000000;strokeColor=default;strokeWidth=1;fillColor=none;align=center;verticalAlign=middle;" vertex="1" parent="EAO5DD-DaSagGoZDCt3w-1">
          <mxGeometry x="227.75" y="687" width="160" height="160" as="geometry" />
        </mxCell>
        <mxCell id="D9wj4n6BTY3JAVrSFCQ--22" value="" style="ellipse;whiteSpace=wrap;html=1;aspect=fixed;rounded=1;shadow=0;glass=0;labelBackgroundColor=none;sketch=0;fontFamily=Helvetica;fontSize=36;fontColor=#000000;strokeColor=default;strokeWidth=1;fillColor=none;align=center;verticalAlign=middle;" vertex="1" parent="EAO5DD-DaSagGoZDCt3w-1">
          <mxGeometry x="718" y="667" width="140" height="140" as="geometry" />
        </mxCell>
        <mxCell id="D9wj4n6BTY3JAVrSFCQ--36" value="テンプレート" style="whiteSpace=wrap;html=1;rounded=0;shadow=0;labelBackgroundColor=none;strokeWidth=1;fontFamily=Verdana;fontSize=14;align=center;comic=1;fillColor=none;strokeColor=none;verticalAlign=bottom;fontStyle=1" vertex="1" parent="EAO5DD-DaSagGoZDCt3w-1">
          <mxGeometry x="250" y="150" width="95.5" height="90" as="geometry" />
        </mxCell>
        <mxCell id="D9wj4n6BTY3JAVrSFCQ--37" value="管理" style="whiteSpace=wrap;html=1;rounded=0;shadow=0;labelBackgroundColor=none;strokeWidth=1;fontFamily=Verdana;fontSize=14;align=center;comic=1;fillColor=none;strokeColor=none;verticalAlign=bottom;fontStyle=1" vertex="1" parent="EAO5DD-DaSagGoZDCt3w-1">
          <mxGeometry x="170" y="150" width="80" height="90" as="geometry" />
        </mxCell>
        <mxCell id="D9wj4n6BTY3JAVrSFCQ--38" value="登録" style="whiteSpace=wrap;html=1;rounded=0;shadow=0;labelBackgroundColor=none;strokeWidth=1;fontFamily=Verdana;fontSize=14;align=center;comic=1;fillColor=none;strokeColor=none;verticalAlign=bottom;fontStyle=1" vertex="1" parent="EAO5DD-DaSagGoZDCt3w-1">
          <mxGeometry x="17.5" y="150" width="80" height="90" as="geometry" />
        </mxCell>
        <mxCell id="D9wj4n6BTY3JAVrSFCQ--39" value="" style="html=1;verticalLabelPosition=bottom;align=center;labelBackgroundColor=#ffffff;verticalAlign=top;strokeWidth=2;strokeColor=#000000;shadow=0;dashed=0;shape=mxgraph.ios7.icons.heart;rounded=1;fontSize=18;fillColor=#EF7C8E;" vertex="1" parent="EAO5DD-DaSagGoZDCt3w-1">
          <mxGeometry x="40" y="165" width="35" height="35" as="geometry" />
        </mxCell>
        <mxCell id="D9wj4n6BTY3JAVrSFCQ--40" value="" style="html=1;verticalLabelPosition=bottom;align=center;labelBackgroundColor=#ffffff;verticalAlign=top;strokeWidth=2;strokeColor=#000000;shadow=0;dashed=0;shape=mxgraph.ios7.icons.document;rounded=1;glass=0;sketch=0;fontFamily=Dela Gothic One;fontSource=https%3A%2F%2Ffonts.googleapis.com%2Fcss%3Ffamily%3DDela%2BGothic%2BOne;fontSize=36;fontColor=#000000;fillColor=#F9F7ED;" vertex="1" parent="EAO5DD-DaSagGoZDCt3w-1">
          <mxGeometry x="280" y="168.5" width="29" height="38" as="geometry" />
        </mxCell>
        <mxCell id="D9wj4n6BTY3JAVrSFCQ--41" value="" style="html=1;verticalLabelPosition=bottom;align=center;labelBackgroundColor=#ffffff;verticalAlign=top;strokeWidth=2;strokeColor=#000000;shadow=0;dashed=0;shape=mxgraph.ios7.icons.star;rounded=1;glass=0;sketch=0;fontFamily=Helvetica;fontSize=36;fontColor=#B3B3B3;fillColor=#F9F7ED;aspect=fixed;" vertex="1" parent="EAO5DD-DaSagGoZDCt3w-1">
          <mxGeometry x="110" y="165" width="40" height="36" as="geometry" />
        </mxCell>
        <mxCell id="D9wj4n6BTY3JAVrSFCQ--42" value="布教" style="whiteSpace=wrap;html=1;rounded=0;shadow=0;labelBackgroundColor=none;strokeWidth=1;fontFamily=Verdana;fontSize=14;align=center;comic=1;fillColor=none;strokeColor=none;verticalAlign=bottom;fontStyle=1" vertex="1" parent="EAO5DD-DaSagGoZDCt3w-1">
          <mxGeometry x="90" y="150" width="80" height="90" as="geometry" />
        </mxCell>
        <mxCell id="D9wj4n6BTY3JAVrSFCQ--43" value="" style="html=1;verticalLabelPosition=bottom;align=center;labelBackgroundColor=#ffffff;verticalAlign=top;strokeWidth=2;strokeColor=#000000;shadow=0;dashed=0;shape=mxgraph.ios7.icons.settings;rounded=1;glass=0;sketch=0;fontFamily=Helvetica;fontSize=36;fontColor=#B3B3B3;fillColor=none;aspect=fixed;" vertex="1" parent="EAO5DD-DaSagGoZDCt3w-1">
          <mxGeometry x="190" y="167.5" width="40" height="40" as="geometry" />
        </mxCell>
        <mxCell id="XywuoJHpbsScotU-_1qR-0" value="No.1　山田一郎" style="text;strokeColor=none;fillColor=none;html=1;fontSize=36;fontStyle=0;verticalAlign=middle;align=left;rounded=1;shadow=0;glass=0;sketch=0;fontColor=#000000;fontFamily=Dela Gothic One;fontSource=https%3A%2F%2Ffonts.googleapis.com%2Fcss%3Ffamily%3DDela%2BGothic%2BOne;" vertex="1" parent="EAO5DD-DaSagGoZDCt3w-1">
          <mxGeometry x="168" y="361" width="630" height="60" as="geometry" />
        </mxCell>
        <mxCell id="yyj0tZDYigyagbsJ4zw7-0" value="" style="shape=image;html=1;verticalAlign=top;verticalLabelPosition=bottom;labelBackgroundColor=#ffffff;imageAspect=0;aspect=fixed;image=https://cdn4.iconfinder.com/data/icons/basic-user-interface-elements/700/edit-change-pencil-128.png;rounded=0;shadow=0;glass=0;sketch=0;fontSize=14;fontColor=#000000;strokeColor=#000000;fillColor=#FAE8E0;" vertex="1" parent="EAO5DD-DaSagGoZDCt3w-1">
          <mxGeometry x="789.5" y="375" width="30" height="30" as="geometry" />
        </mxCell>
        <mxCell id="yyj0tZDYigyagbsJ4zw7-1" value="" style="shape=image;html=1;verticalAlign=top;verticalLabelPosition=bottom;labelBackgroundColor=#ffffff;imageAspect=0;aspect=fixed;image=https://cdn0.iconfinder.com/data/icons/simple-line-48px/48/trashcan-128.png;rounded=0;shadow=0;glass=0;sketch=0;fontSize=14;fontColor=#000000;strokeColor=#000000;fillColor=#FAE8E0;" vertex="1" parent="EAO5DD-DaSagGoZDCt3w-1">
          <mxGeometry x="829.5" y="370" width="40" height="40" as="geometry" />
        </mxCell>
        <mxCell id="yyj0tZDYigyagbsJ4zw7-2" value="" style="html=1;verticalLabelPosition=bottom;align=center;labelBackgroundColor=#ffffff;verticalAlign=top;strokeWidth=2;strokeColor=#000000;shadow=0;dashed=0;shape=mxgraph.ios7.icons.share;rounded=0;glass=0;sketch=0;fontSize=14;fontColor=#000000;fillColor=none;" vertex="1" parent="EAO5DD-DaSagGoZDCt3w-1">
          <mxGeometry x="884.5" y="373.5" width="25" height="33" as="geometry" />
        </mxCell>
        <mxCell id="yyj0tZDYigyagbsJ4zw7-3" value="編集" style="whiteSpace=wrap;html=1;rounded=0;shadow=0;labelBackgroundColor=none;strokeWidth=1;fontFamily=Verdana;fontSize=14;align=center;comic=1;fillColor=none;strokeColor=none;verticalAlign=bottom;fontStyle=1" vertex="1" parent="EAO5DD-DaSagGoZDCt3w-1">
          <mxGeometry x="769.5" y="350" width="70" height="80" as="geometry" />
        </mxCell>
        <mxCell id="yyj0tZDYigyagbsJ4zw7-4" value="削除" style="whiteSpace=wrap;html=1;rounded=0;shadow=0;labelBackgroundColor=none;strokeWidth=1;fontFamily=Verdana;fontSize=14;align=center;comic=1;fillColor=none;strokeColor=none;verticalAlign=bottom;fontStyle=1" vertex="1" parent="EAO5DD-DaSagGoZDCt3w-1">
          <mxGeometry x="814.5" y="350" width="70" height="80" as="geometry" />
        </mxCell>
        <mxCell id="yyj0tZDYigyagbsJ4zw7-5" value="シェア" style="whiteSpace=wrap;html=1;rounded=0;shadow=0;labelBackgroundColor=none;strokeWidth=1;fontFamily=Verdana;fontSize=14;align=center;comic=1;fillColor=none;strokeColor=none;verticalAlign=bottom;fontStyle=1" vertex="1" parent="EAO5DD-DaSagGoZDCt3w-1">
          <mxGeometry x="862" y="350" width="70" height="80" as="geometry" />
        </mxCell>
        <mxCell id="labDvbkk5XKQDYXLtWgg-0" value="なまえ" style="rounded=1;whiteSpace=wrap;html=1;shadow=0;glass=0;sketch=0;fontSize=18;fontColor=#B3B3B3;strokeColor=#000000;fillColor=#F9F7ED;align=left;verticalAlign=middle;" vertex="1" parent="EAO5DD-DaSagGoZDCt3w-1">
          <mxGeometry x="680" y="270" width="300" height="40" as="geometry" />
        </mxCell>
        <mxCell id="labDvbkk5XKQDYXLtWgg-1" value="" style="html=1;verticalLabelPosition=bottom;align=center;labelBackgroundColor=#ffffff;verticalAlign=top;strokeWidth=2;strokeColor=#000000;shadow=0;dashed=0;shape=mxgraph.ios7.icons.looking_glass;rounded=1;glass=0;sketch=0;fontFamily=Helvetica;fontSize=36;fontColor=#B3B3B3;fillColor=#F9F7ED;aspect=fixed;" vertex="1" parent="EAO5DD-DaSagGoZDCt3w-1">
          <mxGeometry x="1004" y="270" width="36" height="36" as="geometry" />
        </mxCell>
        <mxCell id="labDvbkk5XKQDYXLtWgg-2" value="" style="whiteSpace=wrap;html=1;rounded=1;shadow=0;labelBackgroundColor=none;strokeWidth=1;fontFamily=Verdana;fontSize=12;align=center;comic=1;fillColor=#EF7C8E;strokeColor=#36393d;arcSize=3;" vertex="1" parent="EAO5DD-DaSagGoZDCt3w-1">
          <mxGeometry x="170" y="961" width="760" height="550" as="geometry" />
        </mxCell>
        <mxCell id="labDvbkk5XKQDYXLtWgg-3" value="" style="whiteSpace=wrap;html=1;rounded=0;shadow=0;labelBackgroundColor=none;strokeWidth=1;fontFamily=Verdana;fontSize=12;align=center;comic=1;fillColor=#F9F7ED;strokeColor=#36393d;" vertex="1" parent="EAO5DD-DaSagGoZDCt3w-1">
          <mxGeometry x="210" y="1047" width="680" height="420" as="geometry" />
        </mxCell>
        <mxCell id="labDvbkk5XKQDYXLtWgg-4" value="推し" style="sketch=0;outlineConnect=0;fontColor=#232F3E;gradientColor=none;strokeColor=default;fillColor=none;dashed=0;verticalLabelPosition=top;verticalAlign=bottom;align=center;html=1;fontSize=36;fontStyle=0;aspect=fixed;shape=mxgraph.aws4.resourceIcon;resIcon=mxgraph.aws4.user;rounded=1;shadow=0;glass=0;labelBackgroundColor=none;fontFamily=Helvetica;labelPosition=center;strokeWidth=1;" vertex="1" parent="EAO5DD-DaSagGoZDCt3w-1">
          <mxGeometry x="395" y="1127" width="310" height="310" as="geometry" />
        </mxCell>
        <mxCell id="labDvbkk5XKQDYXLtWgg-5" value="" style="whiteSpace=wrap;html=1;shape=mxgraph.basic.roundRectCallout;dx=30;dy=15;size=33.33;boundedLbl=1;rounded=1;shadow=0;glass=0;labelBackgroundColor=none;sketch=0;fontFamily=Helvetica;fontSize=36;fontColor=#000000;strokeColor=default;strokeWidth=1;fillColor=none;align=center;verticalAlign=middle;" vertex="1" parent="EAO5DD-DaSagGoZDCt3w-1">
          <mxGeometry x="630" y="1067" width="250" height="160" as="geometry" />
        </mxCell>
        <mxCell id="labDvbkk5XKQDYXLtWgg-6" value="" style="rounded=1;whiteSpace=wrap;html=1;shadow=0;glass=0;labelBackgroundColor=none;sketch=0;fontFamily=Helvetica;fontSize=36;fontColor=#000000;strokeColor=default;strokeWidth=1;fillColor=none;align=center;verticalAlign=middle;" vertex="1" parent="EAO5DD-DaSagGoZDCt3w-1">
          <mxGeometry x="410" y="1307" width="280" height="60" as="geometry" />
        </mxCell>
        <mxCell id="labDvbkk5XKQDYXLtWgg-7" value="" style="verticalLabelPosition=middle;verticalAlign=middle;html=1;shape=mxgraph.basic.8_point_star;rounded=1;shadow=0;glass=0;labelBackgroundColor=none;sketch=0;fontFamily=Helvetica;fontSize=36;fontColor=#000000;strokeColor=default;strokeWidth=1;fillColor=none;labelPosition=center;align=center;" vertex="1" parent="EAO5DD-DaSagGoZDCt3w-1">
          <mxGeometry x="220" y="1057" width="240" height="180" as="geometry" />
        </mxCell>
        <mxCell id="labDvbkk5XKQDYXLtWgg-8" value="" style="whiteSpace=wrap;html=1;aspect=fixed;rounded=1;shadow=0;glass=0;labelBackgroundColor=none;sketch=0;fontFamily=Helvetica;fontSize=36;fontColor=#000000;strokeColor=default;strokeWidth=1;fillColor=none;align=center;verticalAlign=middle;" vertex="1" parent="EAO5DD-DaSagGoZDCt3w-1">
          <mxGeometry x="229.75" y="1287" width="160" height="160" as="geometry" />
        </mxCell>
        <mxCell id="labDvbkk5XKQDYXLtWgg-9" value="" style="ellipse;whiteSpace=wrap;html=1;aspect=fixed;rounded=1;shadow=0;glass=0;labelBackgroundColor=none;sketch=0;fontFamily=Helvetica;fontSize=36;fontColor=#000000;strokeColor=default;strokeWidth=1;fillColor=none;align=center;verticalAlign=middle;" vertex="1" parent="EAO5DD-DaSagGoZDCt3w-1">
          <mxGeometry x="720" y="1267" width="140" height="140" as="geometry" />
        </mxCell>
        <mxCell id="labDvbkk5XKQDYXLtWgg-10" value="No.2　山田一郎" style="text;strokeColor=none;fillColor=none;html=1;fontSize=36;fontStyle=0;verticalAlign=middle;align=left;rounded=1;shadow=0;glass=0;sketch=0;fontColor=#000000;fontFamily=Dela Gothic One;fontSource=https%3A%2F%2Ffonts.googleapis.com%2Fcss%3Ffamily%3DDela%2BGothic%2BOne;" vertex="1" parent="EAO5DD-DaSagGoZDCt3w-1">
          <mxGeometry x="170" y="961" width="630" height="60" as="geometry" />
        </mxCell>
        <mxCell id="labDvbkk5XKQDYXLtWgg-11" value="" style="shape=image;html=1;verticalAlign=top;verticalLabelPosition=bottom;labelBackgroundColor=#ffffff;imageAspect=0;aspect=fixed;image=https://cdn4.iconfinder.com/data/icons/basic-user-interface-elements/700/edit-change-pencil-128.png;rounded=0;shadow=0;glass=0;sketch=0;fontSize=14;fontColor=#000000;strokeColor=#000000;fillColor=#FAE8E0;" vertex="1" parent="EAO5DD-DaSagGoZDCt3w-1">
          <mxGeometry x="791.5" y="975" width="30" height="30" as="geometry" />
        </mxCell>
        <mxCell id="labDvbkk5XKQDYXLtWgg-12" value="" style="shape=image;html=1;verticalAlign=top;verticalLabelPosition=bottom;labelBackgroundColor=#ffffff;imageAspect=0;aspect=fixed;image=https://cdn0.iconfinder.com/data/icons/simple-line-48px/48/trashcan-128.png;rounded=0;shadow=0;glass=0;sketch=0;fontSize=14;fontColor=#000000;strokeColor=#000000;fillColor=#FAE8E0;" vertex="1" parent="EAO5DD-DaSagGoZDCt3w-1">
          <mxGeometry x="831.5" y="970" width="40" height="40" as="geometry" />
        </mxCell>
        <mxCell id="labDvbkk5XKQDYXLtWgg-13" value="" style="html=1;verticalLabelPosition=bottom;align=center;labelBackgroundColor=#ffffff;verticalAlign=top;strokeWidth=2;strokeColor=#000000;shadow=0;dashed=0;shape=mxgraph.ios7.icons.share;rounded=0;glass=0;sketch=0;fontSize=14;fontColor=#000000;fillColor=none;" vertex="1" parent="EAO5DD-DaSagGoZDCt3w-1">
          <mxGeometry x="886.5" y="973.5" width="25" height="33" as="geometry" />
        </mxCell>
        <mxCell id="labDvbkk5XKQDYXLtWgg-14" value="編集" style="whiteSpace=wrap;html=1;rounded=0;shadow=0;labelBackgroundColor=none;strokeWidth=1;fontFamily=Verdana;fontSize=14;align=center;comic=1;fillColor=none;strokeColor=none;verticalAlign=bottom;fontStyle=1" vertex="1" parent="EAO5DD-DaSagGoZDCt3w-1">
          <mxGeometry x="771.5" y="950" width="70" height="80" as="geometry" />
        </mxCell>
        <mxCell id="labDvbkk5XKQDYXLtWgg-15" value="削除" style="whiteSpace=wrap;html=1;rounded=0;shadow=0;labelBackgroundColor=none;strokeWidth=1;fontFamily=Verdana;fontSize=14;align=center;comic=1;fillColor=none;strokeColor=none;verticalAlign=bottom;fontStyle=1" vertex="1" parent="EAO5DD-DaSagGoZDCt3w-1">
          <mxGeometry x="816.5" y="950" width="70" height="80" as="geometry" />
        </mxCell>
        <mxCell id="labDvbkk5XKQDYXLtWgg-16" value="シェア" style="whiteSpace=wrap;html=1;rounded=0;shadow=0;labelBackgroundColor=none;strokeWidth=1;fontFamily=Verdana;fontSize=14;align=center;comic=1;fillColor=none;strokeColor=none;verticalAlign=bottom;fontStyle=1" vertex="1" parent="EAO5DD-DaSagGoZDCt3w-1">
          <mxGeometry x="864" y="950" width="70" height="80" as="geometry" />
        </mxCell>
      </root>
    </mxGraphModel>
  </diagram>
  <diagram id="yDRhkAKJI-OtaGo9y9DY" name="推し(登録)">
    <mxGraphModel dx="1564" dy="1014" grid="1" gridSize="10" guides="1" tooltips="1" connect="1" arrows="1" fold="1" page="1" pageScale="1" pageWidth="1100" pageHeight="850" math="0" shadow="0">
      <root>
        <mxCell id="V_IwqD2T9gL6VyxvRgw3-0" />
        <mxCell id="V_IwqD2T9gL6VyxvRgw3-1" parent="V_IwqD2T9gL6VyxvRgw3-0" />
        <mxCell id="1g-RhqpIPhHzYfZserq5-0" value="" style="whiteSpace=wrap;html=1;rounded=0;shadow=0;labelBackgroundColor=none;strokeWidth=1;fontFamily=Verdana;fontSize=12;align=center;comic=1;strokeColor=#FAE8E0;fillColor=#FAE8E0;fontColor=#ffffff;" vertex="1" parent="V_IwqD2T9gL6VyxvRgw3-1">
          <mxGeometry x="20" y="20" width="1060" height="1800" as="geometry" />
        </mxCell>
        <mxCell id="1g-RhqpIPhHzYfZserq5-3" value="" style="whiteSpace=wrap;html=1;rounded=1;shadow=0;labelBackgroundColor=none;strokeWidth=1;fontFamily=Verdana;fontSize=12;align=center;comic=1;fillColor=#EF7C8E;strokeColor=#36393d;arcSize=3;" vertex="1" parent="V_IwqD2T9gL6VyxvRgw3-1">
          <mxGeometry x="90" y="300" width="920" height="1450" as="geometry" />
        </mxCell>
        <mxCell id="UM9AaXRK6sOM2A6H3WfU-0" value="" style="rounded=1;whiteSpace=wrap;html=1;shadow=0;glass=0;sketch=0;fontSize=18;fontColor=#000000;strokeColor=#000000;fillColor=#F9F7ED;align=center;verticalAlign=middle;arcSize=10;" vertex="1" parent="V_IwqD2T9gL6VyxvRgw3-1">
          <mxGeometry x="150" y="1150" width="800" height="340" as="geometry" />
        </mxCell>
        <mxCell id="1g-RhqpIPhHzYfZserq5-1" value="&lt;h2&gt;&lt;font face=&quot;Dela Gothic One&quot; data-font-src=&quot;https://fonts.googleapis.com/css?family=Dela+Gothic+One&quot;&gt;推しとお金と。&lt;/font&gt;&lt;/h2&gt;" style="whiteSpace=wrap;html=1;rounded=0;shadow=0;labelBackgroundColor=none;strokeWidth=1;fontFamily=Verdana;fontSize=28;align=center;comic=1;fillColor=none;strokeColor=none;" vertex="1" parent="V_IwqD2T9gL6VyxvRgw3-1">
          <mxGeometry x="40" y="40" width="300" height="80" as="geometry" />
        </mxCell>
        <mxCell id="1g-RhqpIPhHzYfZserq5-2" value="" style="line;strokeWidth=1;html=1;rounded=0;shadow=0;labelBackgroundColor=none;fillColor=none;fontFamily=Verdana;fontSize=14;fontColor=#000000;align=center;comic=1;" vertex="1" parent="V_IwqD2T9gL6VyxvRgw3-1">
          <mxGeometry x="20" y="140" width="1060" height="10" as="geometry" />
        </mxCell>
        <mxCell id="1g-RhqpIPhHzYfZserq5-5" value="" style="rounded=1;whiteSpace=wrap;html=1;shadow=0;glass=0;sketch=0;fontSize=18;fontColor=#000000;strokeColor=#000000;fillColor=#F9F7ED;align=center;verticalAlign=middle;" vertex="1" parent="V_IwqD2T9gL6VyxvRgw3-1">
          <mxGeometry x="150" y="350" width="800" height="40" as="geometry" />
        </mxCell>
        <mxCell id="1g-RhqpIPhHzYfZserq5-6" value="名前" style="text;strokeColor=none;fillColor=none;html=1;fontSize=18;fontStyle=0;verticalAlign=bottom;align=left;rounded=0;shadow=0;glass=0;sketch=0;fontColor=#000000;" vertex="1" parent="V_IwqD2T9gL6VyxvRgw3-1">
          <mxGeometry x="150" y="310" width="100" height="40" as="geometry" />
        </mxCell>
        <mxCell id="1g-RhqpIPhHzYfZserq5-8" value="生年月日" style="text;strokeColor=none;fillColor=none;html=1;fontSize=18;fontStyle=0;verticalAlign=bottom;align=left;rounded=0;shadow=0;glass=0;sketch=0;fontColor=#000000;" vertex="1" parent="V_IwqD2T9gL6VyxvRgw3-1">
          <mxGeometry x="150" y="410" width="100" height="40" as="geometry" />
        </mxCell>
        <mxCell id="1g-RhqpIPhHzYfZserq5-9" value="" style="rounded=1;whiteSpace=wrap;html=1;shadow=0;glass=0;sketch=0;fontSize=18;fontColor=#000000;strokeColor=#000000;fillColor=#F9F7ED;align=center;verticalAlign=middle;" vertex="1" parent="V_IwqD2T9gL6VyxvRgw3-1">
          <mxGeometry x="150" y="550" width="800" height="40" as="geometry" />
        </mxCell>
        <mxCell id="1g-RhqpIPhHzYfZserq5-10" value="血液型" style="text;strokeColor=none;fillColor=none;html=1;fontSize=18;fontStyle=0;verticalAlign=bottom;align=left;rounded=0;shadow=0;glass=0;sketch=0;fontColor=#000000;" vertex="1" parent="V_IwqD2T9gL6VyxvRgw3-1">
          <mxGeometry x="150" y="510" width="100" height="40" as="geometry" />
        </mxCell>
        <mxCell id="1g-RhqpIPhHzYfZserq5-11" value="" style="rounded=1;whiteSpace=wrap;html=1;shadow=0;glass=0;sketch=0;fontSize=18;fontColor=#000000;strokeColor=#000000;fillColor=#F9F7ED;align=center;verticalAlign=middle;" vertex="1" parent="V_IwqD2T9gL6VyxvRgw3-1">
          <mxGeometry x="150" y="650" width="800" height="40" as="geometry" />
        </mxCell>
        <mxCell id="1g-RhqpIPhHzYfZserq5-12" value="身長" style="text;strokeColor=none;fillColor=none;html=1;fontSize=18;fontStyle=0;verticalAlign=bottom;align=left;rounded=0;shadow=0;glass=0;sketch=0;fontColor=#000000;" vertex="1" parent="V_IwqD2T9gL6VyxvRgw3-1">
          <mxGeometry x="150" y="610" width="100" height="40" as="geometry" />
        </mxCell>
        <mxCell id="1g-RhqpIPhHzYfZserq5-14" value="グループ" style="text;strokeColor=none;fillColor=none;html=1;fontSize=18;fontStyle=0;verticalAlign=bottom;align=left;rounded=0;shadow=0;glass=0;sketch=0;fontColor=#000000;" vertex="1" parent="V_IwqD2T9gL6VyxvRgw3-1">
          <mxGeometry x="150" y="810" width="100" height="40" as="geometry" />
        </mxCell>
        <mxCell id="1g-RhqpIPhHzYfZserq5-15" value="ファイルの選択" style="rounded=0;whiteSpace=wrap;html=1;shadow=0;glass=0;sketch=0;fontSize=14;fontColor=#000000;strokeColor=#000000;fillColor=#F9F7ED;align=center;verticalAlign=middle;" vertex="1" parent="V_IwqD2T9gL6VyxvRgw3-1">
          <mxGeometry x="150" y="1550" width="120" height="40" as="geometry" />
        </mxCell>
        <mxCell id="1g-RhqpIPhHzYfZserq5-16" value="画像" style="text;strokeColor=none;fillColor=none;html=1;fontSize=18;fontStyle=0;verticalAlign=bottom;align=left;rounded=0;shadow=0;glass=0;sketch=0;fontColor=#000000;" vertex="1" parent="V_IwqD2T9gL6VyxvRgw3-1">
          <mxGeometry x="150" y="1510" width="100" height="40" as="geometry" />
        </mxCell>
        <mxCell id="1g-RhqpIPhHzYfZserq5-17" value="投稿" style="whiteSpace=wrap;html=1;rounded=0;shadow=0;labelBackgroundColor=none;strokeWidth=1;fontFamily=Verdana;fontSize=14;align=center;comic=1;fillColor=none;strokeColor=none;verticalAlign=bottom;fontStyle=1" vertex="1" parent="V_IwqD2T9gL6VyxvRgw3-1">
          <mxGeometry x="850" y="40" width="80" height="90" as="geometry" />
        </mxCell>
        <mxCell id="1g-RhqpIPhHzYfZserq5-18" value="わたし" style="whiteSpace=wrap;html=1;rounded=0;shadow=0;labelBackgroundColor=none;strokeWidth=1;fontFamily=Verdana;fontSize=14;align=center;comic=1;fillColor=none;strokeColor=none;verticalAlign=bottom;fontStyle=1" vertex="1" parent="V_IwqD2T9gL6VyxvRgw3-1">
          <mxGeometry x="980" y="40" width="80" height="90" as="geometry" />
        </mxCell>
        <mxCell id="1g-RhqpIPhHzYfZserq5-19" value="お金" style="whiteSpace=wrap;html=1;rounded=0;shadow=0;labelBackgroundColor=none;strokeWidth=1;fontFamily=Verdana;fontSize=14;align=center;comic=1;fillColor=none;strokeColor=none;verticalAlign=bottom;fontStyle=1" vertex="1" parent="V_IwqD2T9gL6VyxvRgw3-1">
          <mxGeometry x="910" y="40" width="80" height="90" as="geometry" />
        </mxCell>
        <mxCell id="1g-RhqpIPhHzYfZserq5-20" value="メモリー" style="whiteSpace=wrap;html=1;rounded=0;shadow=0;labelBackgroundColor=none;strokeWidth=1;fontFamily=Verdana;fontSize=14;align=center;comic=1;fillColor=none;strokeColor=none;verticalAlign=bottom;fontStyle=1" vertex="1" parent="V_IwqD2T9gL6VyxvRgw3-1">
          <mxGeometry x="780" y="40" width="80" height="90" as="geometry" />
        </mxCell>
        <mxCell id="1g-RhqpIPhHzYfZserq5-21" value="" style="html=1;verticalLabelPosition=bottom;align=center;labelBackgroundColor=default;verticalAlign=top;strokeWidth=2;strokeColor=#000000;shadow=0;dashed=0;shape=mxgraph.ios7.icons.edit;rounded=1;fontSize=18;fillColor=#B6E2D3;" vertex="1" parent="V_IwqD2T9gL6VyxvRgw3-1">
          <mxGeometry x="800" y="60" width="40" height="40" as="geometry" />
        </mxCell>
        <mxCell id="1g-RhqpIPhHzYfZserq5-22" value="" style="html=1;verticalLabelPosition=bottom;align=center;labelBackgroundColor=#ffffff;verticalAlign=top;strokeWidth=2;strokeColor=#000000;shadow=0;dashed=0;shape=mxgraph.ios7.icons.heart;rounded=1;fontSize=18;fillColor=#EF7C8E;" vertex="1" parent="V_IwqD2T9gL6VyxvRgw3-1">
          <mxGeometry x="730" y="65" width="40" height="40" as="geometry" />
        </mxCell>
        <mxCell id="1g-RhqpIPhHzYfZserq5-23" value="" style="html=1;verticalLabelPosition=bottom;align=center;labelBackgroundColor=#ffffff;verticalAlign=top;strokeWidth=2;strokeColor=#000000;shadow=0;dashed=0;shape=mxgraph.ios7.icons.calculator;rounded=0;sketch=0;fontSize=18;fillColor=#D8A7B1;" vertex="1" parent="V_IwqD2T9gL6VyxvRgw3-1">
          <mxGeometry x="935" y="65" width="30" height="40" as="geometry" />
        </mxCell>
        <mxCell id="1g-RhqpIPhHzYfZserq5-24" value="" style="html=1;verticalLabelPosition=bottom;align=center;labelBackgroundColor=#ffffff;verticalAlign=top;strokeWidth=2;strokeColor=#000000;shadow=0;dashed=0;shape=mxgraph.ios7.icons.user;rounded=0;sketch=0;fontSize=14;fillColor=none;" vertex="1" parent="V_IwqD2T9gL6VyxvRgw3-1">
          <mxGeometry x="1000" y="60" width="40" height="40" as="geometry" />
        </mxCell>
        <mxCell id="1g-RhqpIPhHzYfZserq5-25" value="" style="shape=image;html=1;verticalAlign=top;verticalLabelPosition=bottom;labelBackgroundColor=#ffffff;imageAspect=0;aspect=fixed;image=https://cdn4.iconfinder.com/data/icons/basic-user-interface-elements/700/edit-change-pencil-128.png;rounded=0;shadow=0;glass=0;sketch=0;fontSize=14;fontColor=#000000;strokeColor=#000000;fillColor=#FAE8E0;" vertex="1" parent="V_IwqD2T9gL6VyxvRgw3-1">
          <mxGeometry x="870" y="65" width="40" height="40" as="geometry" />
        </mxCell>
        <mxCell id="1g-RhqpIPhHzYfZserq5-26" value="推し" style="whiteSpace=wrap;html=1;rounded=0;shadow=0;labelBackgroundColor=none;strokeWidth=1;fontFamily=Verdana;fontSize=14;align=center;comic=1;fillColor=none;strokeColor=none;verticalAlign=bottom;fontStyle=1" vertex="1" parent="V_IwqD2T9gL6VyxvRgw3-1">
          <mxGeometry x="710" y="40" width="80" height="90" as="geometry" />
        </mxCell>
        <mxCell id="1g-RhqpIPhHzYfZserq5-28" value="" style="rounded=1;whiteSpace=wrap;html=1;shadow=0;glass=0;sketch=0;fontSize=18;fontColor=#000000;strokeColor=#000000;fillColor=#F9F7ED;align=center;verticalAlign=middle;" vertex="1" parent="V_IwqD2T9gL6VyxvRgw3-1">
          <mxGeometry x="150" y="750" width="800" height="40" as="geometry" />
        </mxCell>
        <mxCell id="1g-RhqpIPhHzYfZserq5-29" value="体重" style="text;strokeColor=none;fillColor=none;html=1;fontSize=18;fontStyle=0;verticalAlign=bottom;align=left;rounded=0;shadow=0;glass=0;sketch=0;fontColor=#000000;" vertex="1" parent="V_IwqD2T9gL6VyxvRgw3-1">
          <mxGeometry x="150" y="710" width="100" height="40" as="geometry" />
        </mxCell>
        <mxCell id="1g-RhqpIPhHzYfZserq5-30" value="推す" style="rounded=1;whiteSpace=wrap;html=1;shadow=0;glass=0;sketch=0;fontSize=18;fontColor=#000000;strokeColor=#000000;fillColor=#F9F7ED;align=center;verticalAlign=middle;" vertex="1" parent="V_IwqD2T9gL6VyxvRgw3-1">
          <mxGeometry x="495" y="1630" width="120" height="60" as="geometry" />
        </mxCell>
        <mxCell id="jsL28OMMZsDsMJ6W60AP-2" value="" style="line;strokeWidth=1;html=1;rounded=0;shadow=0;labelBackgroundColor=none;fillColor=none;fontFamily=Verdana;fontSize=14;fontColor=#000000;align=center;comic=1;" vertex="1" parent="V_IwqD2T9gL6VyxvRgw3-1">
          <mxGeometry x="20" y="240" width="1060" height="10" as="geometry" />
        </mxCell>
        <mxCell id="K-E-EDXvdHhmaU2-zyC--1" value="&lt;font face=&quot;Helvetica&quot;&gt;yyyy&lt;/font&gt;" style="strokeWidth=1;shadow=0;dashed=0;align=center;html=1;shape=mxgraph.mockup.forms.comboBox;align=left;fillColor2=#aaddff;mainText=;fontSize=17;spacingLeft=3;rounded=1;glass=0;sketch=0;fontFamily=Dela Gothic One;fontSource=https%3A%2F%2Ffonts.googleapis.com%2Fcss%3Ffamily%3DDela%2BGothic%2BOne;fillColor=#EF7C8E;strokeColor=#36393d;" vertex="1" parent="V_IwqD2T9gL6VyxvRgw3-1">
          <mxGeometry x="150" y="450" width="140" height="40" as="geometry" />
        </mxCell>
        <mxCell id="K-E-EDXvdHhmaU2-zyC--2" value="&lt;font face=&quot;Helvetica&quot;&gt;mm&lt;/font&gt;" style="strokeWidth=1;shadow=0;dashed=0;align=center;html=1;shape=mxgraph.mockup.forms.comboBox;strokeColor=#000000;fillColor=#EF7C8E;align=left;fillColor2=#aaddff;mainText=;fontColor=#666666;fontSize=17;spacingLeft=3;rounded=1;glass=0;sketch=0;fontFamily=Dela Gothic One;fontSource=https%3A%2F%2Ffonts.googleapis.com%2Fcss%3Ffamily%3DDela%2BGothic%2BOne;" vertex="1" parent="V_IwqD2T9gL6VyxvRgw3-1">
          <mxGeometry x="320" y="450" width="90" height="40" as="geometry" />
        </mxCell>
        <mxCell id="K-E-EDXvdHhmaU2-zyC--3" value="&lt;font face=&quot;Helvetica&quot;&gt;dd&lt;/font&gt;" style="strokeWidth=1;shadow=0;dashed=0;align=center;html=1;shape=mxgraph.mockup.forms.comboBox;strokeColor=#000000;fillColor=#EF7C8E;align=left;fillColor2=#aaddff;mainText=;fontColor=#666666;fontSize=17;spacingLeft=3;rounded=1;glass=0;sketch=0;fontFamily=Dela Gothic One;fontSource=https%3A%2F%2Ffonts.googleapis.com%2Fcss%3Ffamily%3DDela%2BGothic%2BOne;" vertex="1" parent="V_IwqD2T9gL6VyxvRgw3-1">
          <mxGeometry x="440" y="450" width="90" height="40" as="geometry" />
        </mxCell>
        <mxCell id="2pU_bKQ9xz3ssWsu1QEx-0" value="" style="rounded=1;whiteSpace=wrap;html=1;shadow=0;glass=0;sketch=0;fontSize=18;fontColor=#000000;strokeColor=#000000;fillColor=#F9F7ED;align=center;verticalAlign=middle;" vertex="1" parent="V_IwqD2T9gL6VyxvRgw3-1">
          <mxGeometry x="155" y="850" width="800" height="40" as="geometry" />
        </mxCell>
        <mxCell id="xW82NqjgRx4ATAuaPU2Y-0" value="&lt;font face=&quot;Helvetica&quot;&gt;yyyy&lt;/font&gt;" style="strokeWidth=1;shadow=0;dashed=0;align=center;html=1;shape=mxgraph.mockup.forms.comboBox;strokeColor=#000000;fillColor=#EF7C8E;align=left;fillColor2=#aaddff;mainText=;fontColor=#666666;fontSize=17;spacingLeft=3;rounded=1;glass=0;sketch=0;fontFamily=Dela Gothic One;fontSource=https%3A%2F%2Ffonts.googleapis.com%2Fcss%3Ffamily%3DDela%2BGothic%2BOne;" vertex="1" parent="V_IwqD2T9gL6VyxvRgw3-1">
          <mxGeometry x="150" y="950" width="140" height="40" as="geometry" />
        </mxCell>
        <mxCell id="xW82NqjgRx4ATAuaPU2Y-1" value="&lt;font face=&quot;Helvetica&quot;&gt;mm&lt;/font&gt;" style="strokeWidth=1;shadow=0;dashed=0;align=center;html=1;shape=mxgraph.mockup.forms.comboBox;strokeColor=#000000;fillColor=#EF7C8E;align=left;fillColor2=#aaddff;mainText=;fontColor=#666666;fontSize=17;spacingLeft=3;rounded=1;glass=0;sketch=0;fontFamily=Dela Gothic One;fontSource=https%3A%2F%2Ffonts.googleapis.com%2Fcss%3Ffamily%3DDela%2BGothic%2BOne;" vertex="1" parent="V_IwqD2T9gL6VyxvRgw3-1">
          <mxGeometry x="320" y="950" width="90" height="40" as="geometry" />
        </mxCell>
        <mxCell id="xW82NqjgRx4ATAuaPU2Y-2" value="&lt;font face=&quot;Helvetica&quot;&gt;dd&lt;/font&gt;" style="strokeWidth=1;shadow=0;dashed=0;align=center;html=1;shape=mxgraph.mockup.forms.comboBox;strokeColor=#000000;fillColor=#EF7C8E;align=left;fillColor2=#aaddff;mainText=;fontColor=#666666;fontSize=17;spacingLeft=3;rounded=1;glass=0;sketch=0;fontFamily=Dela Gothic One;fontSource=https%3A%2F%2Ffonts.googleapis.com%2Fcss%3Ffamily%3DDela%2BGothic%2BOne;" vertex="1" parent="V_IwqD2T9gL6VyxvRgw3-1">
          <mxGeometry x="440" y="950" width="90" height="40" as="geometry" />
        </mxCell>
        <mxCell id="xW82NqjgRx4ATAuaPU2Y-3" value="推し歴" style="text;strokeColor=none;fillColor=none;html=1;fontSize=18;fontStyle=0;verticalAlign=bottom;align=left;rounded=0;shadow=0;glass=0;sketch=0;fontColor=#000000;" vertex="1" parent="V_IwqD2T9gL6VyxvRgw3-1">
          <mxGeometry x="155" y="910" width="100" height="40" as="geometry" />
        </mxCell>
        <mxCell id="xW82NqjgRx4ATAuaPU2Y-4" value="&lt;table cellpadding=&quot;0&quot; cellspacing=&quot;0&quot; style=&quot;width: 100% ; height: 100%&quot;&gt;&lt;tbody&gt;&lt;tr&gt;&lt;td style=&quot;width: 85%&quot;&gt;&lt;font color=&quot;#000000&quot; style=&quot;background-color: rgb(249 , 247 , 237)&quot;&gt;100&lt;/font&gt;&lt;/td&gt;&lt;td style=&quot;width: 15%&quot;&gt;&lt;/td&gt;&lt;/tr&gt;&lt;/tbody&gt;&lt;/table&gt;" style="strokeWidth=1;shadow=0;dashed=0;align=left;html=1;shape=mxgraph.mockup.forms.spinner;strokeColor=#000000;spinLayout=right;spinStyle=normal;adjStyle=triangle;fillColor=#EF7C8E;fontSize=17;fontColor=#666666;mainText=;html=1;overflow=fill;rounded=1;glass=0;sketch=0;fontFamily=Helvetica;" vertex="1" parent="V_IwqD2T9gL6VyxvRgw3-1">
          <mxGeometry x="150" y="1050" width="150" height="40" as="geometry" />
        </mxCell>
        <mxCell id="xW82NqjgRx4ATAuaPU2Y-5" value="愛情度" style="text;strokeColor=none;fillColor=none;html=1;fontSize=18;fontStyle=0;verticalAlign=bottom;align=left;rounded=0;shadow=0;glass=0;sketch=0;fontColor=#000000;" vertex="1" parent="V_IwqD2T9gL6VyxvRgw3-1">
          <mxGeometry x="150" y="1010" width="100" height="40" as="geometry" />
        </mxCell>
        <mxCell id="UM9AaXRK6sOM2A6H3WfU-1" value="メモ" style="text;strokeColor=none;fillColor=none;html=1;fontSize=18;fontStyle=0;verticalAlign=bottom;align=left;rounded=0;shadow=0;glass=0;sketch=0;fontColor=#000000;" vertex="1" parent="V_IwqD2T9gL6VyxvRgw3-1">
          <mxGeometry x="150" y="1110" width="100" height="40" as="geometry" />
        </mxCell>
        <mxCell id="8XLPyAYVPGOLIlFVLPE_-0" value="テンプレート" style="whiteSpace=wrap;html=1;rounded=0;shadow=0;labelBackgroundColor=none;strokeWidth=1;fontFamily=Verdana;fontSize=14;align=center;comic=1;fillColor=none;strokeColor=none;verticalAlign=bottom;fontStyle=1" vertex="1" parent="V_IwqD2T9gL6VyxvRgw3-1">
          <mxGeometry x="250" y="150" width="95.5" height="90" as="geometry" />
        </mxCell>
        <mxCell id="8XLPyAYVPGOLIlFVLPE_-1" value="管理" style="whiteSpace=wrap;html=1;rounded=0;shadow=0;labelBackgroundColor=none;strokeWidth=1;fontFamily=Verdana;fontSize=14;align=center;comic=1;fillColor=none;strokeColor=none;verticalAlign=bottom;fontStyle=1" vertex="1" parent="V_IwqD2T9gL6VyxvRgw3-1">
          <mxGeometry x="170" y="150" width="80" height="90" as="geometry" />
        </mxCell>
        <mxCell id="8XLPyAYVPGOLIlFVLPE_-2" value="登録" style="whiteSpace=wrap;html=1;rounded=0;shadow=0;labelBackgroundColor=none;strokeWidth=1;fontFamily=Verdana;fontSize=14;align=center;comic=1;fillColor=none;strokeColor=none;verticalAlign=bottom;fontStyle=1" vertex="1" parent="V_IwqD2T9gL6VyxvRgw3-1">
          <mxGeometry x="17.5" y="150" width="80" height="90" as="geometry" />
        </mxCell>
        <mxCell id="8XLPyAYVPGOLIlFVLPE_-3" value="" style="html=1;verticalLabelPosition=bottom;align=center;labelBackgroundColor=#ffffff;verticalAlign=top;strokeWidth=2;strokeColor=#000000;shadow=0;dashed=0;shape=mxgraph.ios7.icons.heart;rounded=1;fontSize=18;fillColor=#EF7C8E;" vertex="1" parent="V_IwqD2T9gL6VyxvRgw3-1">
          <mxGeometry x="40" y="165" width="35" height="35" as="geometry" />
        </mxCell>
        <mxCell id="8XLPyAYVPGOLIlFVLPE_-4" value="" style="html=1;verticalLabelPosition=bottom;align=center;labelBackgroundColor=#ffffff;verticalAlign=top;strokeWidth=2;strokeColor=#000000;shadow=0;dashed=0;shape=mxgraph.ios7.icons.document;rounded=1;glass=0;sketch=0;fontFamily=Dela Gothic One;fontSource=https%3A%2F%2Ffonts.googleapis.com%2Fcss%3Ffamily%3DDela%2BGothic%2BOne;fontSize=36;fontColor=#000000;fillColor=#F9F7ED;" vertex="1" parent="V_IwqD2T9gL6VyxvRgw3-1">
          <mxGeometry x="280" y="168.5" width="29" height="38" as="geometry" />
        </mxCell>
        <mxCell id="8XLPyAYVPGOLIlFVLPE_-5" value="" style="html=1;verticalLabelPosition=bottom;align=center;labelBackgroundColor=#ffffff;verticalAlign=top;strokeWidth=2;strokeColor=#000000;shadow=0;dashed=0;shape=mxgraph.ios7.icons.star;rounded=1;glass=0;sketch=0;fontFamily=Helvetica;fontSize=36;fontColor=#B3B3B3;fillColor=#F9F7ED;aspect=fixed;" vertex="1" parent="V_IwqD2T9gL6VyxvRgw3-1">
          <mxGeometry x="110" y="165" width="40" height="36" as="geometry" />
        </mxCell>
        <mxCell id="8XLPyAYVPGOLIlFVLPE_-6" value="布教" style="whiteSpace=wrap;html=1;rounded=0;shadow=0;labelBackgroundColor=none;strokeWidth=1;fontFamily=Verdana;fontSize=14;align=center;comic=1;fillColor=none;strokeColor=none;verticalAlign=bottom;fontStyle=1" vertex="1" parent="V_IwqD2T9gL6VyxvRgw3-1">
          <mxGeometry x="90" y="150" width="80" height="90" as="geometry" />
        </mxCell>
        <mxCell id="8XLPyAYVPGOLIlFVLPE_-7" value="" style="html=1;verticalLabelPosition=bottom;align=center;labelBackgroundColor=#ffffff;verticalAlign=top;strokeWidth=2;strokeColor=#000000;shadow=0;dashed=0;shape=mxgraph.ios7.icons.settings;rounded=1;glass=0;sketch=0;fontFamily=Helvetica;fontSize=36;fontColor=#B3B3B3;fillColor=none;aspect=fixed;" vertex="1" parent="V_IwqD2T9gL6VyxvRgw3-1">
          <mxGeometry x="190" y="167.5" width="40" height="40" as="geometry" />
        </mxCell>
      </root>
    </mxGraphModel>
  </diagram>
  <diagram id="4jxS1Kb__FWgiKTRxrGW" name="テンプレート">
    <mxGraphModel dx="1564" dy="1014" grid="1" gridSize="10" guides="1" tooltips="1" connect="1" arrows="1" fold="1" page="1" pageScale="1" pageWidth="1100" pageHeight="850" math="0" shadow="0">
      <root>
        <mxCell id="hRgeRRiXF4tiRDkZnjOP-0" />
        <mxCell id="hRgeRRiXF4tiRDkZnjOP-1" parent="hRgeRRiXF4tiRDkZnjOP-0" />
        <mxCell id="rgk-98FIhKa2P4bortl9-0" value="" style="whiteSpace=wrap;html=1;rounded=0;shadow=0;labelBackgroundColor=none;strokeWidth=1;fontFamily=Verdana;fontSize=12;align=center;comic=1;strokeColor=#FAE8E0;fillColor=#FAE8E0;fontColor=#ffffff;" vertex="1" parent="hRgeRRiXF4tiRDkZnjOP-1">
          <mxGeometry x="20" y="20" width="1060" height="2120" as="geometry" />
        </mxCell>
        <mxCell id="rgk-98FIhKa2P4bortl9-1" value="" style="whiteSpace=wrap;html=1;rounded=1;shadow=0;labelBackgroundColor=none;strokeWidth=1;fontFamily=Verdana;fontSize=12;align=center;comic=1;fillColor=#EF7C8E;strokeColor=#36393d;arcSize=3;" vertex="1" parent="hRgeRRiXF4tiRDkZnjOP-1">
          <mxGeometry x="90" y="300" width="920" height="1710" as="geometry" />
        </mxCell>
        <mxCell id="Z2Cu88vicy0yn8XQziLB-0" value="" style="whiteSpace=wrap;html=1;rounded=0;shadow=0;labelBackgroundColor=none;strokeWidth=1;fontFamily=Verdana;fontSize=12;align=center;comic=1;fillColor=#F9F7ED;strokeColor=#36393d;" vertex="1" parent="hRgeRRiXF4tiRDkZnjOP-1">
          <mxGeometry x="220" y="490" width="680" height="420" as="geometry" />
        </mxCell>
        <mxCell id="rgk-98FIhKa2P4bortl9-3" value="&lt;h2&gt;&lt;font face=&quot;Dela Gothic One&quot; data-font-src=&quot;https://fonts.googleapis.com/css?family=Dela+Gothic+One&quot;&gt;推しとお金と。&lt;/font&gt;&lt;/h2&gt;" style="whiteSpace=wrap;html=1;rounded=0;shadow=0;labelBackgroundColor=none;strokeWidth=1;fontFamily=Verdana;fontSize=28;align=center;comic=1;fillColor=none;strokeColor=none;" vertex="1" parent="hRgeRRiXF4tiRDkZnjOP-1">
          <mxGeometry x="40" y="40" width="300" height="80" as="geometry" />
        </mxCell>
        <mxCell id="rgk-98FIhKa2P4bortl9-4" value="" style="line;strokeWidth=1;html=1;rounded=0;shadow=0;labelBackgroundColor=none;fillColor=none;fontFamily=Verdana;fontSize=14;fontColor=#000000;align=center;comic=1;" vertex="1" parent="hRgeRRiXF4tiRDkZnjOP-1">
          <mxGeometry x="20" y="140" width="1060" height="10" as="geometry" />
        </mxCell>
        <mxCell id="rgk-98FIhKa2P4bortl9-15" value="投稿" style="whiteSpace=wrap;html=1;rounded=0;shadow=0;labelBackgroundColor=none;strokeWidth=1;fontFamily=Verdana;fontSize=14;align=center;comic=1;fillColor=none;strokeColor=none;verticalAlign=bottom;fontStyle=1" vertex="1" parent="hRgeRRiXF4tiRDkZnjOP-1">
          <mxGeometry x="850" y="40" width="80" height="90" as="geometry" />
        </mxCell>
        <mxCell id="rgk-98FIhKa2P4bortl9-16" value="わたし" style="whiteSpace=wrap;html=1;rounded=0;shadow=0;labelBackgroundColor=none;strokeWidth=1;fontFamily=Verdana;fontSize=14;align=center;comic=1;fillColor=none;strokeColor=none;verticalAlign=bottom;fontStyle=1" vertex="1" parent="hRgeRRiXF4tiRDkZnjOP-1">
          <mxGeometry x="980" y="40" width="80" height="90" as="geometry" />
        </mxCell>
        <mxCell id="rgk-98FIhKa2P4bortl9-17" value="お金" style="whiteSpace=wrap;html=1;rounded=0;shadow=0;labelBackgroundColor=none;strokeWidth=1;fontFamily=Verdana;fontSize=14;align=center;comic=1;fillColor=none;strokeColor=none;verticalAlign=bottom;fontStyle=1" vertex="1" parent="hRgeRRiXF4tiRDkZnjOP-1">
          <mxGeometry x="910" y="40" width="80" height="90" as="geometry" />
        </mxCell>
        <mxCell id="rgk-98FIhKa2P4bortl9-18" value="メモリー" style="whiteSpace=wrap;html=1;rounded=0;shadow=0;labelBackgroundColor=none;strokeWidth=1;fontFamily=Verdana;fontSize=14;align=center;comic=1;fillColor=none;strokeColor=none;verticalAlign=bottom;fontStyle=1" vertex="1" parent="hRgeRRiXF4tiRDkZnjOP-1">
          <mxGeometry x="780" y="40" width="80" height="90" as="geometry" />
        </mxCell>
        <mxCell id="rgk-98FIhKa2P4bortl9-19" value="" style="html=1;verticalLabelPosition=bottom;align=center;labelBackgroundColor=default;verticalAlign=top;strokeWidth=2;strokeColor=#000000;shadow=0;dashed=0;shape=mxgraph.ios7.icons.edit;rounded=1;fontSize=18;fillColor=#B6E2D3;" vertex="1" parent="hRgeRRiXF4tiRDkZnjOP-1">
          <mxGeometry x="800" y="60" width="40" height="40" as="geometry" />
        </mxCell>
        <mxCell id="rgk-98FIhKa2P4bortl9-20" value="" style="html=1;verticalLabelPosition=bottom;align=center;labelBackgroundColor=#ffffff;verticalAlign=top;strokeWidth=2;strokeColor=#000000;shadow=0;dashed=0;shape=mxgraph.ios7.icons.heart;rounded=1;fontSize=18;fillColor=#EF7C8E;" vertex="1" parent="hRgeRRiXF4tiRDkZnjOP-1">
          <mxGeometry x="730" y="65" width="40" height="40" as="geometry" />
        </mxCell>
        <mxCell id="rgk-98FIhKa2P4bortl9-21" value="" style="html=1;verticalLabelPosition=bottom;align=center;labelBackgroundColor=#ffffff;verticalAlign=top;strokeWidth=2;strokeColor=#000000;shadow=0;dashed=0;shape=mxgraph.ios7.icons.calculator;rounded=0;sketch=0;fontSize=18;fillColor=#D8A7B1;" vertex="1" parent="hRgeRRiXF4tiRDkZnjOP-1">
          <mxGeometry x="935" y="65" width="30" height="40" as="geometry" />
        </mxCell>
        <mxCell id="rgk-98FIhKa2P4bortl9-22" value="" style="html=1;verticalLabelPosition=bottom;align=center;labelBackgroundColor=#ffffff;verticalAlign=top;strokeWidth=2;strokeColor=#000000;shadow=0;dashed=0;shape=mxgraph.ios7.icons.user;rounded=0;sketch=0;fontSize=14;fillColor=none;" vertex="1" parent="hRgeRRiXF4tiRDkZnjOP-1">
          <mxGeometry x="1000" y="60" width="40" height="40" as="geometry" />
        </mxCell>
        <mxCell id="rgk-98FIhKa2P4bortl9-23" value="" style="shape=image;html=1;verticalAlign=top;verticalLabelPosition=bottom;labelBackgroundColor=#ffffff;imageAspect=0;aspect=fixed;image=https://cdn4.iconfinder.com/data/icons/basic-user-interface-elements/700/edit-change-pencil-128.png;rounded=0;shadow=0;glass=0;sketch=0;fontSize=14;fontColor=#000000;strokeColor=#000000;fillColor=#FAE8E0;" vertex="1" parent="hRgeRRiXF4tiRDkZnjOP-1">
          <mxGeometry x="870" y="65" width="40" height="40" as="geometry" />
        </mxCell>
        <mxCell id="rgk-98FIhKa2P4bortl9-24" value="推し" style="whiteSpace=wrap;html=1;rounded=0;shadow=0;labelBackgroundColor=none;strokeWidth=1;fontFamily=Verdana;fontSize=14;align=center;comic=1;fillColor=none;strokeColor=none;verticalAlign=bottom;fontStyle=1" vertex="1" parent="hRgeRRiXF4tiRDkZnjOP-1">
          <mxGeometry x="710" y="40" width="80" height="90" as="geometry" />
        </mxCell>
        <mxCell id="rgk-98FIhKa2P4bortl9-30" value="" style="line;strokeWidth=1;html=1;rounded=0;shadow=0;labelBackgroundColor=none;fillColor=none;fontFamily=Verdana;fontSize=14;fontColor=#000000;align=center;comic=1;" vertex="1" parent="hRgeRRiXF4tiRDkZnjOP-1">
          <mxGeometry x="20" y="240" width="1060" height="10" as="geometry" />
        </mxCell>
        <mxCell id="rgk-98FIhKa2P4bortl9-46" value="推し" style="sketch=0;outlineConnect=0;fontColor=#232F3E;gradientColor=none;strokeColor=default;fillColor=none;dashed=0;verticalLabelPosition=top;verticalAlign=bottom;align=center;html=1;fontSize=36;fontStyle=0;aspect=fixed;shape=mxgraph.aws4.resourceIcon;resIcon=mxgraph.aws4.user;rounded=1;shadow=0;glass=0;labelBackgroundColor=none;fontFamily=Helvetica;labelPosition=center;strokeWidth=1;" vertex="1" parent="hRgeRRiXF4tiRDkZnjOP-1">
          <mxGeometry x="405" y="570" width="310" height="310" as="geometry" />
        </mxCell>
        <mxCell id="6JT9tqIPh7XNQWUt0dqf-0" value="推しをプレゼンしたい！&lt;br&gt;*テンプレート*" style="text;strokeColor=none;fillColor=none;html=1;fontSize=36;fontStyle=0;verticalAlign=middle;align=center;rounded=1;shadow=0;glass=0;sketch=0;fontColor=#000000;fontFamily=Dela Gothic One;fontSource=https%3A%2F%2Ffonts.googleapis.com%2Fcss%3Ffamily%3DDela%2BGothic%2BOne;" vertex="1" parent="hRgeRRiXF4tiRDkZnjOP-1">
          <mxGeometry x="190" y="340" width="720" height="140" as="geometry" />
        </mxCell>
        <mxCell id="6JT9tqIPh7XNQWUt0dqf-2" value="②" style="whiteSpace=wrap;html=1;shape=mxgraph.basic.roundRectCallout;dx=30;dy=15;size=33.33;boundedLbl=1;rounded=1;shadow=0;glass=0;labelBackgroundColor=none;sketch=0;fontFamily=Helvetica;fontSize=36;fontColor=#000000;strokeColor=default;strokeWidth=1;fillColor=none;align=center;verticalAlign=middle;" vertex="1" parent="hRgeRRiXF4tiRDkZnjOP-1">
          <mxGeometry x="640" y="510" width="250" height="160" as="geometry" />
        </mxCell>
        <mxCell id="6JT9tqIPh7XNQWUt0dqf-3" value="①" style="rounded=1;whiteSpace=wrap;html=1;shadow=0;glass=0;labelBackgroundColor=none;sketch=0;fontFamily=Helvetica;fontSize=36;fontColor=#000000;strokeColor=default;strokeWidth=1;fillColor=none;align=center;verticalAlign=middle;" vertex="1" parent="hRgeRRiXF4tiRDkZnjOP-1">
          <mxGeometry x="420" y="750" width="280" height="60" as="geometry" />
        </mxCell>
        <mxCell id="6JT9tqIPh7XNQWUt0dqf-4" value="③" style="verticalLabelPosition=middle;verticalAlign=middle;html=1;shape=mxgraph.basic.8_point_star;rounded=1;shadow=0;glass=0;labelBackgroundColor=none;sketch=0;fontFamily=Helvetica;fontSize=36;fontColor=#000000;strokeColor=default;strokeWidth=1;fillColor=none;labelPosition=center;align=center;" vertex="1" parent="hRgeRRiXF4tiRDkZnjOP-1">
          <mxGeometry x="230" y="500" width="240" height="180" as="geometry" />
        </mxCell>
        <mxCell id="6JT9tqIPh7XNQWUt0dqf-5" value="④" style="whiteSpace=wrap;html=1;aspect=fixed;rounded=1;shadow=0;glass=0;labelBackgroundColor=none;sketch=0;fontFamily=Helvetica;fontSize=36;fontColor=#000000;strokeColor=default;strokeWidth=1;fillColor=none;align=center;verticalAlign=middle;" vertex="1" parent="hRgeRRiXF4tiRDkZnjOP-1">
          <mxGeometry x="239.75" y="730" width="160" height="160" as="geometry" />
        </mxCell>
        <mxCell id="6JT9tqIPh7XNQWUt0dqf-6" value="⑤" style="ellipse;whiteSpace=wrap;html=1;aspect=fixed;rounded=1;shadow=0;glass=0;labelBackgroundColor=none;sketch=0;fontFamily=Helvetica;fontSize=36;fontColor=#000000;strokeColor=default;strokeWidth=1;fillColor=none;align=center;verticalAlign=middle;" vertex="1" parent="hRgeRRiXF4tiRDkZnjOP-1">
          <mxGeometry x="730" y="710" width="140" height="140" as="geometry" />
        </mxCell>
        <mxCell id="wmPMr7hbk_Yp9cvEVdws-0" value="推しの名前、年齢、呼称など" style="rounded=1;whiteSpace=wrap;html=1;shadow=0;glass=0;sketch=0;fontSize=18;fontColor=#B3B3B3;strokeColor=#000000;fillColor=#F9F7ED;align=left;verticalAlign=middle;" vertex="1" parent="hRgeRRiXF4tiRDkZnjOP-1">
          <mxGeometry x="220" y="990" width="680" height="120" as="geometry" />
        </mxCell>
        <mxCell id="wmPMr7hbk_Yp9cvEVdws-2" value="①" style="text;strokeColor=none;fillColor=none;html=1;fontSize=36;fontStyle=0;verticalAlign=middle;align=center;rounded=0;shadow=0;glass=0;sketch=0;fontColor=#000000;" vertex="1" parent="hRgeRRiXF4tiRDkZnjOP-1">
          <mxGeometry x="120" y="1020" width="100" height="60" as="geometry" />
        </mxCell>
        <mxCell id="wmPMr7hbk_Yp9cvEVdws-7" value="推しの歴史など" style="rounded=1;whiteSpace=wrap;html=1;shadow=0;glass=0;sketch=0;fontSize=18;fontColor=#B3B3B3;strokeColor=#000000;fillColor=#F9F7ED;align=left;verticalAlign=middle;" vertex="1" parent="hRgeRRiXF4tiRDkZnjOP-1">
          <mxGeometry x="220" y="1150" width="680" height="120" as="geometry" />
        </mxCell>
        <mxCell id="wmPMr7hbk_Yp9cvEVdws-8" value="②" style="text;strokeColor=none;fillColor=none;html=1;fontSize=36;fontStyle=0;verticalAlign=middle;align=center;rounded=0;shadow=0;glass=0;sketch=0;fontColor=#000000;" vertex="1" parent="hRgeRRiXF4tiRDkZnjOP-1">
          <mxGeometry x="120" y="1180" width="100" height="60" as="geometry" />
        </mxCell>
        <mxCell id="wmPMr7hbk_Yp9cvEVdws-9" value="いち推しなところ" style="rounded=1;whiteSpace=wrap;html=1;shadow=0;glass=0;sketch=0;fontSize=18;fontColor=#B3B3B3;strokeColor=#000000;fillColor=#F9F7ED;align=left;verticalAlign=middle;" vertex="1" parent="hRgeRRiXF4tiRDkZnjOP-1">
          <mxGeometry x="220" y="1310" width="680" height="120" as="geometry" />
        </mxCell>
        <mxCell id="wmPMr7hbk_Yp9cvEVdws-10" value="③" style="text;strokeColor=none;fillColor=none;html=1;fontSize=36;fontStyle=0;verticalAlign=middle;align=center;rounded=0;shadow=0;glass=0;sketch=0;fontColor=#000000;" vertex="1" parent="hRgeRRiXF4tiRDkZnjOP-1">
          <mxGeometry x="120" y="1340" width="100" height="60" as="geometry" />
        </mxCell>
        <mxCell id="wmPMr7hbk_Yp9cvEVdws-11" value="推しの導入方法（youtube、雑誌、TVなど）" style="rounded=1;whiteSpace=wrap;html=1;shadow=0;glass=0;sketch=0;fontSize=18;fontColor=#B3B3B3;strokeColor=#000000;fillColor=#F9F7ED;align=left;verticalAlign=middle;" vertex="1" parent="hRgeRRiXF4tiRDkZnjOP-1">
          <mxGeometry x="220" y="1470" width="680" height="120" as="geometry" />
        </mxCell>
        <mxCell id="wmPMr7hbk_Yp9cvEVdws-12" value="④" style="text;strokeColor=none;fillColor=none;html=1;fontSize=36;fontStyle=0;verticalAlign=middle;align=center;rounded=0;shadow=0;glass=0;sketch=0;fontColor=#000000;" vertex="1" parent="hRgeRRiXF4tiRDkZnjOP-1">
          <mxGeometry x="120" y="1500" width="100" height="60" as="geometry" />
        </mxCell>
        <mxCell id="wmPMr7hbk_Yp9cvEVdws-13" value="推しの近況など" style="rounded=1;whiteSpace=wrap;html=1;shadow=0;glass=0;sketch=0;fontSize=18;fontColor=#B3B3B3;strokeColor=#000000;fillColor=#F9F7ED;align=left;verticalAlign=middle;" vertex="1" parent="hRgeRRiXF4tiRDkZnjOP-1">
          <mxGeometry x="220" y="1630" width="680" height="120" as="geometry" />
        </mxCell>
        <mxCell id="wmPMr7hbk_Yp9cvEVdws-14" value="⑤" style="text;strokeColor=none;fillColor=none;html=1;fontSize=36;fontStyle=0;verticalAlign=middle;align=center;rounded=0;shadow=0;glass=0;sketch=0;fontColor=#000000;" vertex="1" parent="hRgeRRiXF4tiRDkZnjOP-1">
          <mxGeometry x="120" y="1660" width="100" height="60" as="geometry" />
        </mxCell>
        <mxCell id="6O9p4jofsNUrUgxMokmi-0" value="ファイルの選択" style="rounded=0;whiteSpace=wrap;html=1;shadow=0;glass=0;sketch=0;fontSize=14;fontColor=#000000;strokeColor=#000000;fillColor=#F9F7ED;align=center;verticalAlign=middle;" vertex="1" parent="hRgeRRiXF4tiRDkZnjOP-1">
          <mxGeometry x="220" y="1810" width="120" height="40" as="geometry" />
        </mxCell>
        <mxCell id="6O9p4jofsNUrUgxMokmi-1" value="画像" style="text;strokeColor=none;fillColor=none;html=1;fontSize=18;fontStyle=0;verticalAlign=bottom;align=left;rounded=0;shadow=0;glass=0;sketch=0;fontColor=#000000;" vertex="1" parent="hRgeRRiXF4tiRDkZnjOP-1">
          <mxGeometry x="220" y="1770" width="100" height="40" as="geometry" />
        </mxCell>
        <mxCell id="r1SY5JgNeeaRt4wTxRDd-0" value="作成" style="rounded=1;whiteSpace=wrap;html=1;shadow=0;glass=0;sketch=0;fontSize=18;fontColor=#000000;strokeColor=#000000;fillColor=#F9F7ED;align=center;verticalAlign=middle;" vertex="1" parent="hRgeRRiXF4tiRDkZnjOP-1">
          <mxGeometry x="490" y="1890" width="120" height="60" as="geometry" />
        </mxCell>
        <mxCell id="3TUdvgGC5KwzRYzV3ciy-0" value="テンプレート" style="whiteSpace=wrap;html=1;rounded=0;shadow=0;labelBackgroundColor=none;strokeWidth=1;fontFamily=Verdana;fontSize=14;align=center;comic=1;fillColor=none;strokeColor=none;verticalAlign=bottom;fontStyle=1" vertex="1" parent="hRgeRRiXF4tiRDkZnjOP-1">
          <mxGeometry x="250" y="150" width="95.5" height="90" as="geometry" />
        </mxCell>
        <mxCell id="3TUdvgGC5KwzRYzV3ciy-1" value="管理" style="whiteSpace=wrap;html=1;rounded=0;shadow=0;labelBackgroundColor=none;strokeWidth=1;fontFamily=Verdana;fontSize=14;align=center;comic=1;fillColor=none;strokeColor=none;verticalAlign=bottom;fontStyle=1" vertex="1" parent="hRgeRRiXF4tiRDkZnjOP-1">
          <mxGeometry x="170" y="150" width="80" height="90" as="geometry" />
        </mxCell>
        <mxCell id="3TUdvgGC5KwzRYzV3ciy-2" value="登録" style="whiteSpace=wrap;html=1;rounded=0;shadow=0;labelBackgroundColor=none;strokeWidth=1;fontFamily=Verdana;fontSize=14;align=center;comic=1;fillColor=none;strokeColor=none;verticalAlign=bottom;fontStyle=1" vertex="1" parent="hRgeRRiXF4tiRDkZnjOP-1">
          <mxGeometry x="17.5" y="150" width="80" height="90" as="geometry" />
        </mxCell>
        <mxCell id="3TUdvgGC5KwzRYzV3ciy-3" value="" style="html=1;verticalLabelPosition=bottom;align=center;labelBackgroundColor=#ffffff;verticalAlign=top;strokeWidth=2;strokeColor=#000000;shadow=0;dashed=0;shape=mxgraph.ios7.icons.heart;rounded=1;fontSize=18;fillColor=#EF7C8E;" vertex="1" parent="hRgeRRiXF4tiRDkZnjOP-1">
          <mxGeometry x="40" y="165" width="35" height="35" as="geometry" />
        </mxCell>
        <mxCell id="3TUdvgGC5KwzRYzV3ciy-4" value="" style="html=1;verticalLabelPosition=bottom;align=center;labelBackgroundColor=#ffffff;verticalAlign=top;strokeWidth=2;strokeColor=#000000;shadow=0;dashed=0;shape=mxgraph.ios7.icons.document;rounded=1;glass=0;sketch=0;fontFamily=Dela Gothic One;fontSource=https%3A%2F%2Ffonts.googleapis.com%2Fcss%3Ffamily%3DDela%2BGothic%2BOne;fontSize=36;fontColor=#000000;fillColor=#F9F7ED;" vertex="1" parent="hRgeRRiXF4tiRDkZnjOP-1">
          <mxGeometry x="280" y="168.5" width="29" height="38" as="geometry" />
        </mxCell>
        <mxCell id="3TUdvgGC5KwzRYzV3ciy-5" value="" style="html=1;verticalLabelPosition=bottom;align=center;labelBackgroundColor=#ffffff;verticalAlign=top;strokeWidth=2;strokeColor=#000000;shadow=0;dashed=0;shape=mxgraph.ios7.icons.star;rounded=1;glass=0;sketch=0;fontFamily=Helvetica;fontSize=36;fontColor=#B3B3B3;fillColor=#F9F7ED;aspect=fixed;" vertex="1" parent="hRgeRRiXF4tiRDkZnjOP-1">
          <mxGeometry x="110" y="165" width="40" height="36" as="geometry" />
        </mxCell>
        <mxCell id="3TUdvgGC5KwzRYzV3ciy-6" value="布教" style="whiteSpace=wrap;html=1;rounded=0;shadow=0;labelBackgroundColor=none;strokeWidth=1;fontFamily=Verdana;fontSize=14;align=center;comic=1;fillColor=none;strokeColor=none;verticalAlign=bottom;fontStyle=1" vertex="1" parent="hRgeRRiXF4tiRDkZnjOP-1">
          <mxGeometry x="90" y="150" width="80" height="90" as="geometry" />
        </mxCell>
        <mxCell id="3TUdvgGC5KwzRYzV3ciy-7" value="" style="html=1;verticalLabelPosition=bottom;align=center;labelBackgroundColor=#ffffff;verticalAlign=top;strokeWidth=2;strokeColor=#000000;shadow=0;dashed=0;shape=mxgraph.ios7.icons.settings;rounded=1;glass=0;sketch=0;fontFamily=Helvetica;fontSize=36;fontColor=#B3B3B3;fillColor=none;aspect=fixed;" vertex="1" parent="hRgeRRiXF4tiRDkZnjOP-1">
          <mxGeometry x="190" y="167.5" width="40" height="40" as="geometry" />
        </mxCell>
      </root>
    </mxGraphModel>
  </diagram>
  <diagram id="G6cHz7esb4AyavE_qPvH" name="お金">
    <mxGraphModel dx="2664" dy="1014" grid="1" gridSize="10" guides="1" tooltips="1" connect="1" arrows="1" fold="1" page="1" pageScale="1" pageWidth="1100" pageHeight="850" math="0" shadow="0">
      <root>
        <mxCell id="ZfhZnFQQtNWTFUW07ak9-0" />
        <mxCell id="ZfhZnFQQtNWTFUW07ak9-1" parent="ZfhZnFQQtNWTFUW07ak9-0" />
        <mxCell id="C_DBch8mnR4yNByRwwod-0" value="" style="whiteSpace=wrap;html=1;rounded=0;shadow=0;labelBackgroundColor=none;strokeWidth=1;fontFamily=Verdana;fontSize=12;align=center;comic=1;strokeColor=#FAE8E0;fillColor=#FAE8E0;fontColor=#ffffff;" vertex="1" parent="ZfhZnFQQtNWTFUW07ak9-1">
          <mxGeometry x="20" y="20" width="1060" height="2000" as="geometry" />
        </mxCell>
        <mxCell id="C_DBch8mnR4yNByRwwod-3" value="" style="whiteSpace=wrap;html=1;rounded=0;shadow=0;labelBackgroundColor=none;strokeWidth=2;fontFamily=Verdana;fontSize=12;align=center;comic=1;perimeterSpacing=0;strokeColor=#D8A7B1;fillColor=#D8A7B1;" vertex="1" parent="ZfhZnFQQtNWTFUW07ak9-1">
          <mxGeometry x="40" y="280" width="690" height="670" as="geometry" />
        </mxCell>
        <mxCell id="C_DBch8mnR4yNByRwwod-5" value="&lt;h2&gt;&lt;font face=&quot;Dela Gothic One&quot; data-font-src=&quot;https://fonts.googleapis.com/css?family=Dela+Gothic+One&quot;&gt;推しとお金と。&lt;/font&gt;&lt;/h2&gt;" style="whiteSpace=wrap;html=1;rounded=0;shadow=0;labelBackgroundColor=none;strokeWidth=1;fontFamily=Verdana;fontSize=28;align=center;comic=1;fillColor=none;strokeColor=none;" vertex="1" parent="ZfhZnFQQtNWTFUW07ak9-1">
          <mxGeometry x="40" y="40" width="300" height="80" as="geometry" />
        </mxCell>
        <mxCell id="C_DBch8mnR4yNByRwwod-6" value="" style="line;strokeWidth=1;html=1;rounded=0;shadow=0;labelBackgroundColor=none;fillColor=none;fontFamily=Verdana;fontSize=14;fontColor=#000000;align=center;comic=1;" vertex="1" parent="ZfhZnFQQtNWTFUW07ak9-1">
          <mxGeometry x="20" y="140" width="1060" height="10" as="geometry" />
        </mxCell>
        <mxCell id="C_DBch8mnR4yNByRwwod-7" value="" style="whiteSpace=wrap;html=1;rounded=0;shadow=0;labelBackgroundColor=none;strokeWidth=1;fontFamily=Verdana;fontSize=12;align=center;comic=1;fillColor=#F9F7ED;strokeColor=#36393d;" vertex="1" parent="ZfhZnFQQtNWTFUW07ak9-1">
          <mxGeometry x="750" y="280" width="310" height="310" as="geometry" />
        </mxCell>
        <mxCell id="C_DBch8mnR4yNByRwwod-8" value="カレンダー" style="text;html=1;points=[];align=center;verticalAlign=middle;spacingTop=-4;fontSize=14;fontFamily=Verdana" vertex="1" parent="ZfhZnFQQtNWTFUW07ak9-1">
          <mxGeometry x="820" y="425" width="170" height="20" as="geometry" />
        </mxCell>
        <mxCell id="C_DBch8mnR4yNByRwwod-9" value="" style="verticalLabelPosition=bottom;shadow=0;dashed=0;align=center;html=1;verticalAlign=top;strokeWidth=1;shape=mxgraph.mockup.graphics.pieChart;parts=10,20,35;partColors=#e0e0e0,#d0d0d0,#c0c0c0,#b0b0b0,#a0a0a0;strokeWidth=2;strokeColor=#E6E6E6;" vertex="1" parent="ZfhZnFQQtNWTFUW07ak9-1">
          <mxGeometry x="250" y="380" width="270" height="270" as="geometry" />
        </mxCell>
        <mxCell id="C_DBch8mnR4yNByRwwod-22" value="" style="verticalLabelPosition=bottom;shadow=0;dashed=0;align=center;html=1;verticalAlign=top;strokeWidth=1;shape=mxgraph.mockup.graphics.pieChart;parts=10,20,35;partColors=#e0e0e0,#d0d0d0,#c0c0c0,#b0b0b0,#a0a0a0;strokeWidth=2;strokeColor=#E6E6E6;" vertex="1" parent="ZfhZnFQQtNWTFUW07ak9-1">
          <mxGeometry x="-370" y="330" width="200" height="200" as="geometry" />
        </mxCell>
        <mxCell id="C_DBch8mnR4yNByRwwod-23" value="支出" style="text;html=1;points=[];align=center;verticalAlign=middle;spacingTop=-4;fontSize=20;fontFamily=Verdana;fontStyle=1" vertex="1" parent="ZfhZnFQQtNWTFUW07ak9-1">
          <mxGeometry x="95" y="340" width="170" height="40" as="geometry" />
        </mxCell>
        <mxCell id="C_DBch8mnR4yNByRwwod-24" value="推し貯金" style="text;html=1;points=[];align=center;verticalAlign=middle;spacingTop=-4;fontSize=20;fontFamily=Verdana;fontStyle=1" vertex="1" parent="ZfhZnFQQtNWTFUW07ak9-1">
          <mxGeometry x="-355" y="290" width="170" height="40" as="geometry" />
        </mxCell>
        <mxCell id="C_DBch8mnR4yNByRwwod-25" value="&lt;ul&gt;&lt;li&gt;コンサート&lt;/li&gt;&lt;li&gt;演劇&lt;/li&gt;&lt;li&gt;配信&lt;/li&gt;&lt;li&gt;CD&lt;/li&gt;&lt;li&gt;雑誌&lt;/li&gt;&lt;/ul&gt;" style="text;strokeColor=none;fillColor=none;html=1;whiteSpace=wrap;verticalAlign=top;overflow=hidden;rounded=0;shadow=0;sketch=0;fontSize=20;" vertex="1" parent="ZfhZnFQQtNWTFUW07ak9-1">
          <mxGeometry x="50" y="630" width="260" height="200" as="geometry" />
        </mxCell>
        <mxCell id="C_DBch8mnR4yNByRwwod-26" value="&lt;ul&gt;&lt;li&gt;コンサート&lt;/li&gt;&lt;li&gt;主演舞台&lt;/li&gt;&lt;li&gt;TV出演(グループ)&lt;/li&gt;&lt;li&gt;TV出演(単発)&lt;/li&gt;&lt;li&gt;雑誌(グループ)&lt;/li&gt;&lt;li&gt;雑誌(単発)&lt;/li&gt;&lt;/ul&gt;" style="text;strokeColor=none;fillColor=none;html=1;whiteSpace=wrap;verticalAlign=top;overflow=hidden;rounded=0;shadow=0;sketch=0;fontSize=20;" vertex="1" parent="ZfhZnFQQtNWTFUW07ak9-1">
          <mxGeometry x="-370" y="600" width="260" height="200" as="geometry" />
        </mxCell>
        <mxCell id="C_DBch8mnR4yNByRwwod-32" value="投稿" style="whiteSpace=wrap;html=1;rounded=0;shadow=0;labelBackgroundColor=none;strokeWidth=1;fontFamily=Verdana;fontSize=14;align=center;comic=1;fillColor=none;strokeColor=none;verticalAlign=bottom;fontStyle=1" vertex="1" parent="ZfhZnFQQtNWTFUW07ak9-1">
          <mxGeometry x="850" y="40" width="80" height="90" as="geometry" />
        </mxCell>
        <mxCell id="C_DBch8mnR4yNByRwwod-33" value="わたし" style="whiteSpace=wrap;html=1;rounded=0;shadow=0;labelBackgroundColor=none;strokeWidth=1;fontFamily=Verdana;fontSize=14;align=center;comic=1;fillColor=none;strokeColor=none;verticalAlign=bottom;fontStyle=1" vertex="1" parent="ZfhZnFQQtNWTFUW07ak9-1">
          <mxGeometry x="980" y="40" width="80" height="90" as="geometry" />
        </mxCell>
        <mxCell id="C_DBch8mnR4yNByRwwod-34" value="お金" style="whiteSpace=wrap;html=1;rounded=0;shadow=0;labelBackgroundColor=none;strokeWidth=1;fontFamily=Verdana;fontSize=14;align=center;comic=1;fillColor=none;strokeColor=none;verticalAlign=bottom;fontStyle=1" vertex="1" parent="ZfhZnFQQtNWTFUW07ak9-1">
          <mxGeometry x="910" y="40" width="80" height="90" as="geometry" />
        </mxCell>
        <mxCell id="C_DBch8mnR4yNByRwwod-35" value="メモリー" style="whiteSpace=wrap;html=1;rounded=0;shadow=0;labelBackgroundColor=none;strokeWidth=1;fontFamily=Verdana;fontSize=14;align=center;comic=1;fillColor=none;strokeColor=none;verticalAlign=bottom;fontStyle=1" vertex="1" parent="ZfhZnFQQtNWTFUW07ak9-1">
          <mxGeometry x="780" y="40" width="80" height="90" as="geometry" />
        </mxCell>
        <mxCell id="C_DBch8mnR4yNByRwwod-36" value="" style="html=1;verticalLabelPosition=bottom;align=center;labelBackgroundColor=default;verticalAlign=top;strokeWidth=2;strokeColor=#000000;shadow=0;dashed=0;shape=mxgraph.ios7.icons.edit;rounded=1;fontSize=18;fillColor=#B6E2D3;" vertex="1" parent="ZfhZnFQQtNWTFUW07ak9-1">
          <mxGeometry x="800" y="60" width="40" height="40" as="geometry" />
        </mxCell>
        <mxCell id="C_DBch8mnR4yNByRwwod-37" value="" style="html=1;verticalLabelPosition=bottom;align=center;labelBackgroundColor=#ffffff;verticalAlign=top;strokeWidth=2;strokeColor=#000000;shadow=0;dashed=0;shape=mxgraph.ios7.icons.heart;rounded=1;fontSize=18;fillColor=#EF7C8E;" vertex="1" parent="ZfhZnFQQtNWTFUW07ak9-1">
          <mxGeometry x="730" y="65" width="40" height="40" as="geometry" />
        </mxCell>
        <mxCell id="C_DBch8mnR4yNByRwwod-38" value="" style="html=1;verticalLabelPosition=bottom;align=center;labelBackgroundColor=#ffffff;verticalAlign=top;strokeWidth=2;strokeColor=#000000;shadow=0;dashed=0;shape=mxgraph.ios7.icons.calculator;rounded=0;sketch=0;fontSize=18;fillColor=#D8A7B1;" vertex="1" parent="ZfhZnFQQtNWTFUW07ak9-1">
          <mxGeometry x="935" y="65" width="30" height="40" as="geometry" />
        </mxCell>
        <mxCell id="C_DBch8mnR4yNByRwwod-39" value="" style="html=1;verticalLabelPosition=bottom;align=center;labelBackgroundColor=#ffffff;verticalAlign=top;strokeWidth=2;strokeColor=#000000;shadow=0;dashed=0;shape=mxgraph.ios7.icons.user;rounded=0;sketch=0;fontSize=14;fillColor=none;" vertex="1" parent="ZfhZnFQQtNWTFUW07ak9-1">
          <mxGeometry x="1000" y="60" width="40" height="40" as="geometry" />
        </mxCell>
        <mxCell id="C_DBch8mnR4yNByRwwod-40" value="" style="shape=image;html=1;verticalAlign=top;verticalLabelPosition=bottom;labelBackgroundColor=#ffffff;imageAspect=0;aspect=fixed;image=https://cdn4.iconfinder.com/data/icons/basic-user-interface-elements/700/edit-change-pencil-128.png;rounded=0;shadow=0;glass=0;sketch=0;fontSize=14;fontColor=#000000;strokeColor=#000000;fillColor=#FAE8E0;" vertex="1" parent="ZfhZnFQQtNWTFUW07ak9-1">
          <mxGeometry x="870" y="65" width="40" height="40" as="geometry" />
        </mxCell>
        <mxCell id="C_DBch8mnR4yNByRwwod-41" value="推し" style="whiteSpace=wrap;html=1;rounded=0;shadow=0;labelBackgroundColor=none;strokeWidth=1;fontFamily=Verdana;fontSize=14;align=center;comic=1;fillColor=none;strokeColor=none;verticalAlign=bottom;fontStyle=1" vertex="1" parent="ZfhZnFQQtNWTFUW07ak9-1">
          <mxGeometry x="710" y="40" width="80" height="90" as="geometry" />
        </mxCell>
        <mxCell id="Y7XKIxuCHvLJ8Twfpmdj-0" value="" style="line;strokeWidth=1;html=1;rounded=0;shadow=0;labelBackgroundColor=none;fillColor=none;fontFamily=Verdana;fontSize=14;fontColor=#000000;align=center;comic=1;" vertex="1" parent="ZfhZnFQQtNWTFUW07ak9-1">
          <mxGeometry x="20" y="240" width="1060" height="10" as="geometry" />
        </mxCell>
        <mxCell id="DTGl0F9F3u3dVnrKUhnK-0" value="" style="html=1;verticalLabelPosition=bottom;align=center;labelBackgroundColor=#ffffff;verticalAlign=top;strokeWidth=2;strokeColor=#000000;shadow=0;dashed=0;shape=mxgraph.ios7.icons.add;rounded=1;glass=0;sketch=0;fontFamily=Helvetica;fontSize=36;fontColor=#B3B3B3;fillColor=none;" vertex="1" parent="ZfhZnFQQtNWTFUW07ak9-1">
          <mxGeometry x="40" y="170" width="38" height="38" as="geometry" />
        </mxCell>
        <mxCell id="yMEoOlV1D0Q5SVToGIHl-0" value="登録" style="whiteSpace=wrap;html=1;rounded=0;shadow=0;labelBackgroundColor=none;strokeWidth=1;fontFamily=Verdana;fontSize=14;align=center;comic=1;fillColor=none;strokeColor=none;verticalAlign=bottom;fontStyle=1" vertex="1" parent="ZfhZnFQQtNWTFUW07ak9-1">
          <mxGeometry x="17.5" y="150" width="80" height="90" as="geometry" />
        </mxCell>
      </root>
    </mxGraphModel>
  </diagram>
  <diagram id="-xBKWQGmTzj6vxfKPFOl" name="支出登録">
    <mxGraphModel dx="1564" dy="1014" grid="1" gridSize="10" guides="1" tooltips="1" connect="1" arrows="1" fold="1" page="1" pageScale="1" pageWidth="1100" pageHeight="850" math="0" shadow="0">
      <root>
        <mxCell id="gwvg8uNBuPo6gLA4PZST-0" />
        <mxCell id="gwvg8uNBuPo6gLA4PZST-1" parent="gwvg8uNBuPo6gLA4PZST-0" />
        <mxCell id="_mQRebowFk87-mh-8_Hl-0" value="" style="whiteSpace=wrap;html=1;rounded=0;shadow=0;labelBackgroundColor=none;strokeWidth=1;fontFamily=Verdana;fontSize=12;align=center;comic=1;strokeColor=#FAE8E0;fillColor=#FAE8E0;fontColor=#ffffff;" vertex="1" parent="gwvg8uNBuPo6gLA4PZST-1">
          <mxGeometry x="20" y="20" width="1060" height="2000" as="geometry" />
        </mxCell>
        <mxCell id="_mQRebowFk87-mh-8_Hl-1" value="" style="whiteSpace=wrap;html=1;rounded=1;shadow=0;labelBackgroundColor=none;strokeWidth=2;fontFamily=Verdana;fontSize=12;align=center;comic=1;perimeterSpacing=0;strokeColor=#D8A7B1;fillColor=#D8A7B1;arcSize=7;" vertex="1" parent="gwvg8uNBuPo6gLA4PZST-1">
          <mxGeometry x="65" y="310" width="970" height="670" as="geometry" />
        </mxCell>
        <mxCell id="_mQRebowFk87-mh-8_Hl-2" value="&lt;h2&gt;&lt;font face=&quot;Dela Gothic One&quot; data-font-src=&quot;https://fonts.googleapis.com/css?family=Dela+Gothic+One&quot;&gt;推しとお金と。&lt;/font&gt;&lt;/h2&gt;" style="whiteSpace=wrap;html=1;rounded=0;shadow=0;labelBackgroundColor=none;strokeWidth=1;fontFamily=Verdana;fontSize=28;align=center;comic=1;fillColor=none;strokeColor=none;" vertex="1" parent="gwvg8uNBuPo6gLA4PZST-1">
          <mxGeometry x="40" y="40" width="300" height="80" as="geometry" />
        </mxCell>
        <mxCell id="_mQRebowFk87-mh-8_Hl-3" value="" style="line;strokeWidth=1;html=1;rounded=0;shadow=0;labelBackgroundColor=none;fillColor=none;fontFamily=Verdana;fontSize=14;fontColor=#000000;align=center;comic=1;" vertex="1" parent="gwvg8uNBuPo6gLA4PZST-1">
          <mxGeometry x="20" y="140" width="1060" height="10" as="geometry" />
        </mxCell>
        <mxCell id="_mQRebowFk87-mh-8_Hl-12" value="投稿" style="whiteSpace=wrap;html=1;rounded=0;shadow=0;labelBackgroundColor=none;strokeWidth=1;fontFamily=Verdana;fontSize=14;align=center;comic=1;fillColor=none;strokeColor=none;verticalAlign=bottom;fontStyle=1" vertex="1" parent="gwvg8uNBuPo6gLA4PZST-1">
          <mxGeometry x="850" y="40" width="80" height="90" as="geometry" />
        </mxCell>
        <mxCell id="_mQRebowFk87-mh-8_Hl-13" value="わたし" style="whiteSpace=wrap;html=1;rounded=0;shadow=0;labelBackgroundColor=none;strokeWidth=1;fontFamily=Verdana;fontSize=14;align=center;comic=1;fillColor=none;strokeColor=none;verticalAlign=bottom;fontStyle=1" vertex="1" parent="gwvg8uNBuPo6gLA4PZST-1">
          <mxGeometry x="980" y="40" width="80" height="90" as="geometry" />
        </mxCell>
        <mxCell id="_mQRebowFk87-mh-8_Hl-14" value="お金" style="whiteSpace=wrap;html=1;rounded=0;shadow=0;labelBackgroundColor=none;strokeWidth=1;fontFamily=Verdana;fontSize=14;align=center;comic=1;fillColor=none;strokeColor=none;verticalAlign=bottom;fontStyle=1" vertex="1" parent="gwvg8uNBuPo6gLA4PZST-1">
          <mxGeometry x="910" y="40" width="80" height="90" as="geometry" />
        </mxCell>
        <mxCell id="_mQRebowFk87-mh-8_Hl-15" value="メモリー" style="whiteSpace=wrap;html=1;rounded=0;shadow=0;labelBackgroundColor=none;strokeWidth=1;fontFamily=Verdana;fontSize=14;align=center;comic=1;fillColor=none;strokeColor=none;verticalAlign=bottom;fontStyle=1" vertex="1" parent="gwvg8uNBuPo6gLA4PZST-1">
          <mxGeometry x="780" y="40" width="80" height="90" as="geometry" />
        </mxCell>
        <mxCell id="_mQRebowFk87-mh-8_Hl-16" value="" style="html=1;verticalLabelPosition=bottom;align=center;labelBackgroundColor=default;verticalAlign=top;strokeWidth=2;strokeColor=#000000;shadow=0;dashed=0;shape=mxgraph.ios7.icons.edit;rounded=1;fontSize=18;fillColor=#B6E2D3;" vertex="1" parent="gwvg8uNBuPo6gLA4PZST-1">
          <mxGeometry x="800" y="60" width="40" height="40" as="geometry" />
        </mxCell>
        <mxCell id="_mQRebowFk87-mh-8_Hl-17" value="" style="html=1;verticalLabelPosition=bottom;align=center;labelBackgroundColor=#ffffff;verticalAlign=top;strokeWidth=2;strokeColor=#000000;shadow=0;dashed=0;shape=mxgraph.ios7.icons.heart;rounded=1;fontSize=18;fillColor=#EF7C8E;" vertex="1" parent="gwvg8uNBuPo6gLA4PZST-1">
          <mxGeometry x="730" y="65" width="40" height="40" as="geometry" />
        </mxCell>
        <mxCell id="_mQRebowFk87-mh-8_Hl-18" value="" style="html=1;verticalLabelPosition=bottom;align=center;labelBackgroundColor=#ffffff;verticalAlign=top;strokeWidth=2;strokeColor=#000000;shadow=0;dashed=0;shape=mxgraph.ios7.icons.calculator;rounded=0;sketch=0;fontSize=18;fillColor=#D8A7B1;" vertex="1" parent="gwvg8uNBuPo6gLA4PZST-1">
          <mxGeometry x="935" y="65" width="30" height="40" as="geometry" />
        </mxCell>
        <mxCell id="_mQRebowFk87-mh-8_Hl-19" value="" style="html=1;verticalLabelPosition=bottom;align=center;labelBackgroundColor=#ffffff;verticalAlign=top;strokeWidth=2;strokeColor=#000000;shadow=0;dashed=0;shape=mxgraph.ios7.icons.user;rounded=0;sketch=0;fontSize=14;fillColor=none;" vertex="1" parent="gwvg8uNBuPo6gLA4PZST-1">
          <mxGeometry x="1000" y="60" width="40" height="40" as="geometry" />
        </mxCell>
        <mxCell id="_mQRebowFk87-mh-8_Hl-20" value="" style="shape=image;html=1;verticalAlign=top;verticalLabelPosition=bottom;labelBackgroundColor=#ffffff;imageAspect=0;aspect=fixed;image=https://cdn4.iconfinder.com/data/icons/basic-user-interface-elements/700/edit-change-pencil-128.png;rounded=0;shadow=0;glass=0;sketch=0;fontSize=14;fontColor=#000000;strokeColor=#000000;fillColor=#FAE8E0;" vertex="1" parent="gwvg8uNBuPo6gLA4PZST-1">
          <mxGeometry x="870" y="65" width="40" height="40" as="geometry" />
        </mxCell>
        <mxCell id="_mQRebowFk87-mh-8_Hl-21" value="推し" style="whiteSpace=wrap;html=1;rounded=0;shadow=0;labelBackgroundColor=none;strokeWidth=1;fontFamily=Verdana;fontSize=14;align=center;comic=1;fillColor=none;strokeColor=none;verticalAlign=bottom;fontStyle=1" vertex="1" parent="gwvg8uNBuPo6gLA4PZST-1">
          <mxGeometry x="710" y="40" width="80" height="90" as="geometry" />
        </mxCell>
        <mxCell id="_mQRebowFk87-mh-8_Hl-22" value="" style="line;strokeWidth=1;html=1;rounded=0;shadow=0;labelBackgroundColor=none;fillColor=none;fontFamily=Verdana;fontSize=14;fontColor=#000000;align=center;comic=1;" vertex="1" parent="gwvg8uNBuPo6gLA4PZST-1">
          <mxGeometry x="20" y="240" width="1060" height="10" as="geometry" />
        </mxCell>
        <mxCell id="_mQRebowFk87-mh-8_Hl-23" value="" style="html=1;verticalLabelPosition=bottom;align=center;labelBackgroundColor=#ffffff;verticalAlign=top;strokeWidth=2;strokeColor=#000000;shadow=0;dashed=0;shape=mxgraph.ios7.icons.add;rounded=1;glass=0;sketch=0;fontFamily=Helvetica;fontSize=36;fontColor=#B3B3B3;fillColor=none;" vertex="1" parent="gwvg8uNBuPo6gLA4PZST-1">
          <mxGeometry x="40" y="170" width="38" height="38" as="geometry" />
        </mxCell>
        <mxCell id="_mQRebowFk87-mh-8_Hl-24" value="登録" style="whiteSpace=wrap;html=1;rounded=0;shadow=0;labelBackgroundColor=none;strokeWidth=1;fontFamily=Verdana;fontSize=14;align=center;comic=1;fillColor=none;strokeColor=none;verticalAlign=bottom;fontStyle=1" vertex="1" parent="gwvg8uNBuPo6gLA4PZST-1">
          <mxGeometry x="17.5" y="150" width="80" height="90" as="geometry" />
        </mxCell>
        <mxCell id="SM5gZvyxvLB8_l2vx1VV-0" value="" style="rounded=1;whiteSpace=wrap;html=1;shadow=0;glass=0;sketch=0;fontSize=18;fontColor=#000000;strokeColor=#000000;fillColor=#F9F7ED;align=center;verticalAlign=middle;" vertex="1" parent="gwvg8uNBuPo6gLA4PZST-1">
          <mxGeometry x="85" y="355" width="210" height="40" as="geometry" />
        </mxCell>
        <mxCell id="SM5gZvyxvLB8_l2vx1VV-9" value="ファイルの選択" style="rounded=0;whiteSpace=wrap;html=1;shadow=0;glass=0;sketch=0;fontSize=14;fontColor=#000000;strokeColor=#000000;fillColor=#F9F7ED;align=center;verticalAlign=middle;" vertex="1" parent="gwvg8uNBuPo6gLA4PZST-1">
          <mxGeometry x="195" y="800" width="120" height="40" as="geometry" />
        </mxCell>
        <mxCell id="SM5gZvyxvLB8_l2vx1VV-10" value="画像" style="text;strokeColor=none;fillColor=none;html=1;fontSize=18;fontStyle=0;verticalAlign=middle;align=right;rounded=0;shadow=0;glass=0;sketch=0;fontColor=#000000;" vertex="1" parent="gwvg8uNBuPo6gLA4PZST-1">
          <mxGeometry x="85" y="800" width="100" height="40" as="geometry" />
        </mxCell>
        <mxCell id="SM5gZvyxvLB8_l2vx1VV-13" value="作成" style="rounded=1;whiteSpace=wrap;html=1;shadow=0;glass=0;sketch=0;fontSize=18;fontColor=#000000;strokeColor=#000000;fillColor=#F9F7ED;align=center;verticalAlign=middle;" vertex="1" parent="gwvg8uNBuPo6gLA4PZST-1">
          <mxGeometry x="490" y="880" width="120" height="60" as="geometry" />
        </mxCell>
        <mxCell id="9KSS2Ekjr-VTVriNil9r-0" value="支出" style="rounded=1;whiteSpace=wrap;html=1;shadow=0;glass=0;sketch=0;fontSize=18;fontColor=#000000;strokeColor=#000000;fillColor=#D8A7B1;align=center;verticalAlign=middle;" vertex="1" parent="gwvg8uNBuPo6gLA4PZST-1">
          <mxGeometry x="85" y="270" width="120" height="40" as="geometry" />
        </mxCell>
        <mxCell id="9KSS2Ekjr-VTVriNil9r-1" value="項目" style="text;strokeColor=none;fillColor=none;html=1;fontSize=18;fontStyle=0;verticalAlign=bottom;align=left;rounded=0;shadow=0;glass=0;sketch=0;fontColor=#000000;" vertex="1" parent="gwvg8uNBuPo6gLA4PZST-1">
          <mxGeometry x="85" y="315" width="100" height="40" as="geometry" />
        </mxCell>
        <mxCell id="9KSS2Ekjr-VTVriNil9r-2" value="推し貯金" style="rounded=1;whiteSpace=wrap;html=1;shadow=0;glass=0;sketch=0;fontSize=18;fontColor=#000000;strokeColor=#000000;fillColor=#F9F7ED;align=center;verticalAlign=middle;" vertex="1" parent="gwvg8uNBuPo6gLA4PZST-1">
          <mxGeometry x="215" y="270" width="120" height="40" as="geometry" />
        </mxCell>
        <mxCell id="9KSS2Ekjr-VTVriNil9r-3" value="" style="rounded=1;whiteSpace=wrap;html=1;shadow=0;glass=0;sketch=0;fontSize=18;fontColor=#000000;strokeColor=#000000;fillColor=#F9F7ED;align=center;verticalAlign=middle;" vertex="1" parent="gwvg8uNBuPo6gLA4PZST-1">
          <mxGeometry x="315" y="355" width="210" height="40" as="geometry" />
        </mxCell>
        <mxCell id="9KSS2Ekjr-VTVriNil9r-4" value="カテゴリ" style="text;strokeColor=none;fillColor=none;html=1;fontSize=18;fontStyle=0;verticalAlign=bottom;align=left;rounded=0;shadow=0;glass=0;sketch=0;fontColor=#000000;" vertex="1" parent="gwvg8uNBuPo6gLA4PZST-1">
          <mxGeometry x="315" y="315" width="100" height="40" as="geometry" />
        </mxCell>
        <mxCell id="9KSS2Ekjr-VTVriNil9r-5" value="" style="html=1;verticalLabelPosition=bottom;align=center;labelBackgroundColor=#ffffff;verticalAlign=top;strokeWidth=1;strokeColor=#000000;shadow=0;dashed=0;shape=mxgraph.ios7.icons.play;rounded=1;glass=0;sketch=0;fontFamily=Helvetica;fontSize=36;fontColor=#B3B3B3;fillColor=none;direction=south;aspect=fixed;" vertex="1" parent="gwvg8uNBuPo6gLA4PZST-1">
          <mxGeometry x="501" y="334" width="20" height="17.5" as="geometry" />
        </mxCell>
        <mxCell id="9KSS2Ekjr-VTVriNil9r-6" value="" style="rounded=1;whiteSpace=wrap;html=1;shadow=0;glass=0;sketch=0;fontSize=18;fontColor=#000000;strokeColor=#000000;fillColor=#F9F7ED;align=center;verticalAlign=middle;" vertex="1" parent="gwvg8uNBuPo6gLA4PZST-1">
          <mxGeometry x="545" y="355" width="210" height="40" as="geometry" />
        </mxCell>
        <mxCell id="9KSS2Ekjr-VTVriNil9r-7" value="金額" style="text;strokeColor=none;fillColor=none;html=1;fontSize=18;fontStyle=0;verticalAlign=bottom;align=left;rounded=0;shadow=0;glass=0;sketch=0;fontColor=#000000;" vertex="1" parent="gwvg8uNBuPo6gLA4PZST-1">
          <mxGeometry x="545" y="310" width="100" height="40" as="geometry" />
        </mxCell>
        <mxCell id="9KSS2Ekjr-VTVriNil9r-8" value="" style="rounded=1;whiteSpace=wrap;html=1;shadow=0;glass=0;sketch=0;fontSize=18;fontColor=#000000;strokeColor=#000000;fillColor=#F9F7ED;align=center;verticalAlign=middle;" vertex="1" parent="gwvg8uNBuPo6gLA4PZST-1">
          <mxGeometry x="775" y="355" width="210" height="40" as="geometry" />
        </mxCell>
        <mxCell id="9KSS2Ekjr-VTVriNil9r-9" value="メモ" style="text;strokeColor=none;fillColor=none;html=1;fontSize=18;fontStyle=0;verticalAlign=bottom;align=left;rounded=0;shadow=0;glass=0;sketch=0;fontColor=#000000;" vertex="1" parent="gwvg8uNBuPo6gLA4PZST-1">
          <mxGeometry x="775" y="315" width="100" height="40" as="geometry" />
        </mxCell>
        <mxCell id="9KSS2Ekjr-VTVriNil9r-10" value="" style="rounded=1;whiteSpace=wrap;html=1;shadow=0;glass=0;sketch=0;fontSize=18;fontColor=#000000;strokeColor=#000000;fillColor=#F9F7ED;align=center;verticalAlign=middle;" vertex="1" parent="gwvg8uNBuPo6gLA4PZST-1">
          <mxGeometry x="85" y="400" width="210" height="40" as="geometry" />
        </mxCell>
        <mxCell id="9KSS2Ekjr-VTVriNil9r-11" value="" style="rounded=1;whiteSpace=wrap;html=1;shadow=0;glass=0;sketch=0;fontSize=18;fontColor=#000000;strokeColor=#000000;fillColor=#F9F7ED;align=center;verticalAlign=middle;" vertex="1" parent="gwvg8uNBuPo6gLA4PZST-1">
          <mxGeometry x="315" y="400" width="210" height="40" as="geometry" />
        </mxCell>
        <mxCell id="9KSS2Ekjr-VTVriNil9r-12" value="" style="rounded=1;whiteSpace=wrap;html=1;shadow=0;glass=0;sketch=0;fontSize=18;fontColor=#000000;strokeColor=#000000;fillColor=#F9F7ED;align=center;verticalAlign=middle;" vertex="1" parent="gwvg8uNBuPo6gLA4PZST-1">
          <mxGeometry x="545" y="400" width="210" height="40" as="geometry" />
        </mxCell>
        <mxCell id="9KSS2Ekjr-VTVriNil9r-13" value="" style="rounded=1;whiteSpace=wrap;html=1;shadow=0;glass=0;sketch=0;fontSize=18;fontColor=#000000;strokeColor=#000000;fillColor=#F9F7ED;align=center;verticalAlign=middle;" vertex="1" parent="gwvg8uNBuPo6gLA4PZST-1">
          <mxGeometry x="775" y="400" width="210" height="40" as="geometry" />
        </mxCell>
        <mxCell id="9KSS2Ekjr-VTVriNil9r-15" value="合計金額　￥" style="text;strokeColor=none;fillColor=none;html=1;fontSize=28;fontStyle=0;verticalAlign=middle;align=left;rounded=0;shadow=0;glass=0;sketch=0;fontColor=#000000;" vertex="1" parent="gwvg8uNBuPo6gLA4PZST-1">
          <mxGeometry x="85" y="460" width="480" height="110" as="geometry" />
        </mxCell>
        <mxCell id="9KSS2Ekjr-VTVriNil9r-16" value="" style="rounded=1;whiteSpace=wrap;html=1;shadow=0;glass=0;sketch=0;fontSize=18;fontColor=#000000;strokeColor=#000000;fillColor=#F9F7ED;align=center;verticalAlign=middle;" vertex="1" parent="gwvg8uNBuPo6gLA4PZST-1">
          <mxGeometry x="195" y="600.81" width="210" height="40" as="geometry" />
        </mxCell>
        <mxCell id="9KSS2Ekjr-VTVriNil9r-17" value="ステータス" style="text;strokeColor=none;fillColor=none;html=1;fontSize=18;fontStyle=0;verticalAlign=middle;align=right;rounded=0;shadow=0;glass=0;sketch=0;fontColor=#000000;" vertex="1" parent="gwvg8uNBuPo6gLA4PZST-1">
          <mxGeometry x="85" y="600.81" width="100" height="40" as="geometry" />
        </mxCell>
        <mxCell id="9KSS2Ekjr-VTVriNil9r-18" value="" style="html=1;verticalLabelPosition=bottom;align=center;labelBackgroundColor=#ffffff;verticalAlign=top;strokeWidth=1;strokeColor=#000000;shadow=0;dashed=0;shape=mxgraph.ios7.icons.play;rounded=1;glass=0;sketch=0;fontFamily=Helvetica;fontSize=36;fontColor=#B3B3B3;fillColor=none;direction=south;aspect=fixed;" vertex="1" parent="gwvg8uNBuPo6gLA4PZST-1">
          <mxGeometry x="376" y="580.06" width="20" height="17.5" as="geometry" />
        </mxCell>
        <mxCell id="9KSS2Ekjr-VTVriNil9r-19" value="" style="rounded=1;whiteSpace=wrap;html=1;shadow=0;glass=0;sketch=0;fontSize=18;fontColor=#000000;strokeColor=#000000;fillColor=#F9F7ED;align=center;verticalAlign=middle;" vertex="1" parent="gwvg8uNBuPo6gLA4PZST-1">
          <mxGeometry x="195" y="669.94" width="210" height="40" as="geometry" />
        </mxCell>
        <mxCell id="9KSS2Ekjr-VTVriNil9r-20" value="日付" style="text;strokeColor=none;fillColor=none;html=1;fontSize=18;fontStyle=0;verticalAlign=middle;align=right;rounded=0;shadow=0;glass=0;sketch=0;fontColor=#000000;" vertex="1" parent="gwvg8uNBuPo6gLA4PZST-1">
          <mxGeometry x="85" y="669.94" width="100" height="40" as="geometry" />
        </mxCell>
        <mxCell id="9KSS2Ekjr-VTVriNil9r-21" value="" style="html=1;verticalLabelPosition=bottom;align=center;labelBackgroundColor=#ffffff;verticalAlign=top;strokeWidth=1;strokeColor=#000000;shadow=0;dashed=0;shape=mxgraph.ios7.icons.play;rounded=1;glass=0;sketch=0;fontFamily=Helvetica;fontSize=36;fontColor=#B3B3B3;fillColor=none;direction=south;aspect=fixed;" vertex="1" parent="gwvg8uNBuPo6gLA4PZST-1">
          <mxGeometry x="376" y="649.19" width="20" height="17.5" as="geometry" />
        </mxCell>
        <mxCell id="9KSS2Ekjr-VTVriNil9r-22" value="" style="rounded=1;whiteSpace=wrap;html=1;shadow=0;glass=0;sketch=0;fontSize=18;fontColor=#000000;strokeColor=#000000;fillColor=#F9F7ED;align=center;verticalAlign=middle;" vertex="1" parent="gwvg8uNBuPo6gLA4PZST-1">
          <mxGeometry x="195" y="740.75" width="210" height="40" as="geometry" />
        </mxCell>
        <mxCell id="9KSS2Ekjr-VTVriNil9r-23" value="推し" style="text;strokeColor=none;fillColor=none;html=1;fontSize=18;fontStyle=0;verticalAlign=middle;align=right;rounded=0;shadow=0;glass=0;sketch=0;fontColor=#000000;" vertex="1" parent="gwvg8uNBuPo6gLA4PZST-1">
          <mxGeometry x="85" y="740.75" width="100" height="40" as="geometry" />
        </mxCell>
        <mxCell id="9KSS2Ekjr-VTVriNil9r-24" value="" style="html=1;verticalLabelPosition=bottom;align=center;labelBackgroundColor=#ffffff;verticalAlign=top;strokeWidth=1;strokeColor=#000000;shadow=0;dashed=0;shape=mxgraph.ios7.icons.play;rounded=1;glass=0;sketch=0;fontFamily=Helvetica;fontSize=36;fontColor=#B3B3B3;fillColor=none;direction=south;aspect=fixed;" vertex="1" parent="gwvg8uNBuPo6gLA4PZST-1">
          <mxGeometry x="376" y="720" width="20" height="17.5" as="geometry" />
        </mxCell>
        <mxCell id="9KSS2Ekjr-VTVriNil9r-25" value="" style="shape=sumEllipse;perimeter=ellipsePerimeter;whiteSpace=wrap;html=1;backgroundOutline=1;rounded=1;shadow=0;glass=0;labelBackgroundColor=none;sketch=0;fontFamily=Helvetica;fontSize=28;fontColor=#B3B3B3;strokeColor=#000000;strokeWidth=1;fillColor=none;align=right;verticalAlign=middle;" vertex="1" parent="gwvg8uNBuPo6gLA4PZST-1">
          <mxGeometry x="995" y="405" width="30" height="30" as="geometry" />
        </mxCell>
      </root>
    </mxGraphModel>
  </diagram>
  <diagram id="IE77nX7QU0ewCUTyFjfK" name="ページ12">
    <mxGraphModel dx="1564" dy="1014" grid="1" gridSize="10" guides="1" tooltips="1" connect="1" arrows="1" fold="1" page="1" pageScale="1" pageWidth="1100" pageHeight="850" math="0" shadow="0">
      <root>
        <mxCell id="vgJYQD5-WNIs-qiqasPq-0" />
        <mxCell id="vgJYQD5-WNIs-qiqasPq-1" parent="vgJYQD5-WNIs-qiqasPq-0" />
        <mxCell id="A5ImWc8a_PMhcC9Niv9b-0" value="" style="whiteSpace=wrap;html=1;rounded=0;shadow=0;labelBackgroundColor=none;strokeWidth=1;fontFamily=Verdana;fontSize=12;align=center;comic=1;strokeColor=#FAE8E0;fillColor=#FAE8E0;fontColor=#ffffff;" vertex="1" parent="vgJYQD5-WNIs-qiqasPq-1">
          <mxGeometry x="20" y="20" width="1060" height="2000" as="geometry" />
        </mxCell>
        <mxCell id="A5ImWc8a_PMhcC9Niv9b-1" value="" style="whiteSpace=wrap;html=1;rounded=1;shadow=0;labelBackgroundColor=none;strokeWidth=2;fontFamily=Verdana;fontSize=12;align=center;comic=1;perimeterSpacing=0;strokeColor=#D8A7B1;fillColor=#D8A7B1;arcSize=7;" vertex="1" parent="vgJYQD5-WNIs-qiqasPq-1">
          <mxGeometry x="65" y="310" width="970" height="670" as="geometry" />
        </mxCell>
        <mxCell id="A5ImWc8a_PMhcC9Niv9b-2" value="&lt;h2&gt;&lt;font face=&quot;Dela Gothic One&quot; data-font-src=&quot;https://fonts.googleapis.com/css?family=Dela+Gothic+One&quot;&gt;推しとお金と。&lt;/font&gt;&lt;/h2&gt;" style="whiteSpace=wrap;html=1;rounded=0;shadow=0;labelBackgroundColor=none;strokeWidth=1;fontFamily=Verdana;fontSize=28;align=center;comic=1;fillColor=none;strokeColor=none;" vertex="1" parent="vgJYQD5-WNIs-qiqasPq-1">
          <mxGeometry x="40" y="40" width="300" height="80" as="geometry" />
        </mxCell>
        <mxCell id="A5ImWc8a_PMhcC9Niv9b-3" value="" style="line;strokeWidth=1;html=1;rounded=0;shadow=0;labelBackgroundColor=none;fillColor=none;fontFamily=Verdana;fontSize=14;fontColor=#000000;align=center;comic=1;" vertex="1" parent="vgJYQD5-WNIs-qiqasPq-1">
          <mxGeometry x="20" y="140" width="1060" height="10" as="geometry" />
        </mxCell>
        <mxCell id="A5ImWc8a_PMhcC9Niv9b-4" value="投稿" style="whiteSpace=wrap;html=1;rounded=0;shadow=0;labelBackgroundColor=none;strokeWidth=1;fontFamily=Verdana;fontSize=14;align=center;comic=1;fillColor=none;strokeColor=none;verticalAlign=bottom;fontStyle=1" vertex="1" parent="vgJYQD5-WNIs-qiqasPq-1">
          <mxGeometry x="850" y="40" width="80" height="90" as="geometry" />
        </mxCell>
        <mxCell id="A5ImWc8a_PMhcC9Niv9b-5" value="わたし" style="whiteSpace=wrap;html=1;rounded=0;shadow=0;labelBackgroundColor=none;strokeWidth=1;fontFamily=Verdana;fontSize=14;align=center;comic=1;fillColor=none;strokeColor=none;verticalAlign=bottom;fontStyle=1" vertex="1" parent="vgJYQD5-WNIs-qiqasPq-1">
          <mxGeometry x="980" y="40" width="80" height="90" as="geometry" />
        </mxCell>
        <mxCell id="A5ImWc8a_PMhcC9Niv9b-6" value="お金" style="whiteSpace=wrap;html=1;rounded=0;shadow=0;labelBackgroundColor=none;strokeWidth=1;fontFamily=Verdana;fontSize=14;align=center;comic=1;fillColor=none;strokeColor=none;verticalAlign=bottom;fontStyle=1" vertex="1" parent="vgJYQD5-WNIs-qiqasPq-1">
          <mxGeometry x="910" y="40" width="80" height="90" as="geometry" />
        </mxCell>
        <mxCell id="A5ImWc8a_PMhcC9Niv9b-7" value="メモリー" style="whiteSpace=wrap;html=1;rounded=0;shadow=0;labelBackgroundColor=none;strokeWidth=1;fontFamily=Verdana;fontSize=14;align=center;comic=1;fillColor=none;strokeColor=none;verticalAlign=bottom;fontStyle=1" vertex="1" parent="vgJYQD5-WNIs-qiqasPq-1">
          <mxGeometry x="780" y="40" width="80" height="90" as="geometry" />
        </mxCell>
        <mxCell id="A5ImWc8a_PMhcC9Niv9b-8" value="" style="html=1;verticalLabelPosition=bottom;align=center;labelBackgroundColor=default;verticalAlign=top;strokeWidth=2;strokeColor=#000000;shadow=0;dashed=0;shape=mxgraph.ios7.icons.edit;rounded=1;fontSize=18;fillColor=#B6E2D3;" vertex="1" parent="vgJYQD5-WNIs-qiqasPq-1">
          <mxGeometry x="800" y="60" width="40" height="40" as="geometry" />
        </mxCell>
        <mxCell id="A5ImWc8a_PMhcC9Niv9b-9" value="" style="html=1;verticalLabelPosition=bottom;align=center;labelBackgroundColor=#ffffff;verticalAlign=top;strokeWidth=2;strokeColor=#000000;shadow=0;dashed=0;shape=mxgraph.ios7.icons.heart;rounded=1;fontSize=18;fillColor=#EF7C8E;" vertex="1" parent="vgJYQD5-WNIs-qiqasPq-1">
          <mxGeometry x="730" y="65" width="40" height="40" as="geometry" />
        </mxCell>
        <mxCell id="A5ImWc8a_PMhcC9Niv9b-10" value="" style="html=1;verticalLabelPosition=bottom;align=center;labelBackgroundColor=#ffffff;verticalAlign=top;strokeWidth=2;strokeColor=#000000;shadow=0;dashed=0;shape=mxgraph.ios7.icons.calculator;rounded=0;sketch=0;fontSize=18;fillColor=#D8A7B1;" vertex="1" parent="vgJYQD5-WNIs-qiqasPq-1">
          <mxGeometry x="935" y="65" width="30" height="40" as="geometry" />
        </mxCell>
        <mxCell id="A5ImWc8a_PMhcC9Niv9b-11" value="" style="html=1;verticalLabelPosition=bottom;align=center;labelBackgroundColor=#ffffff;verticalAlign=top;strokeWidth=2;strokeColor=#000000;shadow=0;dashed=0;shape=mxgraph.ios7.icons.user;rounded=0;sketch=0;fontSize=14;fillColor=none;" vertex="1" parent="vgJYQD5-WNIs-qiqasPq-1">
          <mxGeometry x="1000" y="60" width="40" height="40" as="geometry" />
        </mxCell>
        <mxCell id="A5ImWc8a_PMhcC9Niv9b-12" value="" style="shape=image;html=1;verticalAlign=top;verticalLabelPosition=bottom;labelBackgroundColor=#ffffff;imageAspect=0;aspect=fixed;image=https://cdn4.iconfinder.com/data/icons/basic-user-interface-elements/700/edit-change-pencil-128.png;rounded=0;shadow=0;glass=0;sketch=0;fontSize=14;fontColor=#000000;strokeColor=#000000;fillColor=#FAE8E0;" vertex="1" parent="vgJYQD5-WNIs-qiqasPq-1">
          <mxGeometry x="870" y="65" width="40" height="40" as="geometry" />
        </mxCell>
        <mxCell id="A5ImWc8a_PMhcC9Niv9b-13" value="推し" style="whiteSpace=wrap;html=1;rounded=0;shadow=0;labelBackgroundColor=none;strokeWidth=1;fontFamily=Verdana;fontSize=14;align=center;comic=1;fillColor=none;strokeColor=none;verticalAlign=bottom;fontStyle=1" vertex="1" parent="vgJYQD5-WNIs-qiqasPq-1">
          <mxGeometry x="710" y="40" width="80" height="90" as="geometry" />
        </mxCell>
        <mxCell id="A5ImWc8a_PMhcC9Niv9b-14" value="" style="line;strokeWidth=1;html=1;rounded=0;shadow=0;labelBackgroundColor=none;fillColor=none;fontFamily=Verdana;fontSize=14;fontColor=#000000;align=center;comic=1;" vertex="1" parent="vgJYQD5-WNIs-qiqasPq-1">
          <mxGeometry x="20" y="240" width="1060" height="10" as="geometry" />
        </mxCell>
        <mxCell id="A5ImWc8a_PMhcC9Niv9b-15" value="" style="html=1;verticalLabelPosition=bottom;align=center;labelBackgroundColor=#ffffff;verticalAlign=top;strokeWidth=2;strokeColor=#000000;shadow=0;dashed=0;shape=mxgraph.ios7.icons.add;rounded=1;glass=0;sketch=0;fontFamily=Helvetica;fontSize=36;fontColor=#B3B3B3;fillColor=none;" vertex="1" parent="vgJYQD5-WNIs-qiqasPq-1">
          <mxGeometry x="40" y="170" width="38" height="38" as="geometry" />
        </mxCell>
        <mxCell id="A5ImWc8a_PMhcC9Niv9b-16" value="登録" style="whiteSpace=wrap;html=1;rounded=0;shadow=0;labelBackgroundColor=none;strokeWidth=1;fontFamily=Verdana;fontSize=14;align=center;comic=1;fillColor=none;strokeColor=none;verticalAlign=bottom;fontStyle=1" vertex="1" parent="vgJYQD5-WNIs-qiqasPq-1">
          <mxGeometry x="17.5" y="150" width="80" height="90" as="geometry" />
        </mxCell>
        <mxCell id="A5ImWc8a_PMhcC9Niv9b-20" value="作成" style="rounded=1;whiteSpace=wrap;html=1;shadow=0;glass=0;sketch=0;fontSize=18;fontColor=#000000;strokeColor=#000000;fillColor=#F9F7ED;align=center;verticalAlign=middle;" vertex="1" parent="vgJYQD5-WNIs-qiqasPq-1">
          <mxGeometry x="490" y="880" width="120" height="60" as="geometry" />
        </mxCell>
        <mxCell id="A5ImWc8a_PMhcC9Niv9b-21" value="支出" style="rounded=1;whiteSpace=wrap;html=1;shadow=0;glass=0;sketch=0;fontSize=18;fontColor=#000000;strokeColor=#000000;fillColor=#F9F7ED;align=center;verticalAlign=middle;" vertex="1" parent="vgJYQD5-WNIs-qiqasPq-1">
          <mxGeometry x="85" y="270" width="120" height="40" as="geometry" />
        </mxCell>
        <mxCell id="A5ImWc8a_PMhcC9Niv9b-23" value="推し貯金" style="rounded=1;whiteSpace=wrap;html=1;shadow=0;glass=0;sketch=0;fontSize=18;fontColor=#000000;strokeColor=#000000;fillColor=#D8A7B1;align=center;verticalAlign=middle;" vertex="1" parent="vgJYQD5-WNIs-qiqasPq-1">
          <mxGeometry x="215" y="270" width="120" height="40" as="geometry" />
        </mxCell>
        <mxCell id="A5ImWc8a_PMhcC9Niv9b-24" value="" style="rounded=1;whiteSpace=wrap;html=1;shadow=0;glass=0;sketch=0;fontSize=18;fontColor=#000000;strokeColor=#000000;fillColor=#F9F7ED;align=center;verticalAlign=middle;" vertex="1" parent="vgJYQD5-WNIs-qiqasPq-1">
          <mxGeometry x="85" y="375" width="210" height="40" as="geometry" />
        </mxCell>
        <mxCell id="A5ImWc8a_PMhcC9Niv9b-25" value="カテゴリ" style="text;strokeColor=none;fillColor=none;html=1;fontSize=18;fontStyle=0;verticalAlign=bottom;align=left;rounded=0;shadow=0;glass=0;sketch=0;fontColor=#000000;" vertex="1" parent="vgJYQD5-WNIs-qiqasPq-1">
          <mxGeometry x="85" y="335" width="100" height="40" as="geometry" />
        </mxCell>
        <mxCell id="A5ImWc8a_PMhcC9Niv9b-26" value="" style="html=1;verticalLabelPosition=bottom;align=center;labelBackgroundColor=#ffffff;verticalAlign=top;strokeWidth=1;strokeColor=#000000;shadow=0;dashed=0;shape=mxgraph.ios7.icons.play;rounded=1;glass=0;sketch=0;fontFamily=Helvetica;fontSize=36;fontColor=#B3B3B3;fillColor=none;direction=south;aspect=fixed;" vertex="1" parent="vgJYQD5-WNIs-qiqasPq-1">
          <mxGeometry x="271" y="354" width="20" height="17.5" as="geometry" />
        </mxCell>
        <mxCell id="A5ImWc8a_PMhcC9Niv9b-27" value="" style="rounded=1;whiteSpace=wrap;html=1;shadow=0;glass=0;sketch=0;fontSize=18;fontColor=#000000;strokeColor=#000000;fillColor=#F9F7ED;align=center;verticalAlign=middle;" vertex="1" parent="vgJYQD5-WNIs-qiqasPq-1">
          <mxGeometry x="315" y="375" width="210" height="40" as="geometry" />
        </mxCell>
        <mxCell id="A5ImWc8a_PMhcC9Niv9b-28" value="金額" style="text;strokeColor=none;fillColor=none;html=1;fontSize=18;fontStyle=0;verticalAlign=bottom;align=left;rounded=0;shadow=0;glass=0;sketch=0;fontColor=#000000;" vertex="1" parent="vgJYQD5-WNIs-qiqasPq-1">
          <mxGeometry x="315" y="330" width="100" height="40" as="geometry" />
        </mxCell>
        <mxCell id="A5ImWc8a_PMhcC9Niv9b-29" value="" style="rounded=1;whiteSpace=wrap;html=1;shadow=0;glass=0;sketch=0;fontSize=18;fontColor=#000000;strokeColor=#000000;fillColor=#F9F7ED;align=center;verticalAlign=middle;" vertex="1" parent="vgJYQD5-WNIs-qiqasPq-1">
          <mxGeometry x="545" y="375" width="210" height="40" as="geometry" />
        </mxCell>
        <mxCell id="A5ImWc8a_PMhcC9Niv9b-39" value="" style="rounded=1;whiteSpace=wrap;html=1;shadow=0;glass=0;sketch=0;fontSize=18;fontColor=#000000;strokeColor=#000000;fillColor=#F9F7ED;align=center;verticalAlign=middle;" vertex="1" parent="vgJYQD5-WNIs-qiqasPq-1">
          <mxGeometry x="85" y="480" width="905" height="240" as="geometry" />
        </mxCell>
        <mxCell id="A5ImWc8a_PMhcC9Niv9b-40" value="メモ" style="text;strokeColor=none;fillColor=none;html=1;fontSize=18;fontStyle=0;verticalAlign=bottom;align=left;rounded=0;shadow=0;glass=0;sketch=0;fontColor=#000000;" vertex="1" parent="vgJYQD5-WNIs-qiqasPq-1">
          <mxGeometry x="85" y="440" width="100" height="40" as="geometry" />
        </mxCell>
        <mxCell id="A5ImWc8a_PMhcC9Niv9b-46" value="日付" style="text;strokeColor=none;fillColor=none;html=1;fontSize=18;fontStyle=0;verticalAlign=bottom;align=left;rounded=0;shadow=0;glass=0;sketch=0;fontColor=#000000;" vertex="1" parent="vgJYQD5-WNIs-qiqasPq-1">
          <mxGeometry x="545" y="335" width="100" height="40" as="geometry" />
        </mxCell>
        <mxCell id="A5ImWc8a_PMhcC9Niv9b-47" value="" style="html=1;verticalLabelPosition=bottom;align=center;labelBackgroundColor=#ffffff;verticalAlign=top;strokeWidth=1;strokeColor=#000000;shadow=0;dashed=0;shape=mxgraph.ios7.icons.play;rounded=1;glass=0;sketch=0;fontFamily=Helvetica;fontSize=36;fontColor=#B3B3B3;fillColor=none;direction=south;aspect=fixed;" vertex="1" parent="vgJYQD5-WNIs-qiqasPq-1">
          <mxGeometry x="731" y="354" width="20" height="17.5" as="geometry" />
        </mxCell>
        <mxCell id="A5ImWc8a_PMhcC9Niv9b-48" value="" style="rounded=1;whiteSpace=wrap;html=1;shadow=0;glass=0;sketch=0;fontSize=18;fontColor=#000000;strokeColor=#000000;fillColor=#F9F7ED;align=center;verticalAlign=middle;" vertex="1" parent="vgJYQD5-WNIs-qiqasPq-1">
          <mxGeometry x="780" y="375" width="210" height="40" as="geometry" />
        </mxCell>
        <mxCell id="A5ImWc8a_PMhcC9Niv9b-49" value="推し" style="text;strokeColor=none;fillColor=none;html=1;fontSize=18;fontStyle=0;verticalAlign=bottom;align=left;rounded=0;shadow=0;glass=0;sketch=0;fontColor=#000000;" vertex="1" parent="vgJYQD5-WNIs-qiqasPq-1">
          <mxGeometry x="780" y="335" width="100" height="40" as="geometry" />
        </mxCell>
        <mxCell id="A5ImWc8a_PMhcC9Niv9b-50" value="" style="html=1;verticalLabelPosition=bottom;align=center;labelBackgroundColor=#ffffff;verticalAlign=top;strokeWidth=1;strokeColor=#000000;shadow=0;dashed=0;shape=mxgraph.ios7.icons.play;rounded=1;glass=0;sketch=0;fontFamily=Helvetica;fontSize=36;fontColor=#B3B3B3;fillColor=none;direction=south;aspect=fixed;" vertex="1" parent="vgJYQD5-WNIs-qiqasPq-1">
          <mxGeometry x="966" y="354" width="20" height="17.5" as="geometry" />
        </mxCell>
      </root>
    </mxGraphModel>
  </diagram>
</mxfile>
